<?xml version="1.0" encoding="UTF-8" standalone="no"?>
<!-- Created with Inkscape (http://www.inkscape.org/) -->

<svg
   xmlns:dc="http://purl.org/dc/elements/1.1/"
   xmlns:cc="http://creativecommons.org/ns#"
   xmlns:rdf="http://www.w3.org/1999/02/22-rdf-syntax-ns#"
   xmlns:svg="http://www.w3.org/2000/svg"
   xmlns="http://www.w3.org/2000/svg"
   xmlns:sodipodi="http://sodipodi.sourceforge.net/DTD/sodipodi-0.dtd"
   xmlns:inkscape="http://www.inkscape.org/namespaces/inkscape"
   width="75.906944mm"
   height="57.5625mm"
   viewBox="0 0 268.96161 203.96161"
   id="svg2"
   version="1.1"
   inkscape:version="0.91 r13725"
   sodipodi:docname="answerf.svg">
  <defs
     id="defs4">
    <clipPath
       id="clipPath3354"
       clipPathUnits="userSpaceOnUse">
      <path
         inkscape:connector-curvature="0"
         id="path3356"
         d="M 0,0 419,0 419,315 0,315 0,0 Z" />
    </clipPath>
    <clipPath
       id="clipPath3364"
       clipPathUnits="userSpaceOnUse">
      <path
         inkscape:connector-curvature="0"
         id="path3366"
         d="m 0,315 419.04,0 0,-315 L 0,0 0,315 Z" />
    </clipPath>
    <clipPath
       id="clipPath3370"
       clipPathUnits="userSpaceOnUse">
      <path
         inkscape:connector-curvature="0"
         id="path3372"
         d="M 0,0 419,0 419,315 0,315 0,0 Z" />
    </clipPath>
    <clipPath
       id="clipPath3380"
       clipPathUnits="userSpaceOnUse">
      <path
         inkscape:connector-curvature="0"
         id="path3382"
         d="M 0,0 419,0 419,315 0,315 0,0 Z" />
    </clipPath>
    <clipPath
       id="clipPath3496"
       clipPathUnits="userSpaceOnUse">
      <path
         inkscape:connector-curvature="0"
         id="path3498"
         d="m 54.583,34.583 325.5,0 0,256.833 -325.5,0 0,-256.833 z" />
    </clipPath>
    <clipPath
       id="clipPath3506"
       clipPathUnits="userSpaceOnUse">
      <path
         inkscape:connector-curvature="0"
         id="path3508"
         d="M 0,0 419,0 419,315 0,315 0,0 Z" />
    </clipPath>
    <clipPath
       id="clipPath4567"
       clipPathUnits="userSpaceOnUse">
      <path
         inkscape:connector-curvature="0"
         id="path4569"
         d="M 0,0 419,0 419,315 0,315 0,0 Z" />
    </clipPath>
    <clipPath
       id="clipPath4577"
       clipPathUnits="userSpaceOnUse">
      <path
         inkscape:connector-curvature="0"
         id="path4579"
         d="m 0,315 419.04,0 0,-315 L 0,0 0,315 Z" />
    </clipPath>
    <clipPath
       id="clipPath4583"
       clipPathUnits="userSpaceOnUse">
      <path
         inkscape:connector-curvature="0"
         id="path4585"
         d="M 0,0 419,0 419,315 0,315 0,0 Z" />
    </clipPath>
    <clipPath
       id="clipPath4593"
       clipPathUnits="userSpaceOnUse">
      <path
         inkscape:connector-curvature="0"
         id="path4595"
         d="M 0,0 419,0 419,315 0,315 0,0 Z" />
    </clipPath>
    <clipPath
       id="clipPath4709"
       clipPathUnits="userSpaceOnUse">
      <path
         inkscape:connector-curvature="0"
         id="path4711"
         d="m 54.583,34.583 325.5,0 0,256.833 -325.5,0 0,-256.833 z" />
    </clipPath>
    <clipPath
       id="clipPath4719"
       clipPathUnits="userSpaceOnUse">
      <path
         inkscape:connector-curvature="0"
         id="path4721"
         d="M 0,0 419,0 419,315 0,315 0,0 Z" />
    </clipPath>
  </defs>
  <sodipodi:namedview
     id="base"
     pagecolor="#ffffff"
     bordercolor="#666666"
     borderopacity="1.0"
     inkscape:pageopacity="0.0"
     inkscape:pageshadow="2"
     inkscape:zoom="0.7"
     inkscape:cx="-17.701619"
     inkscape:cy="220.5167"
     inkscape:document-units="px"
     inkscape:current-layer="g4557"
     showgrid="false"
     fit-margin-top="1"
     fit-margin-left="1"
     fit-margin-bottom="1"
     fit-margin-right="1"
     inkscape:window-width="1920"
     inkscape:window-height="1017"
     inkscape:window-x="1912"
     inkscape:window-y="-8"
     inkscape:window-maximized="1" />
  <metadata
     id="metadata7">
    <rdf:RDF>
      <cc:Work
         rdf:about="">
        <dc:format>image/svg+xml</dc:format>
        <dc:type
           rdf:resource="http://purl.org/dc/dcmitype/StillImage" />
        <dc:title></dc:title>
      </cc:Work>
    </rdf:RDF>
  </metadata>
  <g
     inkscape:label="Calque 1"
     inkscape:groupmode="layer"
     id="layer1"
     transform="translate(232.88007,-445.53201)">
    <text
       style="font-variant:normal;font-weight:normal;font-size:12.45324993px;font-family:CMEX10;-inkscape-font-specification:CMEX10;writing-mode:lr-tb;fill:#000000;fill-opacity:1;fill-rule:nonzero;stroke:none"
       id="text4235"
       x="-149.59302"
       y="18.745319">
      <tspan
         x="-149.59302"
         y="18.745319"
         id="tspan4237"></tspan>
    </text>
    <text
       style="font-variant:normal;font-weight:normal;font-size:12.45324993px;font-family:CMEX10;-inkscape-font-specification:CMEX10;writing-mode:lr-tb;fill:#000000;fill-opacity:1;fill-rule:nonzero;stroke:none"
       id="text4245"
       x="-136.79427"
       y="18.745319">
      <tspan
         x="-136.79427"
         y="18.745319"
         id="tspan4247"></tspan>
    </text>
    <text
       style="font-variant:normal;font-weight:normal;font-size:12.45324993px;font-family:CMEX10;-inkscape-font-specification:CMEX10;writing-mode:lr-tb;fill:#000000;fill-opacity:1;fill-rule:nonzero;stroke:none"
       id="text4257"
       x="-58.075508"
       y="18.745319">
      <tspan
         x="-58.075508"
         y="18.745319"
         id="tspan4259"></tspan>
    </text>
    <text
       style="font-variant:normal;font-weight:normal;font-size:12.45324993px;font-family:CMEX10;-inkscape-font-specification:CMEX10;writing-mode:lr-tb;fill:#000000;fill-opacity:1;fill-rule:nonzero;stroke:none"
       id="text4267"
       x="-45.27676"
       y="18.745319">
      <tspan
         x="-45.27676"
         y="18.745319"
         id="tspan4269"></tspan>
    </text>
    <g
       id="g4557"
       transform="matrix(1.25,0,0,-1.25,-229.33676,645.95032)">
      <g
         id="g4559"
         transform="scale(0.5,0.5)">
        <g
           id="g4561">
          <g
             id="g4563">
            <g
               id="g4565"
               clip-path="url(#clipPath4567)">
              <g
                 id="g4571" />
              <g
                 id="g4573">
                <g
                   id="g4575"
                   clip-path="url(#clipPath4577)">
                  <g
                     id="g4581"
                     clip-path="url(#clipPath4583)">
                    <path
                       d="m 0,-0.083 420,0 L 420,315 0,315 0,-0.083 Z"
                       style="fill:#ffffff;fill-opacity:1;fill-rule:nonzero;stroke:none"
                       id="path4587"
                       inkscape:connector-curvature="0" />
                  </g>
                </g>
              </g>
              <g
                 id="g4589">
                <g
                   id="g4591"
                   clip-path="url(#clipPath4593)">
                  <path
                     d="m 54.583,291.417 325.417,0 0,-256.75 -325.417,0 0,256.75 z"
                     style="fill:#ffffff;fill-opacity:1;fill-rule:nonzero;stroke:none"
                     id="path4597"
                     inkscape:connector-curvature="0" />
                  <path
                     d="m 54.583,34.667 0,256.75 325.417,0 0,-256.75 -325.417,0"
                     style="fill:none;stroke:#ffffff;stroke-width:0.5;stroke-linecap:butt;stroke-linejoin:round;stroke-miterlimit:10;stroke-dasharray:none;stroke-opacity:1"
                     id="path4599"
                     inkscape:connector-curvature="0" />
                  <path
                     d="m 54.583,291.417 325.417,0 M 54.583,34.667 380,34.667 m 0,0 0,256.75 M 54.583,34.667 l 0,256.75 m 0,-256.75 325.417,0 m -325.417,0 0,256.75 m 0,-256.75 0,3.333 m 0,253.417 0,-3.25"
                     style="fill:none;stroke:#000000;stroke-width:0.5;stroke-linecap:butt;stroke-linejoin:round;stroke-miterlimit:10;stroke-dasharray:none;stroke-opacity:1"
                     id="path4601"
                     inkscape:connector-curvature="0" />
                  <text
                     transform="matrix(1,0,0,-1,51.8333,22.5833)"
                     style="font-variant:normal;font-weight:normal;font-size:10px;font-family:Helvetica;-inkscape-font-specification:Helvetica;writing-mode:lr-tb;fill:#000000;fill-opacity:1;fill-rule:nonzero;stroke:none"
                     id="text4603">
                    <tspan
                       x="0"
                       y="0"
                       id="tspan4605">0</tspan>
                  </text>
                  <path
                     d="m 119.667,34.667 0,3.333 m 0,253.417 0,-3.25"
                     style="fill:none;stroke:#000000;stroke-width:0.5;stroke-linecap:butt;stroke-linejoin:round;stroke-miterlimit:10;stroke-dasharray:none;stroke-opacity:1"
                     id="path4607"
                     inkscape:connector-curvature="0" />
                  <text
                     transform="matrix(1,0,0,-1,114.1667,22.5833)"
                     style="font-variant:normal;font-weight:normal;font-size:10px;font-family:Helvetica;-inkscape-font-specification:Helvetica;writing-mode:lr-tb;fill:#000000;fill-opacity:1;fill-rule:nonzero;stroke:none"
                     id="text4609">
                    <tspan
                       x="0 5.5599999"
                       y="0"
                       sodipodi:role="line"
                       id="tspan4611">20</tspan>
                  </text>
                  <path
                     d="m 184.75,34.667 0,3.333 m 0,253.417 0,-3.25"
                     style="fill:none;stroke:#000000;stroke-width:0.5;stroke-linecap:butt;stroke-linejoin:round;stroke-miterlimit:10;stroke-dasharray:none;stroke-opacity:1"
                     id="path4613"
                     inkscape:connector-curvature="0" />
                  <text
                     transform="matrix(1,0,0,-1,179.25,22.5833)"
                     style="font-variant:normal;font-weight:normal;font-size:10px;font-family:Helvetica;-inkscape-font-specification:Helvetica;writing-mode:lr-tb;fill:#000000;fill-opacity:1;fill-rule:nonzero;stroke:none"
                     id="text4615">
                    <tspan
                       x="0 5.5599999"
                       y="0"
                       sodipodi:role="line"
                       id="tspan4617">40</tspan>
                  </text>
                  <path
                     d="m 249.833,34.667 0,3.333 m 0,253.417 0,-3.25"
                     style="fill:none;stroke:#000000;stroke-width:0.5;stroke-linecap:butt;stroke-linejoin:round;stroke-miterlimit:10;stroke-dasharray:none;stroke-opacity:1"
                     id="path4619"
                     inkscape:connector-curvature="0" />
                  <text
                     transform="matrix(1,0,0,-1,244.3333,22.5833)"
                     style="font-variant:normal;font-weight:normal;font-size:10px;font-family:Helvetica;-inkscape-font-specification:Helvetica;writing-mode:lr-tb;fill:#000000;fill-opacity:1;fill-rule:nonzero;stroke:none"
                     id="text4621">
                    <tspan
                       x="0 5.5599999"
                       y="0"
                       sodipodi:role="line"
                       id="tspan4623">60</tspan>
                  </text>
                  <path
                     d="m 314.917,34.667 0,3.333 m 0,253.417 0,-3.25"
                     style="fill:none;stroke:#000000;stroke-width:0.5;stroke-linecap:butt;stroke-linejoin:round;stroke-miterlimit:10;stroke-dasharray:none;stroke-opacity:1"
                     id="path4625"
                     inkscape:connector-curvature="0" />
                  <text
                     transform="matrix(1,0,0,-1,309.4167,22.5833)"
                     style="font-variant:normal;font-weight:normal;font-size:10px;font-family:Helvetica;-inkscape-font-specification:Helvetica;writing-mode:lr-tb;fill:#000000;fill-opacity:1;fill-rule:nonzero;stroke:none"
                     id="text4627">
                    <tspan
                       x="0 5.5599999"
                       y="0"
                       sodipodi:role="line"
                       id="tspan4629">80</tspan>
                  </text>
                  <path
                     d="M 380,34.667 380,38 m 0,253.417 0,-3.25"
                     style="fill:none;stroke:#000000;stroke-width:0.5;stroke-linecap:butt;stroke-linejoin:round;stroke-miterlimit:10;stroke-dasharray:none;stroke-opacity:1"
                     id="path4631"
                     inkscape:connector-curvature="0" />
                  <text
                     transform="matrix(1,0,0,-1,371.6667,22.5833)"
                     style="font-variant:normal;font-weight:normal;font-size:10px;font-family:Helvetica;-inkscape-font-specification:Helvetica;writing-mode:lr-tb;fill:#000000;fill-opacity:1;fill-rule:nonzero;stroke:none"
                     id="text4633">
                    <tspan
                       x="0 5.5599999 11.12"
                       y="0"
                       sodipodi:role="line"
                       id="tspan4635">100</tspan>
                  </text>
                  <path
                     d="m 54.583,34.667 3.25,0 m 322.167,0 -3.333,0"
                     style="fill:none;stroke:#000000;stroke-width:0.5;stroke-linecap:butt;stroke-linejoin:round;stroke-miterlimit:10;stroke-dasharray:none;stroke-opacity:1"
                     id="path4637"
                     inkscape:connector-curvature="0" />
                  <text
                     transform="matrix(1,0,0,-1,46.1667,31)"
                     style="font-variant:normal;font-weight:normal;font-size:10px;font-family:Helvetica;-inkscape-font-specification:Helvetica;writing-mode:lr-tb;fill:#000000;fill-opacity:1;fill-rule:nonzero;stroke:none"
                     id="text4639">
                    <tspan
                       x="0"
                       y="0"
                       id="tspan4641">0</tspan>
                  </text>
                  <path
                     d="m 54.583,60.417 3.25,0 m 322.167,0 -3.333,0"
                     style="fill:none;stroke:#000000;stroke-width:0.5;stroke-linecap:butt;stroke-linejoin:round;stroke-miterlimit:10;stroke-dasharray:none;stroke-opacity:1"
                     id="path4643"
                     inkscape:connector-curvature="0" />
                  <text
                     transform="matrix(1,0,0,-1,40.5833,56.75)"
                     style="font-variant:normal;font-weight:normal;font-size:10px;font-family:Helvetica;-inkscape-font-specification:Helvetica;writing-mode:lr-tb;fill:#000000;fill-opacity:1;fill-rule:nonzero;stroke:none"
                     id="text4645">
                    <tspan
                       x="0 5.5599999"
                       y="0"
                       sodipodi:role="line"
                       id="tspan4647">10</tspan>
                  </text>
                  <path
                     d="m 54.583,86.083 3.25,0 m 322.167,0 -3.333,0"
                     style="fill:none;stroke:#000000;stroke-width:0.5;stroke-linecap:butt;stroke-linejoin:round;stroke-miterlimit:10;stroke-dasharray:none;stroke-opacity:1"
                     id="path4649"
                     inkscape:connector-curvature="0" />
                  <text
                     transform="matrix(1,0,0,-1,40.5833,82.4167)"
                     style="font-variant:normal;font-weight:normal;font-size:10px;font-family:Helvetica;-inkscape-font-specification:Helvetica;writing-mode:lr-tb;fill:#000000;fill-opacity:1;fill-rule:nonzero;stroke:none"
                     id="text4651">
                    <tspan
                       x="0 5.5599999"
                       y="0"
                       sodipodi:role="line"
                       id="tspan4653">20</tspan>
                  </text>
                  <path
                     d="m 54.583,111.75 3.25,0 m 322.167,0 -3.333,0"
                     style="fill:none;stroke:#000000;stroke-width:0.5;stroke-linecap:butt;stroke-linejoin:round;stroke-miterlimit:10;stroke-dasharray:none;stroke-opacity:1"
                     id="path4655"
                     inkscape:connector-curvature="0" />
                  <text
                     transform="matrix(1,0,0,-1,40.5833,108.0833)"
                     style="font-variant:normal;font-weight:normal;font-size:10px;font-family:Helvetica;-inkscape-font-specification:Helvetica;writing-mode:lr-tb;fill:#000000;fill-opacity:1;fill-rule:nonzero;stroke:none"
                     id="text4657">
                    <tspan
                       x="0 5.5599999"
                       y="0"
                       sodipodi:role="line"
                       id="tspan4659">30</tspan>
                  </text>
                  <path
                     d="m 54.583,137.417 3.25,0 m 322.167,0 -3.333,0"
                     style="fill:none;stroke:#000000;stroke-width:0.5;stroke-linecap:butt;stroke-linejoin:round;stroke-miterlimit:10;stroke-dasharray:none;stroke-opacity:1"
                     id="path4661"
                     inkscape:connector-curvature="0" />
                  <text
                     transform="matrix(1,0,0,-1,40.5833,133.75)"
                     style="font-variant:normal;font-weight:normal;font-size:10px;font-family:Helvetica;-inkscape-font-specification:Helvetica;writing-mode:lr-tb;fill:#000000;fill-opacity:1;fill-rule:nonzero;stroke:none"
                     id="text4663">
                    <tspan
                       x="0 5.5599999"
                       y="0"
                       sodipodi:role="line"
                       id="tspan4665">40</tspan>
                  </text>
                  <path
                     d="m 54.583,163.083 3.25,0 m 322.167,0 -3.333,0"
                     style="fill:none;stroke:#000000;stroke-width:0.5;stroke-linecap:butt;stroke-linejoin:round;stroke-miterlimit:10;stroke-dasharray:none;stroke-opacity:1"
                     id="path4667"
                     inkscape:connector-curvature="0" />
                  <text
                     transform="matrix(1,0,0,-1,40.5833,159.4167)"
                     style="font-variant:normal;font-weight:normal;font-size:10px;font-family:Helvetica;-inkscape-font-specification:Helvetica;writing-mode:lr-tb;fill:#000000;fill-opacity:1;fill-rule:nonzero;stroke:none"
                     id="text4669">
                    <tspan
                       x="0 5.5599999"
                       y="0"
                       sodipodi:role="line"
                       id="tspan4671">50</tspan>
                  </text>
                  <path
                     d="m 54.583,188.75 3.25,0 m 322.167,0 -3.333,0"
                     style="fill:none;stroke:#000000;stroke-width:0.5;stroke-linecap:butt;stroke-linejoin:round;stroke-miterlimit:10;stroke-dasharray:none;stroke-opacity:1"
                     id="path4673"
                     inkscape:connector-curvature="0" />
                  <text
                     transform="matrix(1,0,0,-1,40.5833,185.0833)"
                     style="font-variant:normal;font-weight:normal;font-size:10px;font-family:Helvetica;-inkscape-font-specification:Helvetica;writing-mode:lr-tb;fill:#000000;fill-opacity:1;fill-rule:nonzero;stroke:none"
                     id="text4675">
                    <tspan
                       x="0 5.5599999"
                       y="0"
                       sodipodi:role="line"
                       id="tspan4677">60</tspan>
                  </text>
                  <path
                     d="m 54.583,214.417 3.25,0 m 322.167,0 -3.333,0"
                     style="fill:none;stroke:#000000;stroke-width:0.5;stroke-linecap:butt;stroke-linejoin:round;stroke-miterlimit:10;stroke-dasharray:none;stroke-opacity:1"
                     id="path4679"
                     inkscape:connector-curvature="0" />
                  <text
                     transform="matrix(1,0,0,-1,40.5833,210.75)"
                     style="font-variant:normal;font-weight:normal;font-size:10px;font-family:Helvetica;-inkscape-font-specification:Helvetica;writing-mode:lr-tb;fill:#000000;fill-opacity:1;fill-rule:nonzero;stroke:none"
                     id="text4681">
                    <tspan
                       x="0 5.5599999"
                       y="0"
                       sodipodi:role="line"
                       id="tspan4683">70</tspan>
                  </text>
                  <path
                     d="m 54.583,240.083 3.25,0 m 322.167,0 -3.333,0"
                     style="fill:none;stroke:#000000;stroke-width:0.5;stroke-linecap:butt;stroke-linejoin:round;stroke-miterlimit:10;stroke-dasharray:none;stroke-opacity:1"
                     id="path4685"
                     inkscape:connector-curvature="0" />
                  <text
                     transform="matrix(1,0,0,-1,40.5833,236.4167)"
                     style="font-variant:normal;font-weight:normal;font-size:10px;font-family:Helvetica;-inkscape-font-specification:Helvetica;writing-mode:lr-tb;fill:#000000;fill-opacity:1;fill-rule:nonzero;stroke:none"
                     id="text4687">
                    <tspan
                       x="0 5.5599999"
                       y="0"
                       sodipodi:role="line"
                       id="tspan4689">80</tspan>
                  </text>
                  <path
                     d="m 54.583,265.75 3.25,0 m 322.167,0 -3.333,0"
                     style="fill:none;stroke:#000000;stroke-width:0.5;stroke-linecap:butt;stroke-linejoin:round;stroke-miterlimit:10;stroke-dasharray:none;stroke-opacity:1"
                     id="path4691"
                     inkscape:connector-curvature="0" />
                  <text
                     transform="matrix(1,0,0,-1,40.5833,262.0833)"
                     style="font-variant:normal;font-weight:normal;font-size:10px;font-family:Helvetica;-inkscape-font-specification:Helvetica;writing-mode:lr-tb;fill:#000000;fill-opacity:1;fill-rule:nonzero;stroke:none"
                     id="text4693">
                    <tspan
                       x="0 5.5599999"
                       y="0"
                       sodipodi:role="line"
                       id="tspan4695">90</tspan>
                  </text>
                  <path
                     d="m 54.583,291.417 3.25,0 m 322.167,0 -3.333,0"
                     style="fill:none;stroke:#000000;stroke-width:0.5;stroke-linecap:butt;stroke-linejoin:round;stroke-miterlimit:10;stroke-dasharray:none;stroke-opacity:1"
                     id="path4697"
                     inkscape:connector-curvature="0" />
                  <text
                     transform="matrix(1,0,0,-1,35,287.75)"
                     style="font-variant:normal;font-weight:normal;font-size:10px;font-family:Helvetica;-inkscape-font-specification:Helvetica;writing-mode:lr-tb;fill:#000000;fill-opacity:1;fill-rule:nonzero;stroke:none"
                     id="text4699">
                    <tspan
                       x="0 5.5599999 11.12"
                       y="0"
                       sodipodi:role="line"
                       id="tspan4701">100</tspan>
                  </text>
                  <path
                     d="m 54.583,291.417 325.417,0 M 54.583,34.667 380,34.667 m 0,0 0,256.75 M 54.583,34.667 l 0,256.75"
                     style="fill:none;stroke:#000000;stroke-width:0.5;stroke-linecap:butt;stroke-linejoin:round;stroke-miterlimit:10;stroke-dasharray:none;stroke-opacity:1"
                     id="path4703"
                     inkscape:connector-curvature="0" />
                </g>
              </g>
              <g
                 id="g4705">
                <g
                   id="g4707"
                   clip-path="url(#clipPath4709)">
                  <path
                     d="m 54.583,34.667 3.25,10.25 3.25,9.916 3.25,9.75 3.25,9.584 3.25,9.333 3.25,9.167 3.25,8.916 3.25,8.75 3.25,8.5 3.25,8.334 3.25,8.083 3.25,7.917 3.25,7.666 3.25,7.5 3.25,7.334 3.25,7.083 3.25,6.833 3.25,6.75 3.25,6.417 3.334,6.25 3.25,6.083 3.25,5.834 3.25,5.666 3.25,5.417 3.25,5.25 3.25,5.083 3.25,4.834 3.25,4.583 3.25,4.417 3.25,4.25 3.25,4 3.25,3.75 3.25,3.583 3.25,3.417 3.25,3.166 3.25,3 3.25,2.75 3.25,2.584 3.25,2.333 3.333,2.167 3.25,2 3.25,1.75 3.25,1.5 3.25,1.333 3.25,1.167 3.25,0.916 3.25,0.667 3.25,0.583 3.25,0.25 3.25,0.084 3.25,-0.084 3.25,-0.25 3.25,-0.583 3.25,-0.667 3.25,-0.916 3.25,-1.167 3.25,-1.333 3.25,-1.5 3.25,-1.75 3.333,-2 3.25,-2.167 3.25,-2.333 3.25,-2.584 3.25,-2.75 3.25,-3 3.25,-3.166 3.25,-3.417 3.25,-3.583 3.25,-3.75 3.25,-4 3.25,-4.25 3.25,-4.417 3.25,-4.583 3.25,-4.834 3.25,-5.083 3.25,-5.25 3.25,-5.417 3.25,-5.666 3.25,-5.834 3.334,-6.083 3.25,-6.25 3.25,-6.417 3.25,-6.75 3.25,-6.833 3.25,-7.083 3.25,-7.334 3.25,-7.5 3.25,-7.666 3.25,-7.917 3.25,-8.083 3.25,-8.334 3.25,-8.5 3.25,-8.75 3.25,-8.916 3.25,-9.167 3.25,-9.333 3.25,-9.584 3.25,-9.75 3.25,-9.916 3.333,-10.25 m -325.417,0 16.25,12.916 3.25,2.5 13,10.334 3.25,2.5 13,10.333 3.25,2.5 9.75,7.75 3.334,2.583 3.25,2.584 3.25,2.5 13,10.333 3.25,2.5 13,10.333 3.25,2.5 13,10.334 3.25,2.5 6.5,5.166 3.333,2.584 6.5,5.166 3.25,2.5 13,10.334 3.25,2.5 13,10.333 3.25,2.5 13,10.333 3.25,2.5 3.25,2.584 3.333,2.583 9.75,7.75 3.25,2.5 13,10.333 3.25,2.5 13,10.334 3.25,2.5 13,10.333 3.25,2.5 3.334,2.583 13,10.334 3.25,2.5 13,10.333 3.25,2.5 13,10.333 3.25,2.5 13,10.334 3.333,2.5"
                     style="fill:none;stroke:#0000ff;stroke-width:0.5;stroke-linecap:butt;stroke-linejoin:round;stroke-miterlimit:10;stroke-dasharray:none;stroke-opacity:1"
                     id="path4713"
                     inkscape:connector-curvature="0" />
                </g>
              </g>
              <g
                 id="g4715">
                <g
                   id="g4717"
                   clip-path="url(#clipPath4719)">
                  <text
                     transform="matrix(0,1,1,0,28.1667,155.8333)"
                     style="font-variant:normal;font-weight:normal;font-size:10px;font-family:Helvetica;-inkscape-font-specification:Helvetica;writing-mode:lr-tb;fill:#000000;fill-opacity:1;fill-rule:nonzero;stroke:none"
                     id="text4723">
                    <tspan
                       x="0 2.78 6.1100001 11.11"
                       y="0"
                       sodipodi:role="line"
                       id="tspan4725">f(x)</tspan>
                  </text>
                  <text
                     transform="matrix(1,0,0,-1,210,10.6666)"
                     style="font-variant:normal;font-weight:normal;font-size:10px;font-family:Helvetica;-inkscape-font-specification:Helvetica;writing-mode:lr-tb;fill:#000000;fill-opacity:1;fill-rule:nonzero;stroke:none"
                     id="text4727">
                    <tspan
                       x="0 2.78 6.1100001 11.11"
                       y="0"
                       sodipodi:role="line"
                       id="tspan4729">f(x)</tspan>
                  </text>
                </g>
              </g>
            </g>
          </g>
        </g>
      </g>
    </g>
  </g>
</svg>
