<?xml version="1.0" encoding="UTF-8" standalone="no"?>
<!-- Created with Inkscape (http://www.inkscape.org/) -->

<svg
   xmlns:dc="http://purl.org/dc/elements/1.1/"
   xmlns:cc="http://creativecommons.org/ns#"
   xmlns:rdf="http://www.w3.org/1999/02/22-rdf-syntax-ns#"
   xmlns:svg="http://www.w3.org/2000/svg"
   xmlns="http://www.w3.org/2000/svg"
   xmlns:sodipodi="http://sodipodi.sourceforge.net/DTD/sodipodi-0.dtd"
   xmlns:inkscape="http://www.inkscape.org/namespaces/inkscape"
   width="125.06577mm"
   height="65.578651mm"
   viewBox="0 0 443.14641 232.36531"
   id="svg2"
   version="1.1"
   inkscape:version="0.91 r13725"
   sodipodi:docname="collision.svg">
  <defs
     id="defs4">
    <marker
       inkscape:stockid="TriangleInS"
       orient="auto"
       refY="0"
       refX="0"
       id="marker4841"
       style="overflow:visible"
       inkscape:isstock="true">
      <path
         id="path4843"
         d="m 5.77,0 -8.65,5 0,-10 8.65,5 z"
         style="fill:#3c3cff;fill-opacity:1;fill-rule:evenodd;stroke:#3c3cff;stroke-width:1pt;stroke-opacity:1"
         transform="scale(-0.2,-0.2)"
         inkscape:connector-curvature="0" />
    </marker>
    <marker
       inkscape:stockid="TriangleOutS"
       orient="auto"
       refY="0"
       refX="0"
       id="marker4783"
       style="overflow:visible"
       inkscape:isstock="true">
      <path
         id="path4785"
         d="m 5.77,0 -8.65,5 0,-10 8.65,5 z"
         style="fill:#3c3cff;fill-opacity:1;fill-rule:evenodd;stroke:#3c3cff;stroke-width:1pt;stroke-opacity:1"
         transform="scale(0.2,0.2)"
         inkscape:connector-curvature="0" />
    </marker>
    <marker
       inkscape:stockid="Arrow2Mend"
       orient="auto"
       refY="0"
       refX="0"
       id="marker4731"
       style="overflow:visible"
       inkscape:isstock="true">
      <path
         id="path4733"
         style="fill:#3c3cff;fill-opacity:1;fill-rule:evenodd;stroke:#3c3cff;stroke-width:0.625;stroke-linejoin:round;stroke-opacity:1"
         d="M 8.7185878,4.0337352 -2.2072895,0.01601326 8.7185884,-4.0017078 c -1.7454984,2.3720609 -1.7354408,5.6174519 -6e-7,8.035443 z"
         transform="scale(-0.6,-0.6)"
         inkscape:connector-curvature="0" />
    </marker>
    <marker
       inkscape:stockid="TriangleInS"
       orient="auto"
       refY="0"
       refX="0"
       id="TriangleInS"
       style="overflow:visible"
       inkscape:isstock="true">
      <path
         id="path4448"
         d="m 5.77,0 -8.65,5 0,-10 8.65,5 z"
         style="fill:#ff3c3c;fill-opacity:1;fill-rule:evenodd;stroke:#ff3c3c;stroke-width:1pt;stroke-opacity:1"
         transform="scale(-0.2,-0.2)"
         inkscape:connector-curvature="0" />
    </marker>
    <marker
       inkscape:stockid="TriangleOutS"
       orient="auto"
       refY="0"
       refX="0"
       id="TriangleOutS"
       style="overflow:visible"
       inkscape:isstock="true">
      <path
         id="path4457"
         d="m 5.77,0 -8.65,5 0,-10 8.65,5 z"
         style="fill:#ff3c3c;fill-opacity:1;fill-rule:evenodd;stroke:#ff3c3c;stroke-width:1pt;stroke-opacity:1"
         transform="scale(0.2,0.2)"
         inkscape:connector-curvature="0" />
    </marker>
    <marker
       inkscape:stockid="DotS"
       orient="auto"
       refY="0"
       refX="0"
       id="DotS"
       style="overflow:visible"
       inkscape:isstock="true">
      <path
         id="path4376"
         d="m -2.5,-1 c 0,2.76 -2.24,5 -5,5 -2.76,0 -5,-2.24 -5,-5 0,-2.76 2.24,-5 5,-5 2.76,0 5,2.24 5,5 z"
         style="fill:#ff3c3c;fill-opacity:1;fill-rule:evenodd;stroke:#ff3c3c;stroke-width:1pt;stroke-opacity:1"
         transform="matrix(0.2,0,0,0.2,1.48,0.2)"
         inkscape:connector-curvature="0" />
    </marker>
    <marker
       inkscape:stockid="Arrow2Mend"
       orient="auto"
       refY="0"
       refX="0"
       id="Arrow2Mend"
       style="overflow:visible"
       inkscape:isstock="true">
      <path
         id="path4336"
         style="fill:#ff3c3c;fill-opacity:1;fill-rule:evenodd;stroke:#ff3c3c;stroke-width:0.625;stroke-linejoin:round;stroke-opacity:1"
         d="M 8.7185878,4.0337352 -2.2072895,0.01601326 8.7185884,-4.0017078 c -1.7454984,2.3720609 -1.7354408,5.6174519 -6e-7,8.035443 z"
         transform="scale(-0.6,-0.6)"
         inkscape:connector-curvature="0" />
    </marker>
    <marker
       inkscape:stockid="Arrow1Lend"
       orient="auto"
       refY="0"
       refX="0"
       id="Arrow1Lend"
       style="overflow:visible"
       inkscape:isstock="true">
      <path
         id="path4312"
         d="M 0,0 5,-5 -12.5,0 5,5 0,0 Z"
         style="fill:#ff3c3c;fill-opacity:1;fill-rule:evenodd;stroke:#ff3c3c;stroke-width:1pt;stroke-opacity:1"
         transform="matrix(-0.8,0,0,-0.8,-10,0)"
         inkscape:connector-curvature="0" />
    </marker>
  </defs>
  <sodipodi:namedview
     id="base"
     pagecolor="#ffffff"
     bordercolor="#666666"
     borderopacity="1.0"
     inkscape:pageopacity="0.0"
     inkscape:pageshadow="2"
     inkscape:zoom="1"
     inkscape:cx="204.20272"
     inkscape:cy="60.222226"
     inkscape:document-units="px"
     inkscape:current-layer="layer1"
     showgrid="true"
     inkscape:snap-bbox="true"
     inkscape:bbox-paths="true"
     inkscape:bbox-nodes="true"
     inkscape:snap-bbox-edge-midpoints="true"
     inkscape:snap-bbox-midpoints="true"
     inkscape:snap-intersection-paths="false"
     inkscape:object-paths="true"
     inkscape:object-nodes="true"
     inkscape:snap-smooth-nodes="true"
     inkscape:snap-midpoints="true"
     inkscape:snap-object-midpoints="true"
     inkscape:snap-center="true"
     inkscape:snap-others="false"
     inkscape:snap-nodes="true"
     inkscape:snap-global="false"
     inkscape:window-width="1920"
     inkscape:window-height="1017"
     inkscape:window-x="-8"
     inkscape:window-y="-8"
     inkscape:window-maximized="1"
     fit-margin-top="1"
     fit-margin-left="1"
     fit-margin-right="1"
     fit-margin-bottom="1"
     units="mm">
    <inkscape:grid
       type="xygrid"
       id="grid3374"
       originx="-110.92679"
       originy="-705.24011" />
  </sodipodi:namedview>
  <metadata
     id="metadata7">
    <rdf:RDF>
      <cc:Work
         rdf:about="">
        <dc:format>image/svg+xml</dc:format>
        <dc:type
           rdf:resource="http://purl.org/dc/dcmitype/StillImage" />
        <dc:title></dc:title>
      </cc:Work>
    </rdf:RDF>
  </metadata>
  <g
     inkscape:label="Calque 1"
     inkscape:groupmode="layer"
     id="layer1"
     transform="translate(-110.92679,-114.75682)">
    <path
       inkscape:connector-curvature="0"
       id="path3"
       d="m 220.26809,250.11114 -9.55126,0 0,-4.77563 c 0,-2.63494 -2.13604,-4.77563 -4.77563,-4.77563 l -52.53188,0 c -2.63959,0 -4.77563,2.14069 -4.77563,4.77563 l 0,38.205 c 0,2.63975 2.13604,4.77563 4.77563,4.77563 l 21.49033,0 -4.77563,9.55126 19.10252,0 -4.77563,-9.55126 16.71471,0 0,9.55126 c 0,2.63975 2.13604,4.77563 4.77558,4.77563 l 14.32689,0 c 2.63975,0 4.77563,-2.13605 4.77563,-4.77563 l 0,-42.98063 c 0,-2.63498 -2.13588,-4.77563 -4.77563,-4.77563 z m -66.85877,28.65378 0,-33.42941 52.53188,0 0,4.77563 c -2.63971,0 -4.77558,2.14065 -4.77558,4.77563 l 0,23.87815 -47.7563,0 z m 59.69533,19.10248 c -1.31984,0 -2.38782,-1.06794 -2.38782,-2.38782 0,-1.31983 1.06798,-2.38781 2.38782,-2.38781 1.31987,0 2.38781,1.06798 2.38781,2.38781 0,1.31988 -1.06794,2.38782 -2.38781,2.38782 z m 0,-9.55126 c -1.31984,0 -2.38782,-1.06794 -2.38782,-2.38782 0,-1.31983 1.06798,-2.38781 2.38782,-2.38781 1.31987,0 2.38781,1.06798 2.38781,2.38781 0,1.31988 -1.06794,2.38782 -2.38781,2.38782 z m 7.16344,-19.10248 -9.55126,0 -4.77563,0 0,-4.77567 14.32689,0 0,4.77567 z m 0,-9.55126 -14.32689,0 0,-4.77563 14.32689,0 0,4.77563 z"
       style="fill:#3c3c3c;fill-opacity:1" />
    <path
       inkscape:connector-curvature="0"
       id="path3-7"
       d="m 362.90453,250.11114 -9.55126,0 0,-4.77563 c 0,-2.63494 -2.13604,-4.77563 -4.77563,-4.77563 l -52.53188,0 c -2.63959,0 -4.77563,2.14069 -4.77563,4.77563 l 0,38.205 c 0,2.63975 2.13604,4.77563 4.77563,4.77563 l 21.49033,0 -4.77567,9.55126 19.10252,0 -4.77563,-9.55126 16.7147,0 0,9.55126 c 0,2.63975 2.13604,4.77563 4.77563,4.77563 l 14.32689,0 c 2.63971,0 4.77563,-2.13605 4.77563,-4.77563 l 0,-42.98063 c 0,-2.63498 -2.13592,-4.77563 -4.77563,-4.77563 z m -66.85877,28.65378 0,-33.42941 52.53188,0 0,4.77563 c -2.63971,0 -4.77563,2.14065 -4.77563,4.77563 l 0,23.87815 -47.75625,0 z m 59.69533,19.10248 c -1.31988,0 -2.38782,-1.06794 -2.38782,-2.38782 0,-1.31983 1.06794,-2.38781 2.38782,-2.38781 1.31987,0 2.38781,1.06798 2.38781,2.38781 0,1.31988 -1.06794,2.38782 -2.38781,2.38782 z m 0,-9.55126 c -1.31988,0 -2.38782,-1.06794 -2.38782,-2.38782 0,-1.31983 1.06794,-2.38781 2.38782,-2.38781 1.31987,0 2.38781,1.06798 2.38781,2.38781 0,1.31988 -1.06794,2.38782 -2.38781,2.38782 z m 7.16344,-19.10248 -9.55126,0 -4.77563,0 0,-4.77567 14.32689,0 0,4.77567 z m 0,-9.55126 -14.32689,0 0,-4.77563 14.32689,0 0,4.77563 z"
       style="fill:#3c3c3c;fill-opacity:1" />
    <path
       inkscape:connector-curvature="0"
       id="path3-8"
       d="m 505.54088,250.11114 -9.55126,0 0,-4.77563 c 0,-2.63494 -2.13604,-4.77563 -4.77562,-4.77563 l -52.53189,0 c -2.63959,0 -4.77563,2.14069 -4.77563,4.77563 l 0,38.205 c 0,2.63975 2.13604,4.77563 4.77563,4.77563 l 21.49033,0 -4.77563,9.55126 19.10248,0 -4.77559,-9.55126 16.71467,0 0,9.55126 c 0,2.63975 2.13604,4.77563 4.77563,4.77563 l 14.32688,0 c 2.63976,0 4.77563,-2.13605 4.77563,-4.77563 l 0,-42.98063 c 0,-2.63498 -2.13587,-4.77563 -4.77563,-4.77563 z m -66.85877,28.65378 0,-33.42941 52.53189,0 0,4.77563 c -2.63972,0 -4.77563,2.14065 -4.77563,4.77563 l 0,23.87815 -47.75626,0 z m 59.69533,19.10248 c -1.31988,0 -2.38782,-1.06794 -2.38782,-2.38782 0,-1.31983 1.06794,-2.38781 2.38782,-2.38781 1.31988,0 2.38781,1.06798 2.38781,2.38781 0,1.31988 -1.06793,2.38782 -2.38781,2.38782 z m 0,-9.55126 c -1.31988,0 -2.38782,-1.06794 -2.38782,-2.38782 0,-1.31983 1.06794,-2.38781 2.38782,-2.38781 1.31988,0 2.38781,1.06798 2.38781,2.38781 0,1.31988 -1.06793,2.38782 -2.38781,2.38782 z m 7.16344,-19.10248 -9.55126,0 -4.77562,0 0,-4.77567 14.32688,0 0,4.77567 z m 0,-9.55126 -14.32688,0 0,-4.77563 14.32688,0 0,4.77563 z"
       style="fill:#3c3c3c;fill-opacity:1" />
    <path
       style="fill:none;fill-rule:evenodd;stroke:#3c3c3c;stroke-width:4.07532549px;stroke-linecap:butt;stroke-linejoin:miter;stroke-opacity:1"
       d="m 134.8467,338.62065 -4.07532,0"
       id="path3380"
       inkscape:connector-curvature="0" />
    <path
       style="fill:none;fill-rule:evenodd;stroke:#3c3c3c;stroke-width:4.07532549px;stroke-linecap:butt;stroke-linejoin:miter;stroke-opacity:1"
       d="m 126.69605,338.62065 -4.07533,0"
       id="path3382"
       inkscape:connector-curvature="0" />
    <path
       style="fill:none;fill-rule:evenodd;stroke:#3c3c3c;stroke-width:4.07532549px;stroke-linecap:butt;stroke-linejoin:miter;stroke-opacity:1"
       d="m 118.5454,338.62065 -4.07533,0"
       id="path3384"
       inkscape:connector-curvature="0" />
    <path
       style="fill:none;fill-rule:evenodd;stroke:#3c3c3c;stroke-width:4.07532549px;stroke-linecap:butt;stroke-linejoin:miter;stroke-opacity:1"
       d="m 530.15328,338.62065 4.07533,0"
       id="path3386"
       inkscape:connector-curvature="0" />
    <path
       style="fill:none;fill-rule:evenodd;stroke:#3c3c3c;stroke-width:4.07532549px;stroke-linecap:butt;stroke-linejoin:miter;stroke-opacity:1"
       d="m 538.30393,338.62065 4.07533,0"
       id="path3388"
       inkscape:connector-curvature="0" />
    <path
       style="fill:none;fill-rule:evenodd;stroke:#3c3c3c;stroke-width:4.07532549px;stroke-linecap:butt;stroke-linejoin:miter;stroke-opacity:1"
       d="m 546.45459,338.62065 4.07532,0"
       id="path3390"
       inkscape:connector-curvature="0" />
    <path
       style="fill:none;fill-rule:evenodd;stroke:#ff3c3c;stroke-width:4.07532549px;stroke-linecap:butt;stroke-linejoin:miter;stroke-opacity:1"
       d="m 179.67528,306.01805 0,32.6026"
       id="path3392"
       inkscape:connector-curvature="0" />
    <path
       style="fill:none;fill-rule:evenodd;stroke:#3c3c3c;stroke-width:4.07532549px;stroke-linecap:butt;stroke-linejoin:miter;stroke-opacity:1"
       d="m 322.31168,306.01805 0,32.6026"
       id="path3394"
       inkscape:connector-curvature="0" />
    <path
       style="fill:none;fill-rule:evenodd;stroke:#3c3cff;stroke-width:4.07532549px;stroke-linecap:butt;stroke-linejoin:miter;stroke-opacity:1"
       d="m 464.94807,306.01805 0,32.6026"
       id="path3396"
       inkscape:connector-curvature="0" />
    <path
       inkscape:connector-curvature="0"
       id="path3-1"
       d="m 220.26811,127.85139 -9.55126,0 0,-4.77563 c 0,-2.63494 -2.13604,-4.77563 -4.77562,-4.77563 l -52.53189,0 c -2.63959,0 -4.77563,2.14069 -4.77563,4.77563 l 0,38.205 c 0,2.63975 2.13604,4.77563 4.77563,4.77563 l 21.49033,0 -4.77563,9.55126 19.10252,0 -4.77563,-9.55126 16.71475,0 0,9.55126 c 0,2.63975 2.13604,4.77563 4.77559,4.77563 l 14.32684,0 c 2.63976,0 4.77563,-2.13604 4.77563,-4.77563 l 0,-42.98063 c 0,-2.63498 -2.13587,-4.77563 -4.77563,-4.77563 z m -66.85877,28.65378 0,-33.42941 52.53189,0 0,4.77563 c -2.63972,0 -4.77559,2.14065 -4.77559,4.77563 l 0,23.87815 -47.7563,0 z m 59.69533,19.10248 c -1.31984,0 -2.38782,-1.06794 -2.38782,-2.38782 0,-1.31983 1.06798,-2.38781 2.38782,-2.38781 1.31988,0 2.38781,1.06798 2.38781,2.38781 0,1.31988 -1.06793,2.38782 -2.38781,2.38782 z m 0,-9.55126 c -1.31984,0 -2.38782,-1.06794 -2.38782,-2.38782 0,-1.31983 1.06798,-2.38781 2.38782,-2.38781 1.31988,0 2.38781,1.06798 2.38781,2.38781 0,1.31988 -1.06793,2.38782 -2.38781,2.38782 z m 7.16344,-19.10248 -9.55126,0 -4.77562,0 0,-4.77567 14.32688,0 0,4.77567 z m 0,-9.55126 -14.32688,0 0,-4.77563 14.32688,0 0,4.77563 z"
       style="fill:#3c3c3c;fill-opacity:1" />
    <path
       inkscape:connector-curvature="0"
       id="path3-7-9"
       d="m 362.90455,127.85139 -9.55126,0 0,-4.77563 c 0,-2.63494 -2.13604,-4.77563 -4.77563,-4.77563 l -52.53188,0 c -2.63959,0 -4.77563,2.14069 -4.77563,4.77563 l 0,38.205 c 0,2.63975 2.13604,4.77563 4.77563,4.77563 l 21.49033,0 -4.77567,9.55126 19.10252,0 -4.77563,-9.55126 16.71474,0 0,9.55126 c 0,2.63975 2.13604,4.77563 4.77559,4.77563 l 14.32689,0 c 2.63971,0 4.77563,-2.13604 4.77563,-4.77563 l 0,-42.98063 c 0,-2.63498 -2.13592,-4.77563 -4.77563,-4.77563 z m -66.85877,28.65378 0,-33.42941 52.53188,0 0,4.77563 c -2.63971,0 -4.77563,2.14065 -4.77563,4.77563 l 0,23.87815 -47.75625,0 z m 59.69533,19.10248 c -1.31988,0 -2.38782,-1.06794 -2.38782,-2.38782 0,-1.31983 1.06794,-2.38781 2.38782,-2.38781 1.31987,0 2.38781,1.06798 2.38781,2.38781 0,1.31988 -1.06794,2.38782 -2.38781,2.38782 z m 0,-9.55126 c -1.31988,0 -2.38782,-1.06794 -2.38782,-2.38782 0,-1.31983 1.06794,-2.38781 2.38782,-2.38781 1.31987,0 2.38781,1.06798 2.38781,2.38781 0,1.31988 -1.06794,2.38782 -2.38781,2.38782 z m 7.16344,-19.10248 -9.55126,0 -4.77563,0 0,-4.77567 14.32689,0 0,4.77567 z m 0,-9.55126 -14.32689,0 0,-4.77563 14.32689,0 0,4.77563 z"
       style="fill:#3c3c3c;fill-opacity:1" />
    <path
       inkscape:connector-curvature="0"
       id="path3-8-0"
       d="m 505.5409,127.85139 -9.55125,0 0,-4.77563 c 0,-2.63494 -2.13605,-4.77563 -4.77563,-4.77563 l -52.53189,0 c -2.63959,0 -4.77563,2.14069 -4.77563,4.77563 l 0,38.205 c 0,2.63975 2.13604,4.77563 4.77563,4.77563 l 21.49033,0 -4.77563,9.55126 19.10248,0 -4.77559,-9.55126 16.71467,0 0,9.55126 c 0,2.63975 2.13604,4.77563 4.77563,4.77563 l 14.32688,0 c 2.63976,0 4.77563,-2.13604 4.77563,-4.77563 l 0,-42.98063 c 0,-2.63498 -2.13587,-4.77563 -4.77563,-4.77563 z m -66.85877,28.65378 0,-33.42941 52.53189,0 0,4.77563 c -2.63971,0 -4.77563,2.14065 -4.77563,4.77563 l 0,23.87815 -47.75626,0 z m 59.69533,19.10248 c -1.31988,0 -2.38781,-1.06794 -2.38781,-2.38782 0,-1.31983 1.06793,-2.38781 2.38781,-2.38781 1.31988,0 2.38781,1.06798 2.38781,2.38781 0,1.31988 -1.06793,2.38782 -2.38781,2.38782 z m 0,-9.55126 c -1.31988,0 -2.38781,-1.06794 -2.38781,-2.38782 0,-1.31983 1.06793,-2.38781 2.38781,-2.38781 1.31988,0 2.38781,1.06798 2.38781,2.38781 0,1.31988 -1.06793,2.38782 -2.38781,2.38782 z m 7.16344,-19.10248 -9.55125,0 -4.77563,0 0,-4.77567 14.32688,0 0,4.77567 z m 0,-9.55126 -14.32688,0 0,-4.77563 14.32688,0 0,4.77563 z"
       style="fill:#3c3c3c;fill-opacity:1" />
    <path
       style="fill:none;fill-rule:evenodd;stroke:#3c3c3c;stroke-width:4.07532549px;stroke-linecap:butt;stroke-linejoin:miter;stroke-opacity:1"
       d="m 134.84672,216.3609 -4.07532,0"
       id="path3380-4"
       inkscape:connector-curvature="0" />
    <path
       style="fill:none;fill-rule:evenodd;stroke:#3c3c3c;stroke-width:4.07532549px;stroke-linecap:butt;stroke-linejoin:miter;stroke-opacity:1"
       d="m 126.69607,216.3609 -4.07532,0"
       id="path3382-2"
       inkscape:connector-curvature="0" />
    <path
       style="fill:none;fill-rule:evenodd;stroke:#3c3c3c;stroke-width:4.07532549px;stroke-linecap:butt;stroke-linejoin:miter;stroke-opacity:1"
       d="m 118.54542,216.3609 -4.07533,0"
       id="path3384-8"
       inkscape:connector-curvature="0" />
    <path
       style="fill:none;fill-rule:evenodd;stroke:#3c3c3c;stroke-width:4.07532549px;stroke-linecap:butt;stroke-linejoin:miter;stroke-opacity:1"
       d="m 530.1533,216.3609 4.07533,0"
       id="path3386-8"
       inkscape:connector-curvature="0" />
    <path
       style="fill:none;fill-rule:evenodd;stroke:#3c3c3c;stroke-width:4.07532549px;stroke-linecap:butt;stroke-linejoin:miter;stroke-opacity:1"
       d="m 538.30395,216.3609 4.07533,0"
       id="path3388-7"
       inkscape:connector-curvature="0" />
    <path
       style="fill:none;fill-rule:evenodd;stroke:#3c3c3c;stroke-width:4.07532549px;stroke-linecap:butt;stroke-linejoin:miter;stroke-opacity:1"
       d="m 546.45461,216.3609 4.07532,0"
       id="path3390-8"
       inkscape:connector-curvature="0" />
    <path
       style="fill:none;fill-rule:evenodd;stroke:#3c3c3c;stroke-width:4.07532549px;stroke-linecap:butt;stroke-linejoin:miter;stroke-opacity:1"
       d="m 179.6753,183.7583 0,32.6026"
       id="path3392-9"
       inkscape:connector-curvature="0" />
    <path
       style="fill:none;fill-rule:evenodd;stroke:#3c3c3c;stroke-width:4.07532549px;stroke-linecap:butt;stroke-linejoin:miter;stroke-opacity:1"
       d="m 322.3117,183.7583 0,32.6026"
       id="path3394-5"
       inkscape:connector-curvature="0" />
    <path
       style="fill:none;fill-rule:evenodd;stroke:#3c3c3c;stroke-width:4.07532549px;stroke-linecap:butt;stroke-linejoin:miter;stroke-opacity:1"
       d="m 464.94809,183.7583 0,32.6026"
       id="path3396-3"
       inkscape:connector-curvature="0" />
    <path
       style="fill:none;fill-rule:evenodd;stroke:#3c3c3c;stroke-width:4.07532549px;stroke-linecap:butt;stroke-linejoin:miter;stroke-opacity:1"
       d="m 138.92205,216.3609 387.15593,0"
       id="path3378-2"
       inkscape:connector-curvature="0"
       sodipodi:nodetypes="cc" />
    <path
       style="fill:none;fill-rule:evenodd;stroke:#ff3c3c;stroke-width:4.07532549px;stroke-linecap:butt;stroke-linejoin:miter;stroke-opacity:1;marker-start:url(#TriangleInS);marker-end:url(#TriangleOutS)"
       d="m 142.99735,338.62065 248.59486,0"
       id="path3378"
       inkscape:connector-curvature="0"
       sodipodi:nodetypes="cc" />
    <path
       style="fill:none;fill-rule:evenodd;stroke:#3c3cff;stroke-width:4.07532549px;stroke-linecap:butt;stroke-linejoin:miter;stroke-opacity:1;marker-start:url(#marker4841);marker-end:url(#marker4783)"
       d="m 522.00263,338.62065 -118.18444,0"
       id="path4198"
       inkscape:connector-curvature="0"
       sodipodi:nodetypes="cc" />
    <text
       xml:space="preserve"
       style="font-style:normal;font-variant:normal;font-weight:normal;font-stretch:normal;font-size:18.97590828px;line-height:125%;font-family:Calibri;-inkscape-font-specification:Calibri;letter-spacing:0px;word-spacing:0px;fill:#3c3c3c;fill-opacity:1;stroke:none;stroke-width:1px;stroke-linecap:butt;stroke-linejoin:miter;stroke-opacity:1"
       x="367.21289"
       y="330.10129"
       id="text5235"
       sodipodi:linespacing="125%"><tspan
         sodipodi:role="line"
         id="tspan5237"
         x="367.21289"
         y="330.10129">collision</tspan></text>
  </g>
</svg>
