<?xml version="1.0" encoding="UTF-8" standalone="no"?>
<!-- Created with Inkscape (http://www.inkscape.org/) -->

<svg
   xmlns:dc="http://purl.org/dc/elements/1.1/"
   xmlns:cc="http://creativecommons.org/ns#"
   xmlns:rdf="http://www.w3.org/1999/02/22-rdf-syntax-ns#"
   xmlns:svg="http://www.w3.org/2000/svg"
   xmlns="http://www.w3.org/2000/svg"
   xmlns:sodipodi="http://sodipodi.sourceforge.net/DTD/sodipodi-0.dtd"
   xmlns:inkscape="http://www.inkscape.org/namespaces/inkscape"
   width="75.915016mm"
   height="43.753975mm"
   viewBox="0 0 268.99021 155.03377"
   id="svg2"
   version="1.1"
   inkscape:version="0.91 r13725"
   sodipodi:docname="lacarte_1.svg">
  <defs
     id="defs4">
    <clipPath
       id="clipPath4210"
       clipPathUnits="userSpaceOnUse">
      <path
         inkscape:connector-curvature="0"
         id="path4212"
         d="M 0,0 596,0 596,842 0,842 0,0 Z" />
    </clipPath>
    <clipPath
       id="clipPath4220"
       clipPathUnits="userSpaceOnUse">
      <path
         inkscape:connector-curvature="0"
         id="path4222"
         d="M 0,0 406,0 406,234 0,234 0,0 Z" />
    </clipPath>
    <clipPath
       id="clipPath4234"
       clipPathUnits="userSpaceOnUse">
      <path
         inkscape:connector-curvature="0"
         id="path4236"
         d="M 0,0 0,234 406,234 406,0 0,0 Z" />
    </clipPath>
    <clipPath
       id="clipPath4240"
       clipPathUnits="userSpaceOnUse">
      <path
         inkscape:connector-curvature="0"
         id="path4242"
         d="M 0,0 406,0 406,234 0,234 0,0 Z" />
    </clipPath>
    <clipPath
       id="clipPath4378"
       clipPathUnits="userSpaceOnUse">
      <path
         inkscape:connector-curvature="0"
         id="path4380"
         d="M 0,0 0,234 406,234 406,0 0,0 Z" />
    </clipPath>
  </defs>
  <sodipodi:namedview
     id="base"
     pagecolor="#ffffff"
     bordercolor="#666666"
     borderopacity="1.0"
     inkscape:pageopacity="0.0"
     inkscape:pageshadow="2"
     inkscape:zoom="2"
     inkscape:cx="79.827962"
     inkscape:cy="24.734802"
     inkscape:document-units="px"
     inkscape:current-layer="g4200"
     showgrid="false"
     fit-margin-top="0"
     fit-margin-left="0"
     fit-margin-right="0"
     fit-margin-bottom="0"
     inkscape:window-width="1920"
     inkscape:window-height="1017"
     inkscape:window-x="1912"
     inkscape:window-y="-8"
     inkscape:window-maximized="1" />
  <metadata
     id="metadata7">
    <rdf:RDF>
      <cc:Work
         rdf:about="">
        <dc:format>image/svg+xml</dc:format>
        <dc:type
           rdf:resource="http://purl.org/dc/dcmitype/StillImage" />
        <dc:title></dc:title>
      </cc:Work>
    </rdf:RDF>
  </metadata>
  <g
     inkscape:label="Calque 1"
     inkscape:groupmode="layer"
     id="layer1"
     transform="translate(-124.36053,-734.50889)">
    <g
       transform="matrix(1.25,0,0,-1.25,-358.66259,1319.3438)"
       inkscape:label="Examen Aout 2012"
       id="g4144">
      <g
         transform="translate(139.692,177.577)"
         id="g4200">
        <g
           transform="matrix(0.68045735,0,0,0.68045735,121.00955,114.73293)"
           id="g4202">
          <g
             transform="translate(0,-280)"
             id="g4204">
            <g
               id="g4206">
              <g
                 clip-path="url(#clipPath4210)"
                 id="g4208">
                <g
                   transform="matrix(1,0,0,-1,95,538)"
                   id="g4214">
                  <g
                     id="g4216">
                    <g
                       clip-path="url(#clipPath4220)"
                       id="g4218">
                      <g
                         id="g4224">
                        <g
                           id="g4226" />
                      </g>
                      <g
                         id="g4228">
                        <g
                           id="g4230">
                          <g
                             clip-path="url(#clipPath4234)"
                             id="g4232">
                            <g
                               clip-path="url(#clipPath4240)"
                               id="g4238">
                              <g
                                 transform="translate(-106,-131)"
                                 id="g4244">
                                <path
                                   inkscape:connector-curvature="0"
                                   id="path4246"
                                   style="fill:#ffffff;fill-opacity:1;fill-rule:nonzero;stroke:none"
                                   d="m 106,131 406,0 0,234 -406,0 0,-234 z" />
                                <g
                                   id="g4248">
                                <path
                                   inkscape:connector-curvature="0"
                                   id="path4250"
                                   style="fill:#ffcc00;fill-opacity:1;fill-rule:nonzero;stroke:none"
                                   d="m 167,151 c 0,8.28 -12.09,15 -27,15 -14.91,0 -27,-6.72 -27,-15 0,-8.28 12.09,-15 27,-15 14.91,0 27,6.72 27,15 z" />
                                <path
                                   inkscape:connector-curvature="0"
                                   id="path4252"
                                   style="fill:#000000;fill-opacity:1;fill-rule:nonzero;stroke:none"
                                   d="m 132.84,146.4 1.19,0 0,5.32 c 0,0.93 0.16,1.61 0.5,2.02 0.34,0.41 0.89,0.62 1.65,0.62 0.76,0 1.31,-0.21 1.65,-0.62 0.34,-0.41 0.51,-1.09 0.51,-2.02 l 0,-5.32 1.19,0 0,5.47 c 0,1.14 -0.29,2 -0.85,2.58 -0.56,0.58 -1.39,0.88 -2.5,0.88 -1.1,0 -1.94,-0.3 -2.5,-0.88 -0.56,-0.58 -0.84,-1.44 -0.84,-2.58 l 0,-5.47 z m 9.22,7.75 1.94,0 0,-6.67 -2.11,0.42 0,-1.07 2.09,-0.43 1.19,0 0,7.75 1.94,0 0,1 -5.05,0 0,-1 z" />
                                <path
                                   inkscape:connector-curvature="0"
                                   id="path4254"
                                   style="fill:none;stroke:#000000;stroke-width:1;stroke-linecap:butt;stroke-linejoin:miter;stroke-miterlimit:1.45000005;stroke-dasharray:none;stroke-opacity:1"
                                   d="m 167,151 c 0,8.28 -12.09,15 -27,15 -14.91,0 -27,-6.72 -27,-15 0,-8.28 12.09,-15 27,-15 14.91,0 27,6.72 27,15 z" />
                                <path
                                   inkscape:connector-curvature="0"
                                   id="path4256"
                                   style="fill:#ffcc00;fill-opacity:1;fill-rule:nonzero;stroke:none"
                                   d="m 155,242.12 c 0,9.46 -9.4,17.13 -21,17.13 -11.6,0 -21,-7.67 -21,-17.13 0,-9.45 9.4,-17.12 21,-17.12 11.6,0 21,7.67 21,17.12 z" />
                                <path
                                   inkscape:connector-curvature="0"
                                   id="path4258"
                                   style="fill:#000000;fill-opacity:1;fill-rule:nonzero;stroke:none"
                                   d="m 126.84,237.53 1.19,0 0,5.31 c 0,0.94 0.16,1.61 0.5,2.03 0.34,0.41 0.89,0.61 1.65,0.61 0.76,0 1.31,-0.2 1.65,-0.61 0.34,-0.42 0.51,-1.09 0.51,-2.03 l 0,-5.31 1.19,0 0,5.47 c 0,1.13 -0.29,1.99 -0.85,2.58 -0.56,0.58 -1.39,0.87 -2.5,0.87 -1.1,0 -1.94,-0.29 -2.5,-0.87 -0.56,-0.59 -0.84,-1.45 -0.84,-2.58 l 0,-5.47 z m 10.03,7.75 4.14,0 0,1 -5.56,0 0,-1 c 0.45,-0.46 1.06,-1.08 1.84,-1.87 0.77,-0.78 1.26,-1.29 1.46,-1.52 0.38,-0.42 0.65,-0.77 0.8,-1.07 0.15,-0.3 0.23,-0.59 0.23,-0.87 0,-0.47 -0.17,-0.85 -0.49,-1.14 -0.33,-0.29 -0.76,-0.44 -1.28,-0.44 -0.37,0 -0.77,0.07 -1.18,0.19 -0.41,0.13 -0.85,0.32 -1.32,0.59 l 0,-1.2 c 0.48,-0.19 0.93,-0.33 1.34,-0.43 0.41,-0.1 0.79,-0.15 1.13,-0.15 0.91,0 1.63,0.23 2.17,0.68 0.54,0.46 0.81,1.06 0.81,1.82 0,0.36 -0.06,0.7 -0.2,1.02 -0.13,0.32 -0.38,0.7 -0.73,1.14 -0.11,0.11 -0.42,0.44 -0.94,0.98 -0.52,0.55 -1.26,1.3 -2.22,2.27 z" />
                                <path
                                   inkscape:connector-curvature="0"
                                   id="path4260"
                                   style="fill:none;stroke:#000000;stroke-width:1;stroke-linecap:butt;stroke-linejoin:miter;stroke-miterlimit:1.45000005;stroke-dasharray:none;stroke-opacity:1"
                                   d="m 155,242.12 c 0,9.46 -9.4,17.13 -21,17.13 -11.6,0 -21,-7.67 -21,-17.13 0,-9.45 9.4,-17.12 21,-17.12 11.6,0 21,7.67 21,17.12 z" />
                                <path
                                   inkscape:connector-curvature="0"
                                   id="path4262"
                                   style="fill:#ffcc00;fill-opacity:1;fill-rule:nonzero;stroke:none"
                                   d="m 155,336 c 0,12.15 -9.85,22 -22,22 -12.15,0 -22,-9.85 -22,-22 0,-12.15 9.85,-22 22,-22 12.15,0 22,9.85 22,22 z" />
                                <path
                                   inkscape:connector-curvature="0"
                                   id="path4264"
                                   style="fill:#000000;fill-opacity:1;fill-rule:nonzero;stroke:none"
                                   d="m 125.84,331.4 1.19,0 0,5.32 c 0,0.93 0.16,1.61 0.5,2.02 0.34,0.41 0.89,0.62 1.65,0.62 0.76,0 1.31,-0.21 1.65,-0.62 0.34,-0.41 0.51,-1.09 0.51,-2.02 l 0,-5.32 1.19,0 0,5.47 c 0,1.14 -0.29,2 -0.85,2.58 -0.56,0.58 -1.39,0.88 -2.5,0.88 -1.1,0 -1.94,-0.3 -2.5,-0.88 -0.56,-0.58 -0.84,-1.44 -0.84,-2.58 l 0,-5.47 z m 12.61,4.04 c 0.56,0.12 1,0.37 1.32,0.75 0.32,0.38 0.48,0.85 0.48,1.42 0,0.86 -0.3,1.53 -0.89,2.01 -0.6,0.47 -1.44,0.71 -2.54,0.71 -0.36,0 -0.74,-0.04 -1.13,-0.11 -0.39,-0.08 -0.79,-0.19 -1.19,-0.33 l 0,-1.14 c 0.32,0.19 0.68,0.33 1.07,0.43 0.39,0.1 0.8,0.15 1.22,0.15 0.74,0 1.31,-0.15 1.7,-0.44 0.39,-0.29 0.58,-0.72 0.58,-1.28 0,-0.51 -0.18,-0.91 -0.54,-1.21 -0.37,-0.29 -0.87,-0.43 -1.5,-0.43 l -1.03,0 0,-0.97 1.07,0 c 0.58,0 1.02,-0.12 1.33,-0.35 0.31,-0.24 0.47,-0.57 0.47,-1.01 0,-0.45 -0.16,-0.79 -0.48,-1.03 -0.31,-0.24 -0.77,-0.36 -1.36,-0.36 -0.34,0 -0.69,0.03 -1.06,0.1 -0.37,0.07 -0.78,0.17 -1.22,0.32 l 0,-1.05 c 0.45,-0.12 0.88,-0.22 1.27,-0.28 0.39,-0.06 0.76,-0.09 1.1,-0.09 0.91,0 1.62,0.2 2.14,0.61 0.52,0.4 0.78,0.96 0.78,1.65 0,0.49 -0.14,0.9 -0.41,1.24 -0.28,0.33 -0.67,0.56 -1.18,0.69 z" />
                                <path
                                   inkscape:connector-curvature="0"
                                   id="path4266"
                                   style="fill:none;stroke:#000000;stroke-width:1;stroke-linecap:butt;stroke-linejoin:miter;stroke-miterlimit:1.45000005;stroke-dasharray:none;stroke-opacity:1"
                                   d="m 155,336 c 0,12.15 -9.85,22 -22,22 -12.15,0 -22,-9.85 -22,-22 0,-12.15 9.85,-22 22,-22 12.15,0 22,9.85 22,22 z" />
                                <path
                                   inkscape:connector-curvature="0"
                                   id="path4268"
                                   style="fill:#ffcc00;fill-opacity:1;fill-rule:nonzero;stroke:none"
                                   d="m 267.5,191 c 0,14.91 -12.09,27 -27,27 -14.91,0 -27,-12.09 -27,-27 0,-14.91 12.09,-27 27,-27 14.91,0 27,12.09 27,27 z" />
                                <path
                                   inkscape:connector-curvature="0"
                                   id="path4270"
                                   style="fill:#000000;fill-opacity:1;fill-rule:nonzero;stroke:none"
                                   d="m 240.5,187.58 -1.6,4.34 3.21,0 -1.61,-4.34 z m -0.67,-1.18 1.35,0 3.32,8.75 -1.23,0 -0.8,-2.25 -3.93,0 -0.8,2.25 -1.25,0 3.34,-8.75 z" />
                                <path
                                   inkscape:connector-curvature="0"
                                   id="path4272"
                                   style="fill:none;stroke:#000000;stroke-width:1;stroke-linecap:butt;stroke-linejoin:miter;stroke-miterlimit:1.45000005;stroke-dasharray:none;stroke-opacity:1"
                                   d="m 267.5,191 c 0,14.91 -12.09,27 -27,27 -14.91,0 -27,-12.09 -27,-27 0,-14.91 12.09,-27 27,-27 14.91,0 27,12.09 27,27 z" />
                                <path
                                   inkscape:connector-curvature="0"
                                   id="path4274"
                                   style="fill:#ffcc00;fill-opacity:1;fill-rule:nonzero;stroke:none"
                                   d="m 308,330 c 0,16.29 -13.21,29.5 -29.5,29.5 -16.29,0 -29.5,-13.21 -29.5,-29.5 0,-16.29 13.21,-29.5 29.5,-29.5 16.29,0 29.5,13.21 29.5,29.5 z" />
                                <path
                                   inkscape:connector-curvature="0"
                                   id="path4276"
                                   style="fill:#000000;fill-opacity:1;fill-rule:nonzero;stroke:none"
                                   d="m 276.74,329.98 0,3.21 1.91,0 c 0.63,0 1.11,-0.14 1.41,-0.4 0.31,-0.27 0.46,-0.67 0.46,-1.21 0,-0.56 -0.15,-0.96 -0.46,-1.21 -0.3,-0.26 -0.78,-0.39 -1.41,-0.39 l -1.91,0 z m 0,-3.61 0,2.64 1.75,0 c 0.59,0 1.02,-0.11 1.3,-0.32 0.28,-0.22 0.42,-0.55 0.42,-0.99 0,-0.45 -0.14,-0.78 -0.42,-1 -0.28,-0.22 -0.71,-0.33 -1.3,-0.33 l -1.75,0 z m -1.18,-0.97 3.03,0 c 0.9,0 1.6,0.19 2.08,0.57 0.49,0.37 0.73,0.9 0.73,1.59 0,0.54 -0.13,0.97 -0.38,1.29 -0.25,0.32 -0.61,0.51 -1.09,0.59 0.58,0.12 1.04,0.38 1.36,0.78 0.32,0.39 0.48,0.89 0.48,1.48 0,0.78 -0.26,1.39 -0.79,1.81 -0.53,0.43 -1.29,0.64 -2.28,0.64 l -3.14,0 0,-8.75 z" />
                                <path
                                   inkscape:connector-curvature="0"
                                   id="path4278"
                                   style="fill:none;stroke:#000000;stroke-width:1;stroke-linecap:butt;stroke-linejoin:miter;stroke-miterlimit:1.45000005;stroke-dasharray:none;stroke-opacity:1"
                                   d="m 308,330 c 0,16.29 -13.21,29.5 -29.5,29.5 -16.29,0 -29.5,-13.21 -29.5,-29.5 0,-16.29 13.21,-29.5 29.5,-29.5 16.29,0 29.5,13.21 29.5,29.5 z" />
                                <path
                                   inkscape:connector-curvature="0"
                                   id="path4280"
                                   style="fill:#ffcc00;fill-opacity:1;fill-rule:nonzero;stroke:none"
                                   d="m 369.75,151 c 0,8.28 -6.72,15 -15,15 -8.28,0 -15,-6.72 -15,-15 0,-8.28 6.72,-15 15,-15 8.28,0 15,6.72 15,15 z" />
                                <path
                                   inkscape:connector-curvature="0"
                                   id="path4282"
                                   style="fill:#000000;fill-opacity:1;fill-rule:nonzero;stroke:none"
                                   d="m 358.29,147.08 0,1.25 c -0.4,-0.38 -0.83,-0.66 -1.28,-0.84 -0.44,-0.18 -0.92,-0.27 -1.43,-0.27 -1,0 -1.77,0.3 -2.3,0.92 -0.53,0.61 -0.8,1.5 -0.8,2.65 0,1.15 0.27,2.03 0.8,2.65 0.53,0.61 1.3,0.92 2.3,0.92 0.51,0 0.99,-0.1 1.43,-0.28 0.45,-0.19 0.88,-0.47 1.28,-0.83 l 0,1.23 c -0.41,0.28 -0.85,0.49 -1.32,0.64 -0.46,0.14 -0.95,0.21 -1.46,0.21 -1.33,0 -2.38,-0.41 -3.14,-1.22 -0.76,-0.82 -1.14,-1.92 -1.14,-3.32 0,-1.4 0.38,-2.51 1.14,-3.32 0.76,-0.82 1.81,-1.22 3.14,-1.22 0.52,0 1.02,0.07 1.48,0.21 0.46,0.14 0.9,0.35 1.3,0.62 z" />
                                <path
                                   inkscape:connector-curvature="0"
                                   id="path4284"
                                   style="fill:none;stroke:#000000;stroke-width:1;stroke-linecap:butt;stroke-linejoin:miter;stroke-miterlimit:1.45000005;stroke-dasharray:none;stroke-opacity:1"
                                   d="m 369.75,151 c 0,8.28 -6.72,15 -15,15 -8.28,0 -15,-6.72 -15,-15 0,-8.28 6.72,-15 15,-15 8.28,0 15,6.72 15,15 z" />
                                <path
                                   inkscape:connector-curvature="0"
                                   id="path4286"
                                   style="fill:#ffcc00;fill-opacity:1;fill-rule:nonzero;stroke:none"
                                   d="m 507,240 c 0,49.98 -14.55,90.5 -32.5,90.5 -17.95,0 -32.5,-40.52 -32.5,-90.5 0,-49.98 14.55,-90.5 32.5,-90.5 17.95,0 32.5,40.52 32.5,90.5 z" />
                                <path
                                   inkscape:connector-curvature="0"
                                   id="path4288"
                                   style="fill:#000000;fill-opacity:1;fill-rule:nonzero;stroke:none"
                                   d="m 472.22,235.4 5.03,0 0,1 -3.84,0 0,2.58 3.47,0 0,1 -3.47,0 0,4.17 -1.19,0 0,-8.75 z" />
                                <path
                                   inkscape:connector-curvature="0"
                                   id="path4290"
                                   style="fill:none;stroke:#000000;stroke-width:1;stroke-linecap:butt;stroke-linejoin:miter;stroke-miterlimit:1.45000005;stroke-dasharray:none;stroke-opacity:1"
                                   d="m 507,240 c 0,49.98 -14.55,90.5 -32.5,90.5 -17.95,0 -32.5,-40.52 -32.5,-90.5 0,-49.98 14.55,-90.5 32.5,-90.5 17.95,0 32.5,40.52 32.5,90.5 z" />
                                <path
                                   inkscape:connector-curvature="0"
                                   id="path4292"
                                   style="fill:#ffcc00;fill-opacity:1;fill-rule:nonzero;stroke:none"
                                   d="m 366,244.25 c 0,8.28 -12.09,15 -27,15 -14.91,0 -27,-6.72 -27,-15 0,-8.28 12.09,-15 27,-15 14.91,0 27,6.72 27,15 z" />
                                <path
                                   inkscape:connector-curvature="0"
                                   id="path4294"
                                   style="fill:#000000;fill-opacity:1;fill-rule:nonzero;stroke:none"
                                   d="m 336.74,240.62 0,6.82 1.44,0 c 1.21,0 2.09,-0.28 2.65,-0.82 0.55,-0.55 0.83,-1.42 0.83,-2.61 0,-1.16 -0.28,-2.02 -0.83,-2.57 -0.56,-0.54 -1.44,-0.82 -2.65,-0.82 l -1.44,0 z m -1.19,-0.97 2.44,0 c 1.7,0 2.94,0.36 3.73,1.06 0.8,0.7 1.19,1.8 1.19,3.3 0,1.51 -0.4,2.62 -1.19,3.33 -0.8,0.71 -2.04,1.06 -3.73,1.06 l -2.44,0 0,-8.75 z" />
                                <path
                                   inkscape:connector-curvature="0"
                                   id="path4296"
                                   style="fill:none;stroke:#000000;stroke-width:1;stroke-linecap:butt;stroke-linejoin:miter;stroke-miterlimit:1.45000005;stroke-dasharray:none;stroke-opacity:1"
                                   d="m 366,244.25 c 0,8.28 -12.09,15 -27,15 -14.91,0 -27,-6.72 -27,-15 0,-8.28 12.09,-15 27,-15 14.91,0 27,6.72 27,15 z" />
                                <path
                                   inkscape:connector-curvature="0"
                                   id="path4298"
                                   style="fill:#ffcc00;fill-opacity:1;fill-rule:nonzero;stroke:none"
                                   d="m 390,315.5 c 0,8.28 -6.72,15 -15,15 -8.28,0 -15,-6.72 -15,-15 0,-8.28 6.72,-15 15,-15 8.28,0 15,6.72 15,15 z" />
                                <path
                                   inkscape:connector-curvature="0"
                                   id="path4300"
                                   style="fill:#000000;fill-opacity:1;fill-rule:nonzero;stroke:none"
                                   d="m 372.38,310.9 5.53,0 0,1 -4.34,0 0,2.6 4.17,0 0,0.98 -4.17,0 0,3.17 4.45,0 0,1 -5.64,0 0,-8.75 z" />
                                <path
                                   inkscape:connector-curvature="0"
                                   id="path4302"
                                   style="fill:none;stroke:#000000;stroke-width:1;stroke-linecap:butt;stroke-linejoin:miter;stroke-miterlimit:1.45000005;stroke-dasharray:none;stroke-opacity:1"
                                   d="m 390,315.5 c 0,8.28 -6.72,15 -15,15 -8.28,0 -15,-6.72 -15,-15 0,-8.28 6.72,-15 15,-15 8.28,0 15,6.72 15,15 z" />
                                <path
                                   inkscape:connector-curvature="0"
                                   id="path4304"
                                   style="fill:none;stroke:#000000;stroke-width:1;stroke-linecap:butt;stroke-linejoin:miter;stroke-miterlimit:1.45000005;stroke-dasharray:none;stroke-opacity:1"
                                   d="m 161.95,159.74 46.03,18.32" />
                                <path
                                   inkscape:connector-curvature="0"
                                   id="path4306"
                                   style="fill:#000000;fill-opacity:1;fill-rule:nonzero;stroke:none"
                                   d="m 215.41,181.02 -9.3,-9.09 0.94,5.76 -4.63,3.53 12.99,-0.2 z" />
                                <path
                                   inkscape:connector-curvature="0"
                                   id="path4308"
                                   style="fill:#000000;fill-opacity:1;fill-rule:nonzero;stroke:none"
                                   d="m 187.42,179.7 5.62,0 0,0.5 -3.17,8.25 -1.23,0 2.98,-7.75 -4.2,0 0,-1 z" />
                                <path
                                   inkscape:connector-curvature="0"
                                   id="path4310"
                                   style="fill:none;stroke:#000000;stroke-width:1;stroke-linecap:butt;stroke-linejoin:miter;stroke-miterlimit:1.45000005;stroke-dasharray:none;stroke-opacity:1"
                                   d="m 152.1,233.44 56.85,-27.29" />
                                <path
                                   inkscape:connector-curvature="0"
                                   id="path4312"
                                   style="fill:#000000;fill-opacity:1;fill-rule:nonzero;stroke:none"
                                   d="m 216.16,202.68 -12.98,0.69 4.87,3.21 -0.54,5.81 8.65,-9.71 z" />
                                <path
                                   inkscape:connector-curvature="0"
                                   id="path4314"
                                   style="fill:#000000;fill-opacity:1;fill-rule:nonzero;stroke:none"
                                   d="m 184.25,231.78 c -0.57,0 -1.01,0.15 -1.33,0.45 -0.33,0.3 -0.49,0.71 -0.49,1.24 0,0.53 0.16,0.94 0.49,1.25 0.32,0.3 0.76,0.45 1.33,0.45 0.56,0 1,-0.15 1.32,-0.45 0.33,-0.31 0.49,-0.72 0.49,-1.25 0,-0.53 -0.16,-0.94 -0.48,-1.24 -0.32,-0.3 -0.76,-0.45 -1.33,-0.45 z m -1.19,-0.5 c -0.5,-0.13 -0.9,-0.36 -1.18,-0.71 -0.29,-0.35 -0.43,-0.78 -0.43,-1.28 0,-0.69 0.25,-1.25 0.75,-1.65 0.5,-0.41 1.18,-0.61 2.05,-0.61 0.87,0 1.56,0.2 2.05,0.61 0.49,0.4 0.74,0.96 0.74,1.65 0,0.5 -0.14,0.93 -0.42,1.28 -0.28,0.35 -0.68,0.58 -1.19,0.71 0.58,0.13 1.02,0.39 1.34,0.78 0.32,0.38 0.48,0.85 0.48,1.41 0,0.85 -0.26,1.5 -0.78,1.96 -0.51,0.45 -1.26,0.68 -2.22,0.68 -0.96,0 -1.7,-0.23 -2.22,-0.68 -0.52,-0.46 -0.78,-1.11 -0.78,-1.96 0,-0.56 0.16,-1.03 0.48,-1.41 0.32,-0.39 0.77,-0.65 1.33,-0.78 z m -0.42,-1.88 c 0,0.46 0.14,0.82 0.42,1.07 0.28,0.25 0.67,0.37 1.19,0.37 0.51,0 0.9,-0.12 1.19,-0.37 0.29,-0.25 0.43,-0.61 0.43,-1.07 0,-0.45 -0.14,-0.8 -0.43,-1.05 -0.29,-0.26 -0.68,-0.38 -1.19,-0.38 -0.52,0 -0.91,0.12 -1.19,0.38 -0.28,0.25 -0.42,0.6 -0.42,1.05 z" />
                                <path
                                   inkscape:connector-curvature="0"
                                   id="path4316"
                                   style="fill:none;stroke:#000000;stroke-width:1;stroke-linecap:butt;stroke-linejoin:miter;stroke-miterlimit:1.45000005;stroke-dasharray:none;stroke-opacity:1"
                                   d="m 154.98,335.09 86.05,-3.54" />
                                <path
                                   inkscape:connector-curvature="0"
                                   id="path4318"
                                   style="fill:#000000;fill-opacity:1;fill-rule:nonzero;stroke:none"
                                   d="m 249.03,331.22 -12.2,-4.51 3.2,4.88 -2.79,5.12 11.79,-5.49 z" />
                                <path
                                   inkscape:connector-curvature="0"
                                   id="path4320"
                                   style="fill:#000000;fill-opacity:1;fill-rule:nonzero;stroke:none"
                                   d="m 202.15,343.69 c -0.53,0 -0.95,0.18 -1.26,0.55 -0.32,0.36 -0.47,0.86 -0.47,1.48 0,0.64 0.15,1.14 0.47,1.5 0.31,0.37 0.73,0.55 1.26,0.55 0.53,0 0.95,-0.18 1.26,-0.55 0.31,-0.36 0.46,-0.86 0.46,-1.5 0,-0.62 -0.15,-1.12 -0.46,-1.48 -0.31,-0.37 -0.73,-0.55 -1.26,-0.55 z m 2.35,-3.72 0,1.08 c -0.31,-0.14 -0.61,-0.24 -0.91,-0.31 -0.3,-0.08 -0.6,-0.11 -0.89,-0.11 -0.78,0 -1.38,0.26 -1.79,0.79 -0.41,0.52 -0.65,1.32 -0.71,2.38 0.23,-0.33 0.52,-0.59 0.87,-0.77 0.34,-0.19 0.73,-0.28 1.14,-0.28 0.88,0 1.57,0.27 2.08,0.8 0.51,0.53 0.77,1.25 0.77,2.17 0,0.91 -0.27,1.63 -0.8,2.17 -0.53,0.54 -1.23,0.82 -2.11,0.82 -1.02,0 -1.8,-0.39 -2.33,-1.17 -0.53,-0.78 -0.79,-1.9 -0.79,-3.37 0,-1.38 0.32,-2.49 0.98,-3.31 0.66,-0.82 1.54,-1.23 2.64,-1.23 0.29,0 0.59,0.03 0.89,0.08 0.3,0.06 0.62,0.15 0.96,0.26 z" />
                                <path
                                   inkscape:connector-curvature="0"
                                   id="path4322"
                                   style="fill:none;stroke:#000000;stroke-width:1;stroke-linecap:butt;stroke-linejoin:miter;stroke-miterlimit:1.45000005;stroke-dasharray:none;stroke-opacity:1"
                                   d="m 247.62,217.04 20.99,76.79" />
                                <path
                                   inkscape:connector-curvature="0"
                                   id="path4324"
                                   style="fill:#000000;fill-opacity:1;fill-rule:nonzero;stroke:none"
                                   d="m 270.72,301.54 1.66,-12.89 -4.03,4.21 -5.62,-1.57 7.99,10.25 z" />
                                <path
                                   inkscape:connector-curvature="0"
                                   id="path4326"
                                   style="fill:#000000;fill-opacity:1;fill-rule:nonzero;stroke:none"
                                   d="m 238.92,262.4 1.93,0 0,-6.67 -2.1,0.42 0,-1.07 2.09,-0.43 1.19,0 0,7.75 1.93,0 0,1 -5.04,0 0,-1 z m 9.96,-6.96 c -0.6,0 -1.06,0.3 -1.37,0.89 -0.3,0.6 -0.46,1.51 -0.46,2.71 0,1.2 0.16,2.1 0.46,2.7 0.31,0.6 0.77,0.9 1.37,0.9 0.61,0 1.08,-0.3 1.38,-0.9 0.31,-0.6 0.46,-1.5 0.46,-2.7 0,-1.2 -0.15,-2.11 -0.46,-2.71 -0.3,-0.59 -0.77,-0.89 -1.38,-0.89 z m 0,-0.94 c 0.98,0 1.73,0.39 2.25,1.16 0.52,0.78 0.78,1.91 0.78,3.38 0,1.47 -0.26,2.6 -0.78,3.37 -0.52,0.78 -1.27,1.17 -2.25,1.17 -0.98,0 -1.73,-0.39 -2.24,-1.17 -0.52,-0.77 -0.78,-1.9 -0.78,-3.37 0,-1.47 0.26,-2.6 0.78,-3.38 0.51,-0.77 1.26,-1.16 2.24,-1.16 z" />
                                <path
                                   inkscape:connector-curvature="0"
                                   id="path4328"
                                   style="fill:none;stroke:#000000;stroke-width:1;stroke-linecap:butt;stroke-linejoin:miter;stroke-miterlimit:1.45000005;stroke-dasharray:none;stroke-opacity:1"
                                   d="M 265.98,182.08 333.04,158.6" />
                                <path
                                   inkscape:connector-curvature="0"
                                   id="path4330"
                                   style="fill:#000000;fill-opacity:1;fill-rule:nonzero;stroke:none"
                                   d="m 340.59,155.96 -12.98,-0.76 4.49,3.73 -1.18,5.71 9.67,-8.68 z" />
                                <path
                                   inkscape:connector-curvature="0"
                                   id="path4332"
                                   style="fill:#000000;fill-opacity:1;fill-rule:nonzero;stroke:none"
                                   d="m 303.78,181.23 c -0.53,0 -0.96,0.18 -1.27,0.55 -0.31,0.36 -0.47,0.86 -0.47,1.48 0,0.64 0.16,1.14 0.47,1.5 0.31,0.37 0.74,0.55 1.27,0.55 0.53,0 0.95,-0.18 1.25,-0.55 0.31,-0.36 0.47,-0.86 0.47,-1.5 0,-0.62 -0.16,-1.12 -0.47,-1.48 -0.3,-0.37 -0.72,-0.55 -1.25,-0.55 z m 2.34,-3.72 0,1.08 c -0.3,-0.14 -0.6,-0.24 -0.91,-0.31 -0.3,-0.08 -0.6,-0.11 -0.89,-0.11 -0.78,0 -1.37,0.26 -1.79,0.79 -0.41,0.52 -0.64,1.32 -0.71,2.38 0.23,-0.33 0.52,-0.59 0.87,-0.77 0.35,-0.19 0.73,-0.28 1.15,-0.28 0.87,0 1.57,0.27 2.08,0.8 0.51,0.53 0.76,1.26 0.76,2.17 0,0.91 -0.26,1.63 -0.79,2.17 -0.54,0.55 -1.24,0.82 -2.11,0.82 -1.02,0 -1.8,-0.39 -2.33,-1.17 -0.53,-0.77 -0.8,-1.9 -0.8,-3.36 0,-1.39 0.33,-2.49 0.99,-3.32 0.65,-0.82 1.53,-1.23 2.64,-1.23 0.29,0 0.58,0.03 0.89,0.08 0.3,0.06 0.62,0.15 0.95,0.26 z" />
                                <path
                                   inkscape:connector-curvature="0"
                                   id="path4334"
                                   style="fill:none;stroke:#000000;stroke-width:1;stroke-linecap:butt;stroke-linejoin:miter;stroke-miterlimit:1.45000005;stroke-dasharray:none;stroke-opacity:1"
                                   d="m 366.79,159.95 69.89,51.94" />
                                <path
                                   inkscape:connector-curvature="0"
                                   id="path4336"
                                   style="fill:#000000;fill-opacity:1;fill-rule:nonzero;stroke:none"
                                   d="m 443.1,216.66 -6.65,-11.17 -0.57,5.8 -5.39,2.23 12.61,3.14 z" />
                                <path
                                   inkscape:connector-curvature="0"
                                   id="path4338"
                                   style="fill:#000000;fill-opacity:1;fill-rule:nonzero;stroke:none"
                                   d="m 406.93,173.12 c 0.57,0.13 1.01,0.38 1.32,0.76 0.32,0.38 0.48,0.85 0.48,1.42 0,0.86 -0.3,1.53 -0.89,2 -0.59,0.48 -1.44,0.72 -2.53,0.72 -0.37,0 -0.74,-0.04 -1.14,-0.11 -0.39,-0.08 -0.78,-0.19 -1.19,-0.33 l 0,-1.14 c 0.32,0.18 0.68,0.33 1.07,0.43 0.39,0.1 0.8,0.15 1.23,0.15 0.74,0 1.3,-0.15 1.69,-0.44 0.39,-0.29 0.59,-0.72 0.59,-1.28 0,-0.51 -0.18,-0.92 -0.55,-1.21 -0.36,-0.29 -0.86,-0.43 -1.5,-0.43 l -1.03,0 0,-0.97 1.08,0 c 0.57,0 1.01,-0.12 1.33,-0.35 0.31,-0.24 0.46,-0.57 0.46,-1.01 0,-0.45 -0.15,-0.79 -0.47,-1.03 -0.32,-0.24 -0.78,-0.36 -1.37,-0.36 -0.33,0 -0.68,0.03 -1.05,0.1 -0.37,0.07 -0.78,0.17 -1.23,0.32 l 0,-1.05 c 0.46,-0.12 0.88,-0.22 1.27,-0.28 0.39,-0.06 0.76,-0.09 1.1,-0.09 0.91,0 1.62,0.2 2.15,0.61 0.52,0.4 0.78,0.95 0.78,1.65 0,0.49 -0.14,0.9 -0.42,1.24 -0.27,0.33 -0.67,0.56 -1.18,0.68 z" />
                                <path
                                   inkscape:connector-curvature="0"
                                   id="path4340"
                                   style="fill:none;stroke:#000000;stroke-width:1;stroke-linecap:butt;stroke-linejoin:miter;stroke-miterlimit:1.45000005;stroke-dasharray:none;stroke-opacity:1"
                                   d="m 295.51,305.9 29.02,-41.15" />
                                <path
                                   inkscape:connector-curvature="0"
                                   id="path4342"
                                   style="fill:#000000;fill-opacity:1;fill-rule:nonzero;stroke:none"
                                   d="m 329.15,258.22 -11.01,6.92 5.82,0.43 2.35,5.33 2.84,-12.68 z" />
                                <path
                                   inkscape:connector-curvature="0"
                                   id="path4344"
                                   style="fill:#000000;fill-opacity:1;fill-rule:nonzero;stroke:none"
                                   d="m 310.05,257.89 4.64,0 0,1 -3.56,0 0,2.14 c 0.17,-0.06 0.35,-0.11 0.52,-0.14 0.17,-0.02 0.34,-0.03 0.51,-0.03 0.98,0 1.75,0.26 2.33,0.8 0.57,0.54 0.86,1.26 0.86,2.16 0,0.95 -0.3,1.69 -0.89,2.21 -0.59,0.52 -1.41,0.78 -2.47,0.78 -0.38,0 -0.76,-0.03 -1.14,-0.09 -0.38,-0.07 -0.77,-0.16 -1.18,-0.29 l 0,-1.18 c 0.36,0.18 0.72,0.32 1.1,0.42 0.37,0.09 0.77,0.14 1.18,0.14 0.68,0 1.22,-0.18 1.61,-0.53 0.4,-0.36 0.6,-0.84 0.6,-1.46 0,-0.6 -0.2,-1.08 -0.6,-1.43 -0.39,-0.36 -0.93,-0.53 -1.61,-0.53 -0.31,0 -0.62,0.03 -0.94,0.1 -0.32,0.06 -0.64,0.17 -0.96,0.32 l 0,-4.39 z" />
                                <path
                                   inkscape:connector-curvature="0"
                                   id="path4346"
                                   style="fill:none;stroke:#000000;stroke-width:1;stroke-linecap:butt;stroke-linejoin:miter;stroke-miterlimit:1.45000005;stroke-dasharray:none;stroke-opacity:1"
                                   d="m 365.96,243.4 68.05,-2.13" />
                                <path
                                   inkscape:connector-curvature="0"
                                   id="path4348"
                                   style="fill:#000000;fill-opacity:1;fill-rule:nonzero;stroke:none"
                                   d="m 442,241.02 -12.15,-4.62 3.16,4.9 -2.85,5.09 11.84,-5.37 z" />
                                <path
                                   inkscape:connector-curvature="0"
                                   id="path4350"
                                   style="fill:#000000;fill-opacity:1;fill-rule:nonzero;stroke:none"
                                   d="m 404,253.38 c -0.57,0 -1.01,0.15 -1.33,0.45 -0.33,0.3 -0.49,0.71 -0.49,1.23 0,0.53 0.16,0.95 0.49,1.25 0.32,0.31 0.76,0.46 1.33,0.46 0.56,0 1,-0.15 1.32,-0.46 0.33,-0.3 0.49,-0.72 0.49,-1.25 0,-0.52 -0.16,-0.93 -0.48,-1.23 -0.32,-0.3 -0.76,-0.45 -1.33,-0.45 z m -1.19,-0.5 c -0.5,-0.13 -0.9,-0.37 -1.18,-0.71 -0.29,-0.35 -0.43,-0.78 -0.43,-1.28 0,-0.7 0.25,-1.25 0.75,-1.65 0.5,-0.41 1.18,-0.61 2.05,-0.61 0.87,0 1.56,0.2 2.05,0.61 0.49,0.4 0.74,0.95 0.74,1.65 0,0.5 -0.14,0.93 -0.42,1.28 -0.28,0.34 -0.68,0.58 -1.19,0.71 0.58,0.13 1.02,0.39 1.34,0.78 0.32,0.38 0.48,0.85 0.48,1.4 0,0.86 -0.26,1.51 -0.78,1.96 -0.51,0.46 -1.26,0.68 -2.22,0.68 -0.96,0 -1.7,-0.22 -2.22,-0.68 -0.52,-0.45 -0.78,-1.1 -0.78,-1.96 0,-0.55 0.16,-1.02 0.48,-1.4 0.32,-0.39 0.77,-0.65 1.33,-0.78 z M 402.39,251 c 0,0.46 0.14,0.81 0.42,1.06 0.28,0.25 0.67,0.38 1.19,0.38 0.51,0 0.9,-0.13 1.19,-0.38 0.29,-0.25 0.43,-0.6 0.43,-1.06 0,-0.45 -0.14,-0.8 -0.43,-1.05 -0.29,-0.26 -0.68,-0.39 -1.19,-0.39 -0.52,0 -0.91,0.13 -1.19,0.39 -0.28,0.25 -0.42,0.6 -0.42,1.05 z" />
                                <path
                                   inkscape:connector-curvature="0"
                                   id="path4352"
                                   style="fill:none;stroke:#000000;stroke-width:1;stroke-linecap:butt;stroke-linejoin:miter;stroke-miterlimit:1.45000005;stroke-dasharray:none;stroke-opacity:1"
                                   d="m 341.52,229.32 9.4,-55.64" />
                                <path
                                   inkscape:connector-curvature="0"
                                   id="path4354"
                                   style="fill:#000000;fill-opacity:1;fill-rule:nonzero;stroke:none"
                                   d="m 352.25,165.79 -6.93,11 5.43,-2.13 4.43,3.8 -2.93,-12.67 z" />
                                <path
                                   inkscape:connector-curvature="0"
                                   id="path4356"
                                   style="fill:#000000;fill-opacity:1;fill-rule:nonzero;stroke:none"
                                   d="m 352.58,213.29 4.14,0 0,1 -5.57,0 0,-1 c 0.45,-0.45 1.06,-1.08 1.84,-1.86 0.78,-0.79 1.26,-1.3 1.46,-1.53 0.39,-0.41 0.65,-0.77 0.81,-1.07 0.15,-0.29 0.22,-0.58 0.22,-0.86 0,-0.47 -0.16,-0.85 -0.49,-1.14 -0.33,-0.3 -0.75,-0.44 -1.27,-0.44 -0.38,0 -0.77,0.06 -1.18,0.19 -0.42,0.12 -0.86,0.32 -1.32,0.59 l 0,-1.2 c 0.48,-0.19 0.92,-0.33 1.33,-0.43 0.41,-0.1 0.79,-0.15 1.13,-0.15 0.91,0 1.64,0.23 2.18,0.68 0.54,0.45 0.81,1.06 0.81,1.82 0,0.35 -0.07,0.69 -0.2,1.01 -0.14,0.33 -0.38,0.71 -0.74,1.14 -0.1,0.12 -0.41,0.45 -0.94,0.99 -0.52,0.54 -1.26,1.3 -2.21,2.26 z" />
                                <path
                                   inkscape:connector-curvature="0"
                                   id="path4358"
                                   style="fill:none;stroke:#000000;stroke-width:1;stroke-linecap:butt;stroke-linejoin:miter;stroke-miterlimit:1.45000005;stroke-dasharray:none;stroke-opacity:1"
                                   d="m 307.67,325.62 44.59,-6.7" />
                                <path
                                   inkscape:connector-curvature="0"
                                   id="path4360"
                                   style="fill:#000000;fill-opacity:1;fill-rule:nonzero;stroke:none"
                                   d="m 360.17,317.73 -12.61,-3.16 3.71,4.5 -2.23,5.39 11.13,-6.73 z" />
                                <path
                                   inkscape:connector-curvature="0"
                                   id="path4362"
                                   style="fill:#000000;fill-opacity:1;fill-rule:nonzero;stroke:none"
                                   d="m 331.17,328.92 5.62,0 0,0.5 -3.17,8.25 -1.23,0 2.98,-7.75 -4.2,0 0,-1 z" />
                                <path
                                   inkscape:connector-curvature="0"
                                   id="path4364"
                                   style="fill:none;stroke:#000000;stroke-width:1;stroke-linecap:butt;stroke-linejoin:miter;stroke-miterlimit:1.45000005;stroke-dasharray:none;stroke-opacity:1"
                                   d="m 386.95,306.43 49.82,-37.8" />
                                <path
                                   inkscape:connector-curvature="0"
                                   id="path4366"
                                   style="fill:#000000;fill-opacity:1;fill-rule:nonzero;stroke:none"
                                   d="m 443.14,263.79 -12.58,3.27 5.41,2.17 0.64,5.8 6.53,-11.24 z" />
                                <path
                                   inkscape:connector-curvature="0"
                                   id="path4368"
                                   style="fill:#000000;fill-opacity:1;fill-rule:nonzero;stroke:none"
                                   d="m 416,299.79 c -0.57,0 -1.01,0.15 -1.33,0.45 -0.33,0.3 -0.49,0.71 -0.49,1.23 0,0.53 0.16,0.95 0.49,1.25 0.32,0.31 0.76,0.46 1.33,0.46 0.56,0 1,-0.15 1.32,-0.46 0.33,-0.3 0.49,-0.72 0.49,-1.25 0,-0.52 -0.16,-0.93 -0.48,-1.23 -0.32,-0.3 -0.76,-0.45 -1.33,-0.45 z m -1.19,-0.5 c -0.5,-0.13 -0.9,-0.37 -1.18,-0.71 -0.29,-0.35 -0.43,-0.78 -0.43,-1.28 0,-0.7 0.25,-1.25 0.75,-1.65 0.5,-0.41 1.18,-0.61 2.05,-0.61 0.87,0 1.56,0.2 2.05,0.61 0.49,0.4 0.74,0.95 0.74,1.65 0,0.5 -0.14,0.93 -0.42,1.28 -0.28,0.34 -0.68,0.58 -1.19,0.71 0.58,0.13 1.02,0.39 1.34,0.78 0.32,0.38 0.48,0.85 0.48,1.4 0,0.86 -0.26,1.51 -0.78,1.96 -0.51,0.46 -1.26,0.68 -2.22,0.68 -0.96,0 -1.7,-0.22 -2.22,-0.68 -0.52,-0.45 -0.78,-1.1 -0.78,-1.96 0,-0.55 0.16,-1.02 0.48,-1.4 0.32,-0.39 0.77,-0.65 1.33,-0.78 z m -0.42,-1.88 c 0,0.46 0.14,0.81 0.42,1.06 0.28,0.25 0.67,0.38 1.19,0.38 0.51,0 0.9,-0.13 1.19,-0.38 0.29,-0.25 0.43,-0.6 0.43,-1.06 0,-0.45 -0.14,-0.8 -0.43,-1.05 -0.29,-0.26 -0.68,-0.39 -1.19,-0.39 -0.52,0 -0.91,0.13 -1.19,0.39 -0.28,0.25 -0.42,0.6 -0.42,1.05 z" />
                                </g>
                              </g>
                              <g
                                 id="g4370" />
                            </g>
                          </g>
                        </g>
                      </g>
                      <g
                         id="g4372">
                        <g
                           id="g4374">
                          <g
                             clip-path="url(#clipPath4378)"
                             id="g4376" />
                        </g>
                      </g>
                    </g>
                  </g>
                </g>
              </g>
            </g>
          </g>
        </g>
        <text
           xml:space="preserve"
           style="font-style:normal;font-weight:normal;font-size:12px;line-height:125%;font-family:sans-serif;letter-spacing:0px;word-spacing:0px;fill:#000000;fill-opacity:1;stroke:none;stroke-width:1px;stroke-linecap:butt;stroke-linejoin:miter;stroke-opacity:1"
           x="254.32652"
           y="-136.26392"
           id="text4557"
           sodipodi:linespacing="125%"
           transform="scale(1,-1)"><tspan
             sodipodi:role="line"
             id="tspan4559"
             x="254.32652"
             y="-136.26392"
             style="fill:#ff0000">2</tspan></text>
        <text
           xml:space="preserve"
           style="font-style:normal;font-weight:normal;font-size:12px;line-height:125%;font-family:sans-serif;letter-spacing:0px;word-spacing:0px;fill:#000000;fill-opacity:1;stroke:none;stroke-width:1px;stroke-linecap:butt;stroke-linejoin:miter;stroke-opacity:1"
           x="346.83588"
           y="-139.9104"
           id="text4557-1"
           sodipodi:linespacing="125%"
           transform="scale(1,-1)"><tspan
             sodipodi:role="line"
             id="tspan4559-9"
             x="346.83588"
             y="-139.9104"
             style="fill:#ff0000">7</tspan></text>
        <text
           xml:space="preserve"
           style="font-style:normal;font-weight:normal;font-size:12px;line-height:125%;font-family:sans-serif;letter-spacing:0px;word-spacing:0px;fill:#000000;fill-opacity:1;stroke:none;stroke-width:1px;stroke-linecap:butt;stroke-linejoin:miter;stroke-opacity:1"
           x="402.03586"
           y="-165.51039"
           id="text4557-13"
           sodipodi:linespacing="125%"
           transform="scale(1,-1)"><tspan
             sodipodi:role="line"
             id="tspan4559-6"
             x="402.03586"
             y="-165.51039"
             style="fill:#ff0000">7</tspan></text>
        <text
           xml:space="preserve"
           style="font-style:normal;font-weight:normal;font-size:12px;line-height:125%;font-family:sans-serif;letter-spacing:0px;word-spacing:0px;fill:#000000;fill-opacity:1;stroke:none;stroke-width:1px;stroke-linecap:butt;stroke-linejoin:miter;stroke-opacity:1"
           x="242.83588"
           y="-268.71039"
           id="text4557-3"
           sodipodi:linespacing="125%"
           transform="scale(1,-1)"><tspan
             sodipodi:role="line"
             id="tspan4559-97"
             x="242.83588"
             y="-268.71039"
             style="fill:#ff0000">7</tspan></text>
        <text
           xml:space="preserve"
           style="font-style:normal;font-weight:normal;font-size:12px;line-height:125%;font-family:sans-serif;letter-spacing:0px;word-spacing:0px;fill:#000000;fill-opacity:1;stroke:none;stroke-width:1px;stroke-linecap:butt;stroke-linejoin:miter;stroke-opacity:1"
           x="396.07394"
           y="-251.90161"
           id="text4557-3-4"
           sodipodi:linespacing="125%"
           transform="scale(1,-1)"><tspan
             sodipodi:role="line"
             id="tspan4559-97-7"
             x="396.07394"
             y="-251.90161"
             style="fill:#ff0000">3</tspan></text>
        <text
           xml:space="preserve"
           style="font-style:normal;font-weight:normal;font-size:12px;line-height:125%;font-family:sans-serif;letter-spacing:0px;word-spacing:0px;fill:#000000;fill-opacity:1;stroke:none;stroke-width:1px;stroke-linecap:butt;stroke-linejoin:miter;stroke-opacity:1"
           x="310.87396"
           y="-271.10159"
           id="text4557-3-7"
           sodipodi:linespacing="125%"
           transform="scale(1,-1)"><tspan
             sodipodi:role="line"
             id="tspan4559-97-0"
             x="310.87396"
             y="-271.10159"
             style="fill:#ff0000">3</tspan></text>
        <text
           xml:space="preserve"
           style="font-style:normal;font-weight:normal;font-size:12px;line-height:125%;font-family:sans-serif;letter-spacing:0px;word-spacing:0px;fill:#000000;fill-opacity:1;stroke:none;stroke-width:1px;stroke-linecap:butt;stroke-linejoin:miter;stroke-opacity:1"
           x="315.98898"
           y="-186.79243"
           id="text4557-3-47-7"
           sodipodi:linespacing="125%"
           transform="scale(1,-1)"><tspan
             sodipodi:role="line"
             id="tspan4559-97-5-2"
             x="315.98898"
             y="-186.79243"
             style="fill:#ff0000">5</tspan></text>
        <text
           xml:space="preserve"
           style="font-style:normal;font-weight:normal;font-size:12px;line-height:125%;font-family:sans-serif;letter-spacing:0px;word-spacing:0px;fill:#000000;fill-opacity:1;stroke:none;stroke-width:1px;stroke-linecap:butt;stroke-linejoin:miter;stroke-opacity:1"
           x="375.189"
           y="-203.19243"
           id="text4557-3-47-0"
           sodipodi:linespacing="125%"
           transform="scale(1,-1)"><tspan
             sodipodi:role="line"
             id="tspan4559-97-5-7"
             x="375.189"
             y="-203.19243"
             style="fill:#ff0000">5</tspan></text>
        <text
           xml:space="preserve"
           style="font-style:normal;font-weight:normal;font-size:12px;line-height:125%;font-family:sans-serif;letter-spacing:0px;word-spacing:0px;fill:#000000;fill-opacity:1;stroke:none;stroke-width:1px;stroke-linecap:butt;stroke-linejoin:miter;stroke-opacity:1"
           x="275.98901"
           y="-185.99242"
           id="text4557-3-47"
           sodipodi:linespacing="125%"
           transform="scale(1,-1)"><tspan
             sodipodi:role="line"
             id="tspan4559-97-5"
             x="275.98901"
             y="-185.99242"
             style="fill:#ff0000">10</tspan></text>
        <text
           xml:space="preserve"
           style="font-style:normal;font-weight:normal;font-size:12px;line-height:125%;font-family:sans-serif;letter-spacing:0px;word-spacing:0px;fill:#000000;fill-opacity:1;stroke:none;stroke-width:1px;stroke-linecap:butt;stroke-linejoin:miter;stroke-opacity:1"
           x="243.3765"
           y="-220.70161"
           id="text4557-3-44"
           sodipodi:linespacing="125%"
           transform="scale(1,-1)"><tspan
             sodipodi:role="line"
             id="tspan4559-97-51"
             x="243.3765"
             y="-220.70161"
             style="fill:#ff0000">6</tspan></text>
      </g>
    </g>
  </g>
</svg>
