<?xml version="1.0" encoding="UTF-8" standalone="no"?>
<!-- Created with Inkscape (http://www.inkscape.org/) -->

<svg
   xmlns:dc="http://purl.org/dc/elements/1.1/"
   xmlns:cc="http://creativecommons.org/ns#"
   xmlns:rdf="http://www.w3.org/1999/02/22-rdf-syntax-ns#"
   xmlns:svg="http://www.w3.org/2000/svg"
   xmlns="http://www.w3.org/2000/svg"
   xmlns:sodipodi="http://sodipodi.sourceforge.net/DTD/sodipodi-0.dtd"
   xmlns:inkscape="http://www.inkscape.org/namespaces/inkscape"
   width="309.66953mm"
   height="145.06223mm"
   viewBox="0 0 1097.2542 514"
   id="svg2"
   version="1.1"
   inkscape:version="0.91 r13725"
   sodipodi:docname="as.svg">
  <defs
     id="defs4">
    <marker
       inkscape:isstock="true"
       style="overflow:visible"
       id="marker4841"
       refX="0"
       refY="0"
       orient="auto"
       inkscape:stockid="TriangleInS">
      <path
         inkscape:connector-curvature="0"
         transform="scale(-0.2,-0.2)"
         style="fill:#3c3cff;fill-opacity:1;fill-rule:evenodd;stroke:#3c3cff;stroke-width:1pt;stroke-opacity:1"
         d="m 5.77,0 -8.65,5 0,-10 8.65,5 z"
         id="path4843" />
    </marker>
    <marker
       inkscape:isstock="true"
       style="overflow:visible"
       id="marker4783"
       refX="0"
       refY="0"
       orient="auto"
       inkscape:stockid="TriangleOutS">
      <path
         inkscape:connector-curvature="0"
         transform="scale(0.2,0.2)"
         style="fill:#3c3cff;fill-opacity:1;fill-rule:evenodd;stroke:#3c3cff;stroke-width:1pt;stroke-opacity:1"
         d="m 5.77,0 -8.65,5 0,-10 8.65,5 z"
         id="path4785" />
    </marker>
    <marker
       inkscape:isstock="true"
       style="overflow:visible"
       id="marker4731"
       refX="0"
       refY="0"
       orient="auto"
       inkscape:stockid="Arrow2Mend">
      <path
         inkscape:connector-curvature="0"
         transform="scale(-0.6,-0.6)"
         d="M 8.7185878,4.0337352 -2.2072895,0.01601326 8.7185884,-4.0017078 c -1.7454984,2.3720609 -1.7354408,5.6174519 -6e-7,8.035443 z"
         style="fill:#3c3cff;fill-opacity:1;fill-rule:evenodd;stroke:#3c3cff;stroke-width:0.625;stroke-linejoin:round;stroke-opacity:1"
         id="path4733" />
    </marker>
    <marker
       inkscape:isstock="true"
       style="overflow:visible"
       id="TriangleInS"
       refX="0"
       refY="0"
       orient="auto"
       inkscape:stockid="TriangleInS">
      <path
         inkscape:connector-curvature="0"
         transform="scale(-0.2,-0.2)"
         style="fill:#ff3c3c;fill-opacity:1;fill-rule:evenodd;stroke:#ff3c3c;stroke-width:1pt;stroke-opacity:1"
         d="m 5.77,0 -8.65,5 0,-10 8.65,5 z"
         id="path4448" />
    </marker>
    <marker
       inkscape:isstock="true"
       style="overflow:visible"
       id="TriangleOutS"
       refX="0"
       refY="0"
       orient="auto"
       inkscape:stockid="TriangleOutS">
      <path
         inkscape:connector-curvature="0"
         transform="scale(0.2,0.2)"
         style="fill:#ff3c3c;fill-opacity:1;fill-rule:evenodd;stroke:#ff3c3c;stroke-width:1pt;stroke-opacity:1"
         d="m 5.77,0 -8.65,5 0,-10 8.65,5 z"
         id="path4457" />
    </marker>
    <marker
       inkscape:isstock="true"
       style="overflow:visible"
       id="DotS"
       refX="0"
       refY="0"
       orient="auto"
       inkscape:stockid="DotS">
      <path
         inkscape:connector-curvature="0"
         transform="matrix(0.2,0,0,0.2,1.48,0.2)"
         style="fill:#ff3c3c;fill-opacity:1;fill-rule:evenodd;stroke:#ff3c3c;stroke-width:1pt;stroke-opacity:1"
         d="m -2.5,-1 c 0,2.76 -2.24,5 -5,5 -2.76,0 -5,-2.24 -5,-5 0,-2.76 2.24,-5 5,-5 2.76,0 5,2.24 5,5 z"
         id="path4376" />
    </marker>
    <marker
       inkscape:isstock="true"
       style="overflow:visible"
       id="Arrow2Mend"
       refX="0"
       refY="0"
       orient="auto"
       inkscape:stockid="Arrow2Mend">
      <path
         inkscape:connector-curvature="0"
         transform="scale(-0.6,-0.6)"
         d="M 8.7185878,4.0337352 -2.2072895,0.01601326 8.7185884,-4.0017078 c -1.7454984,2.3720609 -1.7354408,5.6174519 -6e-7,8.035443 z"
         style="fill:#ff3c3c;fill-opacity:1;fill-rule:evenodd;stroke:#ff3c3c;stroke-width:0.625;stroke-linejoin:round;stroke-opacity:1"
         id="path4336" />
    </marker>
    <marker
       inkscape:isstock="true"
       style="overflow:visible"
       id="Arrow1Lend"
       refX="0"
       refY="0"
       orient="auto"
       inkscape:stockid="Arrow1Lend">
      <path
         inkscape:connector-curvature="0"
         transform="matrix(-0.8,0,0,-0.8,-10,0)"
         style="fill:#ff3c3c;fill-opacity:1;fill-rule:evenodd;stroke:#ff3c3c;stroke-width:1pt;stroke-opacity:1"
         d="M 0,0 5,-5 -12.5,0 5,5 0,0 Z"
         id="path4312" />
    </marker>
  </defs>
  <sodipodi:namedview
     id="base"
     pagecolor="#ffffff"
     bordercolor="#666666"
     borderopacity="1.0"
     inkscape:pageopacity="0.0"
     inkscape:pageshadow="2"
     inkscape:zoom="0.7"
     inkscape:cx="286.87185"
     inkscape:cy="401.28204"
     inkscape:document-units="px"
     inkscape:current-layer="layer1"
     showgrid="false"
     fit-margin-top="0"
     fit-margin-left="0"
     fit-margin-right="0"
     fit-margin-bottom="0"
     inkscape:window-width="1920"
     inkscape:window-height="1017"
     inkscape:window-x="1912"
     inkscape:window-y="-8"
     inkscape:window-maximized="1"
     inkscape:snap-bbox="true"
     inkscape:object-paths="true"
     inkscape:object-nodes="true"
     inkscape:snap-global="false"
     showguides="false">
    <inkscape:grid
       type="xygrid"
       id="grid3613"
       originx="183.18285"
       originy="487.71432" />
  </sodipodi:namedview>
  <metadata
     id="metadata7">
    <rdf:RDF>
      <cc:Work
         rdf:about="">
        <dc:format>image/svg+xml</dc:format>
        <dc:type
           rdf:resource="http://purl.org/dc/dcmitype/StillImage" />
        <dc:title></dc:title>
      </cc:Work>
    </rdf:RDF>
  </metadata>
  <g
     inkscape:label="Calque 1"
     inkscape:groupmode="layer"
     id="layer1"
     transform="translate(157.89713,-599.34744)">
    <path
       sodipodi:nodetypes="cssssssssc"
       inkscape:connector-curvature="0"
       id="rect5045"
       d="m 764.28226,704.35883 0,375.87137 c 0,17.3228 -15.5443,31.2686 -34.85267,31.2686 l -850.62536,0 c -19.30838,0 -34.85269,-13.9458 -34.85269,-31.2686 l 0,-447.76555 c 0,-17.32277 15.54431,-31.26854 34.85269,-31.26854 l 850.62536,0 c 19.30837,0 34.85267,13.94577 34.85267,31.26854 l 0,21.26262"
       style="opacity:1;fill:none;fill-opacity:1;fill-rule:evenodd;stroke:#3c3c3c;stroke-width:3.69734454;stroke-linecap:round;stroke-linejoin:round;stroke-miterlimit:4;stroke-dasharray:none;stroke-dashoffset:0;stroke-opacity:1" />
    <path
       sodipodi:nodetypes="ccccccccccccccccccccccccc"
       style="fill:#3c3c3c;fill-opacity:1;stroke-width:0.2;stroke-linejoin:round"
       inkscape:connector-curvature="0"
       d="m 277.52589,714.89871 70.32488,0 0,16.65589 -70.32488,0 z m 66.62357,3.70131 -3.70131,0 0,9.25327 3.70131,0 z m -7.40262,0 -3.70131,0 0,9.25327 3.70131,0 z m -7.40262,0 -3.70131,0 0,9.25327 3.70131,0 z m -48.11702,5.55196 0,3.70131 3.70131,0 0,-3.70131 z"
       id="path3344-3" />
    <text
       xml:space="preserve"
       style="font-style:normal;font-weight:normal;font-size:19.35594559px;line-height:125%;font-family:sans-serif;letter-spacing:0px;word-spacing:0px;fill:#3c3c3c;fill-opacity:1;stroke:none;stroke-width:1px;stroke-linecap:butt;stroke-linejoin:miter;stroke-opacity:1"
       x="280.35123"
       y="748.08228"
       id="text3544-6-4"
       sodipodi:linespacing="125%"><tspan
         sodipodi:role="line"
         id="tspan3546-5-7"
         x="280.35123"
         y="748.08228"
         style="font-style:normal;font-variant:normal;font-weight:normal;font-stretch:normal;font-family:Calibri;-inkscape-font-specification:Calibri;fill:#3c3c3c;fill-opacity:1">Routeur</tspan></text>
    <path
       sodipodi:nodetypes="ccccccccccccccccccccccccc"
       style="fill:#3c3c3c;fill-opacity:1;stroke-width:0.2;stroke-linejoin:round"
       inkscape:connector-curvature="0"
       d="m 449.40345,859.84281 70.32488,0 0,16.65589 -70.32488,0 z m 66.62357,3.70132 -3.70131,0 0,9.25327 3.70131,0 z m -7.40262,0 -3.70131,0 0,9.25327 3.70131,0 z m -7.40262,0 -3.70131,0 0,9.25327 3.70131,0 z m -48.11702,5.55196 0,3.70131 3.70131,0 0,-3.70131 z"
       id="path3344" />
    <text
       xml:space="preserve"
       style="font-style:normal;font-weight:normal;font-size:19.35594559px;line-height:125%;font-family:sans-serif;letter-spacing:0px;word-spacing:0px;fill:#3c3c3c;fill-opacity:1;stroke:none;stroke-width:1px;stroke-linecap:butt;stroke-linejoin:miter;stroke-opacity:1"
       x="452.22879"
       y="894.71155"
       id="text3544-6"
       sodipodi:linespacing="125%"><tspan
         sodipodi:role="line"
         id="tspan3546-5"
         x="452.22879"
         y="894.71155"
         style="font-style:normal;font-variant:normal;font-weight:normal;font-stretch:normal;font-family:Calibri;-inkscape-font-specification:Calibri;fill:#3c3c3c;fill-opacity:1">Routeur</tspan></text>
    <path
       inkscape:connector-curvature="0"
       id="path3-1"
       d="m 429.28745,1004.3878 -9.55126,0 0,-4.7756 c 0,-2.63494 -2.13604,-4.77563 -4.77562,-4.77563 l -52.53189,0 c -2.63959,0 -4.77563,2.14069 -4.77563,4.77563 l 0,38.205 c 0,2.6398 2.13604,4.7756 4.77563,4.7756 l 21.49033,0 -4.77563,9.5513 19.10252,0 -4.77563,-9.5513 16.71475,0 0,9.5513 c 0,2.6397 2.13604,4.7756 4.77559,4.7756 l 14.32684,0 c 2.63976,0 4.77563,-2.136 4.77563,-4.7756 l 0,-42.9806 c 0,-2.635 -2.13587,-4.7757 -4.77563,-4.7757 z m -66.85877,28.6538 0,-33.4294 52.53189,0 0,4.7756 c -2.63972,0 -4.77559,2.1407 -4.77559,4.7757 l 0,23.8781 -47.7563,0 z m 59.69533,19.1025 c -1.31984,0 -2.38782,-1.068 -2.38782,-2.3878 0,-1.3199 1.06798,-2.3878 2.38782,-2.3878 1.31988,0 2.38781,1.0679 2.38781,2.3878 0,1.3198 -1.06793,2.3878 -2.38781,2.3878 z m 0,-9.5513 c -1.31984,0 -2.38782,-1.0679 -2.38782,-2.3878 0,-1.3198 1.06798,-2.3878 2.38782,-2.3878 1.31988,0 2.38781,1.068 2.38781,2.3878 0,1.3199 -1.06793,2.3878 -2.38781,2.3878 z m 7.16344,-19.1024 -9.55126,0 -4.77562,0 0,-4.7757 14.32688,0 0,4.7757 z m 0,-9.5513 -14.32688,0 0,-4.7756 14.32688,0 0,4.7756 z"
       style="fill:#3c3c3c;fill-opacity:1" />
    <path
       style="fill:none;fill-rule:evenodd;stroke:#3c3c3c;stroke-width:4;stroke-linecap:butt;stroke-linejoin:miter;stroke-miterlimit:4;stroke-dasharray:none;stroke-opacity:1"
       d="m 388.69464,987.85883 0,-32.6026"
       id="path3392-9"
       inkscape:connector-curvature="0" />
    <path
       inkscape:connector-curvature="0"
       id="path3-7-9"
       d="m 524.42384,1004.3878 -9.55126,0 0,-4.7756 c 0,-2.63494 -2.13604,-4.77563 -4.77563,-4.77563 l -52.53188,0 c -2.63959,0 -4.77563,2.14069 -4.77563,4.77563 l 0,38.205 c 0,2.6398 2.13604,4.7756 4.77563,4.7756 l 21.49033,0 -4.77567,9.5513 19.10252,0 -4.77563,-9.5513 16.71474,0 0,9.5513 c 0,2.6397 2.13604,4.7756 4.77559,4.7756 l 14.32689,0 c 2.63971,0 4.77563,-2.136 4.77563,-4.7756 l 0,-42.9806 c 0,-2.635 -2.13592,-4.7757 -4.77563,-4.7757 z m -66.85877,28.6538 0,-33.4294 52.53188,0 0,4.7756 c -2.63971,0 -4.77563,2.1407 -4.77563,4.7757 l 0,23.8781 -47.75625,0 z m 59.69533,19.1025 c -1.31988,0 -2.38782,-1.068 -2.38782,-2.3878 0,-1.3199 1.06794,-2.3878 2.38782,-2.3878 1.31987,0 2.38781,1.0679 2.38781,2.3878 0,1.3198 -1.06794,2.3878 -2.38781,2.3878 z m 0,-9.5513 c -1.31988,0 -2.38782,-1.0679 -2.38782,-2.3878 0,-1.3198 1.06794,-2.3878 2.38782,-2.3878 1.31987,0 2.38781,1.068 2.38781,2.3878 0,1.3199 -1.06794,2.3878 -2.38781,2.3878 z m 7.16344,-19.1024 -9.55126,0 -4.77563,0 0,-4.7757 14.32689,0 0,4.7757 z m 0,-9.5513 -14.32689,0 0,-4.7756 14.32689,0 0,4.7756 z"
       style="fill:#3c3c3c;fill-opacity:1" />
    <path
       style="fill:none;fill-rule:evenodd;stroke:#3c3c3c;stroke-width:4;stroke-linecap:butt;stroke-linejoin:miter;stroke-miterlimit:4;stroke-dasharray:none;stroke-opacity:1"
       d="m 483.83099,987.85883 0,-32.6026"
       id="path3394-5"
       inkscape:connector-curvature="0" />
    <path
       inkscape:connector-curvature="0"
       id="path3-8-0"
       d="m 619.56024,1004.3878 -9.55125,0 0,-4.7756 c 0,-2.63494 -2.13605,-4.77563 -4.77563,-4.77563 l -52.53189,0 c -2.63959,0 -4.77563,2.14069 -4.77563,4.77563 l 0,38.205 c 0,2.6398 2.13604,4.7756 4.77563,4.7756 l 21.49033,0 -4.77563,9.5513 19.10248,0 -4.77559,-9.5513 16.71467,0 0,9.5513 c 0,2.6397 2.13604,4.7756 4.77563,4.7756 l 14.32688,0 c 2.63976,0 4.77563,-2.136 4.77563,-4.7756 l 0,-42.9806 c 0,-2.635 -2.13587,-4.7757 -4.77563,-4.7757 z m -66.85877,28.6538 0,-33.4294 52.53189,0 0,4.7756 c -2.63971,0 -4.77563,2.1407 -4.77563,4.7757 l 0,23.8781 -47.75626,0 z m 59.69533,19.1025 c -1.31988,0 -2.38781,-1.068 -2.38781,-2.3878 0,-1.3199 1.06793,-2.3878 2.38781,-2.3878 1.31988,0 2.38781,1.0679 2.38781,2.3878 0,1.3198 -1.06793,2.3878 -2.38781,2.3878 z m 0,-9.5513 c -1.31988,0 -2.38781,-1.0679 -2.38781,-2.3878 0,-1.3198 1.06793,-2.3878 2.38781,-2.3878 1.31988,0 2.38781,1.068 2.38781,2.3878 0,1.3199 -1.06793,2.3878 -2.38781,2.3878 z m 7.16344,-19.1024 -9.55125,0 -4.77563,0 0,-4.7757 14.32688,0 0,4.7757 z m 0,-9.5513 -14.32688,0 0,-4.7756 14.32688,0 0,4.7756 z"
       style="fill:#3c3c3c;fill-opacity:1" />
    <path
       style="fill:none;fill-rule:evenodd;stroke:#3c3c3c;stroke-width:4;stroke-linecap:butt;stroke-linejoin:miter;stroke-miterlimit:4;stroke-dasharray:none;stroke-opacity:1"
       d="m 578.96743,987.85883 0,-32.6026"
       id="path3396-3"
       inkscape:connector-curvature="0" />
    <text
       sodipodi:linespacing="125%"
       id="text3544"
       y="1080.1614"
       x="442.2738"
       style="font-style:normal;font-weight:normal;font-size:19.35594559px;line-height:125%;font-family:sans-serif;letter-spacing:0px;word-spacing:0px;fill:#3c3c3c;fill-opacity:1;stroke:none;stroke-width:1px;stroke-linecap:butt;stroke-linejoin:miter;stroke-opacity:1"
       xml:space="preserve"><tspan
         style="font-style:normal;font-variant:normal;font-weight:normal;font-stretch:normal;font-family:Calibri;-inkscape-font-specification:Calibri;fill:#3c3c3c;fill-opacity:1"
         y="1080.1614"
         x="442.2738"
         id="tspan3546"
         sodipodi:role="line">Reseau local</tspan></text>
    <path
       style="fill:none;fill-rule:evenodd;stroke:#3c3c3c;stroke-width:4;stroke-linecap:butt;stroke-linejoin:miter;stroke-miterlimit:4;stroke-dasharray:none;stroke-opacity:1"
       d="m 362.98403,955.25623 -4.07532,0"
       id="path3380-4"
       inkscape:connector-curvature="0" />
    <path
       style="fill:none;fill-rule:evenodd;stroke:#3c3c3c;stroke-width:4;stroke-linecap:butt;stroke-linejoin:miter;stroke-miterlimit:4;stroke-dasharray:none;stroke-opacity:1"
       d="m 354.83338,955.25623 -4.07532,0"
       id="path3382-2"
       inkscape:connector-curvature="0" />
    <path
       style="fill:none;fill-rule:evenodd;stroke:#3c3c3c;stroke-width:4;stroke-linecap:butt;stroke-linejoin:miter;stroke-miterlimit:4;stroke-dasharray:none;stroke-opacity:1"
       d="m 346.68273,955.25623 -4.07533,0"
       id="path3384-8"
       inkscape:connector-curvature="0" />
    <path
       style="fill:none;fill-rule:evenodd;stroke:#3c3c3c;stroke-width:4;stroke-linecap:butt;stroke-linejoin:miter;stroke-miterlimit:4;stroke-dasharray:none;stroke-opacity:1"
       d="m 619.00489,955.25623 4.07533,0"
       id="path3386-8"
       inkscape:connector-curvature="0" />
    <path
       style="fill:none;fill-rule:evenodd;stroke:#3c3c3c;stroke-width:4;stroke-linecap:butt;stroke-linejoin:miter;stroke-miterlimit:4;stroke-dasharray:none;stroke-opacity:1"
       d="m 627.15554,955.25623 4.07533,0"
       id="path3388-7"
       inkscape:connector-curvature="0" />
    <path
       style="fill:none;fill-rule:evenodd;stroke:#3c3c3c;stroke-width:4;stroke-linecap:butt;stroke-linejoin:miter;stroke-miterlimit:4;stroke-dasharray:none;stroke-opacity:1"
       d="m 635.3062,955.25623 4.07532,0"
       id="path3390-8"
       inkscape:connector-curvature="0" />
    <path
       style="fill:none;fill-rule:evenodd;stroke:#3c3c3c;stroke-width:4;stroke-linecap:butt;stroke-linejoin:miter;stroke-miterlimit:4;stroke-dasharray:none;stroke-opacity:1"
       d="m 368.13078,955.25623 245.72735,0"
       id="path3378-2"
       inkscape:connector-curvature="0"
       sodipodi:nodetypes="cc" />
    <path
       style="fill:none;fill-rule:evenodd;stroke:#3c3c3c;stroke-width:4;stroke-linecap:butt;stroke-linejoin:miter;stroke-miterlimit:4;stroke-dasharray:none;stroke-opacity:1"
       d="m 483.70397,957.3687 0,-52.14286"
       id="path3378-2-4"
       inkscape:connector-curvature="0"
       sodipodi:nodetypes="cc" />
    <path
       sodipodi:nodetypes="ccccccccccccccccccccccccc"
       style="fill:#3c3c3c;fill-opacity:1;stroke-width:0.2;stroke-linejoin:round"
       inkscape:connector-curvature="0"
       d="m 81.5421,859.84281 70.32488,0 0,16.65589 -70.32488,0 z m 66.62357,3.70132 -3.70131,0 0,9.25327 3.70131,0 z m -7.40262,0 -3.70131,0 0,9.25327 3.70131,0 z m -7.40262,0 -3.70131,0 0,9.25327 3.70131,0 z m -48.11702,5.55196 0,3.70131 3.70131,0 0,-3.70131 z"
       id="path3344-1" />
    <text
       xml:space="preserve"
       style="font-style:normal;font-weight:normal;font-size:19.35594559px;line-height:125%;font-family:sans-serif;letter-spacing:0px;word-spacing:0px;fill:#3c3c3c;fill-opacity:1;stroke:none;stroke-width:1px;stroke-linecap:butt;stroke-linejoin:miter;stroke-opacity:1"
       x="84.367447"
       y="894.71155"
       id="text3544-6-9"
       sodipodi:linespacing="125%"><tspan
         sodipodi:role="line"
         id="tspan3546-5-9"
         x="84.367447"
         y="894.71155"
         style="font-style:normal;font-variant:normal;font-weight:normal;font-stretch:normal;font-family:Calibri;-inkscape-font-specification:Calibri;fill:#3c3c3c;fill-opacity:1">Routeur</tspan></text>
    <path
       inkscape:connector-curvature="0"
       id="path3-1-3"
       d="m 72.6752,1004.3878 -9.55126,0 0,-4.7756 c 0,-2.63494 -2.13604,-4.77563 -4.77562,-4.77563 l -52.53189,0 c -2.63959,0 -4.77563,2.14069 -4.77563,4.77563 l 0,38.205 c 0,2.6398 2.13604,4.7756 4.77563,4.7756 l 21.49033,0 -4.77563,9.5513 19.10252,0 -4.77563,-9.5513 16.71475,0 0,9.5513 c 0,2.6397 2.13604,4.7756 4.77559,4.7756 l 14.32684,0 c 2.63976,0 4.77563,-2.136 4.77563,-4.7756 l 0,-42.9806 c 0,-2.635 -2.13587,-4.7757 -4.77563,-4.7757 z m -66.85877,28.6538 0,-33.4294 52.53189,0 0,4.7756 c -2.63972,0 -4.77559,2.1407 -4.77559,4.7757 l 0,23.8781 -47.7563,0 z m 59.69533,19.1025 c -1.31984,0 -2.38782,-1.068 -2.38782,-2.3878 0,-1.3199 1.06798,-2.3878 2.38782,-2.3878 1.31988,0 2.38781,1.0679 2.38781,2.3878 0,1.3198 -1.06793,2.3878 -2.38781,2.3878 z m 0,-9.5513 c -1.31984,0 -2.38782,-1.0679 -2.38782,-2.3878 0,-1.3198 1.06798,-2.3878 2.38782,-2.3878 1.31988,0 2.38781,1.068 2.38781,2.3878 0,1.3199 -1.06793,2.3878 -2.38781,2.3878 z m 7.16344,-19.1024 -9.55126,0 -4.77562,0 0,-4.7757 14.32688,0 0,4.7757 z m 0,-9.5513 -14.32688,0 0,-4.7756 14.32688,0 0,4.7756 z"
       style="fill:#3c3c3c;fill-opacity:1" />
    <path
       style="fill:none;fill-rule:evenodd;stroke:#3c3c3c;stroke-width:4;stroke-linecap:butt;stroke-linejoin:miter;stroke-miterlimit:4;stroke-dasharray:none;stroke-opacity:1"
       d="m 32.08239,987.85883 0,-32.6026"
       id="path3392-9-7"
       inkscape:connector-curvature="0" />
    <path
       inkscape:connector-curvature="0"
       id="path3-7-9-8"
       d="m 167.81159,1004.3878 -9.55126,0 0,-4.7756 c 0,-2.63494 -2.13604,-4.77563 -4.77563,-4.77563 l -52.53188,0 c -2.63959,0 -4.77563,2.14069 -4.77563,4.77563 l 0,38.205 c 0,2.6398 2.13604,4.7756 4.77563,4.7756 l 21.49033,0 -4.77567,9.5513 19.10252,0 -4.77563,-9.5513 16.71474,0 0,9.5513 c 0,2.6397 2.13604,4.7756 4.77559,4.7756 l 14.32689,0 c 2.63971,0 4.77563,-2.136 4.77563,-4.7756 l 0,-42.9806 c 0,-2.635 -2.13592,-4.7757 -4.77563,-4.7757 z m -66.85877,28.6538 0,-33.4294 52.53188,0 0,4.7756 c -2.63971,0 -4.77563,2.1407 -4.77563,4.7757 l 0,23.8781 -47.75625,0 z m 59.69533,19.1025 c -1.31988,0 -2.38782,-1.068 -2.38782,-2.3878 0,-1.3199 1.06794,-2.3878 2.38782,-2.3878 1.31987,0 2.38781,1.0679 2.38781,2.3878 0,1.3198 -1.06794,2.3878 -2.38781,2.3878 z m 0,-9.5513 c -1.31988,0 -2.38782,-1.0679 -2.38782,-2.3878 0,-1.3198 1.06794,-2.3878 2.38782,-2.3878 1.31987,0 2.38781,1.068 2.38781,2.3878 0,1.3199 -1.06794,2.3878 -2.38781,2.3878 z m 7.16344,-19.1024 -9.55126,0 -4.77563,0 0,-4.7757 14.32689,0 0,4.7757 z m 0,-9.5513 -14.32689,0 0,-4.7756 14.32689,0 0,4.7756 z"
       style="fill:#3c3c3c;fill-opacity:1" />
    <path
       style="fill:none;fill-rule:evenodd;stroke:#3c3c3c;stroke-width:4;stroke-linecap:butt;stroke-linejoin:miter;stroke-miterlimit:4;stroke-dasharray:none;stroke-opacity:1"
       d="m 127.21874,987.85883 0,-32.6026"
       id="path3394-5-0"
       inkscape:connector-curvature="0" />
    <path
       inkscape:connector-curvature="0"
       id="path3-8-0-3"
       d="m 262.94799,1004.3878 -9.55125,0 0,-4.7756 c 0,-2.63494 -2.13605,-4.77563 -4.77563,-4.77563 l -52.53189,0 c -2.63959,0 -4.77563,2.14069 -4.77563,4.77563 l 0,38.205 c 0,2.6398 2.13604,4.7756 4.77563,4.7756 l 21.49033,0 -4.77563,9.5513 19.10248,0 -4.77559,-9.5513 16.71467,0 0,9.5513 c 0,2.6397 2.13604,4.7756 4.77563,4.7756 l 14.32688,0 c 2.63976,0 4.77563,-2.136 4.77563,-4.7756 l 0,-42.9806 c 0,-2.635 -2.13587,-4.7757 -4.77563,-4.7757 z m -66.85877,28.6538 0,-33.4294 52.53189,0 0,4.7756 c -2.63971,0 -4.77563,2.1407 -4.77563,4.7757 l 0,23.8781 -47.75626,0 z m 59.69533,19.1025 c -1.31988,0 -2.38781,-1.068 -2.38781,-2.3878 0,-1.3199 1.06793,-2.3878 2.38781,-2.3878 1.31988,0 2.38781,1.0679 2.38781,2.3878 0,1.3198 -1.06793,2.3878 -2.38781,2.3878 z m 0,-9.5513 c -1.31988,0 -2.38781,-1.0679 -2.38781,-2.3878 0,-1.3198 1.06793,-2.3878 2.38781,-2.3878 1.31988,0 2.38781,1.068 2.38781,2.3878 0,1.3199 -1.06793,2.3878 -2.38781,2.3878 z m 7.16344,-19.1024 -9.55125,0 -4.77563,0 0,-4.7757 14.32688,0 0,4.7757 z m 0,-9.5513 -14.32688,0 0,-4.7756 14.32688,0 0,4.7756 z"
       style="fill:#3c3c3c;fill-opacity:1" />
    <path
       style="fill:none;fill-rule:evenodd;stroke:#3c3c3c;stroke-width:4;stroke-linecap:butt;stroke-linejoin:miter;stroke-miterlimit:4;stroke-dasharray:none;stroke-opacity:1"
       d="m 222.35518,987.85883 0,-32.6026"
       id="path3396-3-6"
       inkscape:connector-curvature="0" />
    <text
       sodipodi:linespacing="125%"
       id="text3544-5"
       y="1080.1614"
       x="85.661552"
       style="font-style:normal;font-weight:normal;font-size:19.35594559px;line-height:125%;font-family:sans-serif;letter-spacing:0px;word-spacing:0px;fill:#3c3c3c;fill-opacity:1;stroke:none;stroke-width:1px;stroke-linecap:butt;stroke-linejoin:miter;stroke-opacity:1"
       xml:space="preserve"><tspan
         style="font-style:normal;font-variant:normal;font-weight:normal;font-stretch:normal;font-family:Calibri;-inkscape-font-specification:Calibri;fill:#3c3c3c;fill-opacity:1"
         y="1080.1614"
         x="85.661552"
         id="tspan3546-3"
         sodipodi:role="line">Reseau local</tspan></text>
    <path
       style="fill:none;fill-rule:evenodd;stroke:#3c3c3c;stroke-width:4;stroke-linecap:butt;stroke-linejoin:miter;stroke-miterlimit:4;stroke-dasharray:none;stroke-opacity:1"
       d="m 6.37178,955.25623 -4.07532,0"
       id="path3380-4-3"
       inkscape:connector-curvature="0" />
    <path
       style="fill:none;fill-rule:evenodd;stroke:#3c3c3c;stroke-width:4;stroke-linecap:butt;stroke-linejoin:miter;stroke-miterlimit:4;stroke-dasharray:none;stroke-opacity:1"
       d="m -1.77887,955.25623 -4.07532,0"
       id="path3382-2-0"
       inkscape:connector-curvature="0" />
    <path
       style="fill:none;fill-rule:evenodd;stroke:#3c3c3c;stroke-width:4;stroke-linecap:butt;stroke-linejoin:miter;stroke-miterlimit:4;stroke-dasharray:none;stroke-opacity:1"
       d="m -9.92952,955.25623 -4.07533,0"
       id="path3384-8-4"
       inkscape:connector-curvature="0" />
    <path
       style="fill:none;fill-rule:evenodd;stroke:#3c3c3c;stroke-width:4;stroke-linecap:butt;stroke-linejoin:miter;stroke-miterlimit:4;stroke-dasharray:none;stroke-opacity:1"
       d="m 262.39264,955.25623 4.07533,0"
       id="path3386-8-8"
       inkscape:connector-curvature="0" />
    <path
       style="fill:none;fill-rule:evenodd;stroke:#3c3c3c;stroke-width:4;stroke-linecap:butt;stroke-linejoin:miter;stroke-miterlimit:4;stroke-dasharray:none;stroke-opacity:1"
       d="m 270.54329,955.25623 4.07533,0"
       id="path3388-7-1"
       inkscape:connector-curvature="0" />
    <path
       style="fill:none;fill-rule:evenodd;stroke:#3c3c3c;stroke-width:4;stroke-linecap:butt;stroke-linejoin:miter;stroke-miterlimit:4;stroke-dasharray:none;stroke-opacity:1"
       d="m 278.69395,955.25623 4.07532,0"
       id="path3390-8-8"
       inkscape:connector-curvature="0" />
    <path
       style="fill:none;fill-rule:evenodd;stroke:#3c3c3c;stroke-width:4;stroke-linecap:butt;stroke-linejoin:miter;stroke-miterlimit:4;stroke-dasharray:none;stroke-opacity:1"
       d="m 11.51853,955.25623 245.72735,0"
       id="path3378-2-5"
       inkscape:connector-curvature="0"
       sodipodi:nodetypes="cc" />
    <path
       style="fill:none;fill-rule:evenodd;stroke:#3c3c3c;stroke-width:4;stroke-linecap:butt;stroke-linejoin:miter;stroke-miterlimit:4;stroke-dasharray:none;stroke-opacity:1"
       d="m 127.09172,957.3687 0,-52.14286"
       id="path3378-2-4-1"
       inkscape:connector-curvature="0"
       sodipodi:nodetypes="cc" />
    <path
       style="fill:none;fill-rule:evenodd;stroke:#3c3c3c;stroke-width:4;stroke-linecap:butt;stroke-linejoin:miter;stroke-miterlimit:4;stroke-dasharray:none;stroke-opacity:1"
       d="M 116.70454,848.68433 310.28573,760.63316"
       id="path3378-2-4-1-6"
       inkscape:connector-curvature="0"
       sodipodi:nodetypes="cc" />
    <path
       style="fill:none;fill-rule:evenodd;stroke:#3c3c3c;stroke-width:4;stroke-linecap:butt;stroke-linejoin:miter;stroke-miterlimit:4;stroke-dasharray:none;stroke-opacity:1"
       d="M 484.56589,848.68433 315.28573,760.63316"
       id="path3378-2-4-1-6-6"
       inkscape:connector-curvature="0"
       sodipodi:nodetypes="cc" />
    <path
       style="fill:none;fill-rule:evenodd;stroke:#3c3c3c;stroke-width:4;stroke-linecap:butt;stroke-linejoin:miter;stroke-miterlimit:4;stroke-dasharray:none;stroke-opacity:1"
       d="m 50.33459,824.66228 -3.93646,1.05477"
       id="path3380-4-3-3"
       inkscape:connector-curvature="0" />
    <path
       style="fill:none;fill-rule:evenodd;stroke:#3c3c3c;stroke-width:4;stroke-linecap:butt;stroke-linejoin:miter;stroke-miterlimit:4;stroke-dasharray:none;stroke-opacity:1"
       d="m 42.46166,826.77182 -3.93645,1.05477"
       id="path3382-2-0-5"
       inkscape:connector-curvature="0" />
    <path
       style="fill:none;fill-rule:evenodd;stroke:#3c3c3c;stroke-width:4;stroke-linecap:butt;stroke-linejoin:miter;stroke-miterlimit:4;stroke-dasharray:none;stroke-opacity:1"
       d="m 34.58874,828.88137 -3.93647,1.05477"
       id="path3384-8-4-3"
       inkscape:connector-curvature="0" />
    <path
       style="fill:none;fill-rule:evenodd;stroke:#3c3c3c;stroke-width:4;stroke-linecap:butt;stroke-linejoin:miter;stroke-miterlimit:4;stroke-dasharray:none;stroke-opacity:1"
       d="m 55.30596,823.3302 237.3544,-63.59892"
       id="path3378-2-5-9"
       inkscape:connector-curvature="0"
       sodipodi:nodetypes="cc" />
    <path
       style="fill:none;fill-rule:evenodd;stroke:#3c3c3c;stroke-width:4;stroke-linecap:butt;stroke-linejoin:miter;stroke-miterlimit:4;stroke-dasharray:none;stroke-opacity:1"
       d="m 574.65023,824.66228 3.93646,1.05477"
       id="path3380-4-3-3-0"
       inkscape:connector-curvature="0" />
    <path
       style="fill:none;fill-rule:evenodd;stroke:#3c3c3c;stroke-width:4;stroke-linecap:butt;stroke-linejoin:miter;stroke-miterlimit:4;stroke-dasharray:none;stroke-opacity:1"
       d="m 582.52315,826.77182 3.93646,1.05477"
       id="path3382-2-0-5-0"
       inkscape:connector-curvature="0" />
    <path
       style="fill:none;fill-rule:evenodd;stroke:#3c3c3c;stroke-width:4;stroke-linecap:butt;stroke-linejoin:miter;stroke-miterlimit:4;stroke-dasharray:none;stroke-opacity:1"
       d="m 590.39608,828.88137 3.93646,1.05477"
       id="path3384-8-4-3-8"
       inkscape:connector-curvature="0" />
    <path
       style="fill:none;fill-rule:evenodd;stroke:#3c3c3c;stroke-width:4;stroke-linecap:butt;stroke-linejoin:miter;stroke-miterlimit:4;stroke-dasharray:none;stroke-opacity:1"
       d="M 569.67885,823.3302 332.32446,759.73128"
       id="path3378-2-5-9-6"
       inkscape:connector-curvature="0"
       sodipodi:nodetypes="cc" />
    <path
       style="fill:none;fill-rule:evenodd;stroke:#3c3c3c;stroke-width:4;stroke-linecap:butt;stroke-linejoin:miter;stroke-miterlimit:4;stroke-dasharray:none;stroke-opacity:1"
       d="m -124.60743,971.17602 -3.93646,1.05477"
       id="path3380-4-3-3-2"
       inkscape:connector-curvature="0" />
    <path
       style="fill:none;fill-rule:evenodd;stroke:#3c3c3c;stroke-width:4;stroke-linecap:butt;stroke-linejoin:miter;stroke-miterlimit:4;stroke-dasharray:none;stroke-opacity:1"
       d="m -132.48035,973.28556 -3.93646,1.05477"
       id="path3382-2-0-5-02"
       inkscape:connector-curvature="0" />
    <path
       style="fill:none;fill-rule:evenodd;stroke:#3c3c3c;stroke-width:4;stroke-linecap:butt;stroke-linejoin:miter;stroke-miterlimit:4;stroke-dasharray:none;stroke-opacity:1"
       d="m -140.35328,975.39511 -3.93646,1.05477"
       id="path3384-8-4-3-7"
       inkscape:connector-curvature="0" />
    <path
       style="fill:none;fill-rule:evenodd;stroke:#3c3c3c;stroke-width:4;stroke-linecap:butt;stroke-linejoin:miter;stroke-miterlimit:4;stroke-dasharray:none;stroke-opacity:1"
       d="M -119.63605,969.84394 117.71834,906.24502"
       id="path3378-2-5-9-9"
       inkscape:connector-curvature="0"
       sodipodi:nodetypes="cc" />
    <path
       style="fill:none;fill-rule:evenodd;stroke:#3c3c3c;stroke-width:4;stroke-linecap:butt;stroke-linejoin:miter;stroke-miterlimit:4;stroke-dasharray:none;stroke-opacity:1"
       d="m 733.03603,971.17601 3.93646,1.05477"
       id="path3380-4-3-3-0-3"
       inkscape:connector-curvature="0" />
    <path
       style="fill:none;fill-rule:evenodd;stroke:#3c3c3c;stroke-width:4;stroke-linecap:butt;stroke-linejoin:miter;stroke-miterlimit:4;stroke-dasharray:none;stroke-opacity:1"
       d="m 740.90895,973.28555 3.93646,1.05477"
       id="path3382-2-0-5-0-9"
       inkscape:connector-curvature="0" />
    <path
       style="fill:none;fill-rule:evenodd;stroke:#3c3c3c;stroke-width:4;stroke-linecap:butt;stroke-linejoin:miter;stroke-miterlimit:4;stroke-dasharray:none;stroke-opacity:1"
       d="m 748.78188,975.3951 3.93646,1.05477"
       id="path3384-8-4-3-8-4"
       inkscape:connector-curvature="0" />
    <path
       style="fill:none;fill-rule:evenodd;stroke:#3c3c3c;stroke-width:4;stroke-linecap:butt;stroke-linejoin:miter;stroke-miterlimit:4;stroke-dasharray:none;stroke-opacity:1"
       d="M 728.06465,969.84393 490.71026,906.24501"
       id="path3378-2-5-9-6-7"
       inkscape:connector-curvature="0"
       sodipodi:nodetypes="cc" />
    <path
       style="fill:none;fill-rule:evenodd;stroke:#3c3c3c;stroke-width:4;stroke-linecap:butt;stroke-linejoin:miter;stroke-miterlimit:4;stroke-dasharray:none;stroke-opacity:1"
       d="m 312.68833,698.84744 0,-27.16823 403.38286,0"
       id="path3378-2-4-4"
       inkscape:connector-curvature="0"
       sodipodi:nodetypes="ccc" />
    <path
       sodipodi:nodetypes="ccccccccccccccccccccccccc"
       style="fill:#3c3c3c;fill-opacity:1;stroke-width:0.2;stroke-linejoin:round"
       inkscape:connector-curvature="0"
       d="m 731.18657,663.94293 70.32488,0 0,16.65589 -70.32488,0 z m 66.62357,3.70131 -3.70131,0 0,9.25327 3.70131,0 z m -7.40262,0 -3.70131,0 0,9.25327 3.70131,0 z m -7.40262,0 -3.70131,0 0,9.25327 3.70131,0 z m -48.11702,5.55196 0,3.70131 3.70131,0 0,-3.70131 z"
       id="path3344-3-4" />
    <path
       sodipodi:nodetypes="cc"
       inkscape:connector-curvature="0"
       id="path3378-2-4-4-3"
       d="m 811.66565,671.65202 127.6914,0"
       style="fill:none;fill-rule:evenodd;stroke:#3c3c3c;stroke-width:4;stroke-linecap:butt;stroke-linejoin:miter;stroke-miterlimit:4;stroke-dasharray:none;stroke-opacity:1" />
    <path
       sodipodi:nodetypes="cc"
       inkscape:connector-curvature="0"
       id="path3378-2-4-4-3-9"
       d="M 812.18329,656.86178 935.52371,623.81282"
       style="fill:none;fill-rule:evenodd;stroke:#3c3c3c;stroke-width:4;stroke-linecap:butt;stroke-linejoin:miter;stroke-miterlimit:4;stroke-dasharray:none;stroke-opacity:1" />
    <path
       sodipodi:nodetypes="cc"
       inkscape:connector-curvature="0"
       id="path3378-2-4-4-3-9-1"
       d="m 812.18329,686.44227 123.34042,33.04896"
       style="fill:none;fill-rule:evenodd;stroke:#3c3c3c;stroke-width:4;stroke-linecap:butt;stroke-linejoin:miter;stroke-miterlimit:4;stroke-dasharray:none;stroke-opacity:1" />
    <text
       xml:space="preserve"
       style="font-style:normal;font-weight:normal;font-size:19.35594559px;line-height:125%;font-family:sans-serif;letter-spacing:0px;word-spacing:0px;fill:#3c3c3c;fill-opacity:1;stroke:none;stroke-width:1px;stroke-linecap:butt;stroke-linejoin:miter;stroke-opacity:1"
       x="734.0119"
       y="697.12885"
       id="text3544-6-4-6"
       sodipodi:linespacing="125%"><tspan
         sodipodi:role="line"
         id="tspan3546-5-7-18"
         x="734.0119"
         y="697.12885"
         style="font-style:normal;font-variant:normal;font-weight:normal;font-stretch:normal;font-family:Calibri;-inkscape-font-specification:Calibri;fill:#3c3c3c;fill-opacity:1">Routeur</tspan></text>
    <text
       sodipodi:linespacing="125%"
       id="text3544-5-6"
       y="1156.9167"
       x="163.15965"
       style="font-style:normal;font-weight:normal;font-size:27.65934753px;line-height:125%;font-family:sans-serif;letter-spacing:0px;word-spacing:0px;fill:#3c3c3c;fill-opacity:1;stroke:none;stroke-width:1px;stroke-linecap:butt;stroke-linejoin:miter;stroke-opacity:1"
       xml:space="preserve"><tspan
         style="font-style:normal;font-variant:normal;font-weight:normal;font-stretch:normal;font-family:Calibri;-inkscape-font-specification:Calibri;fill:#3c3c3c;fill-opacity:1"
         y="1156.9167"
         x="163.15965"
         id="tspan3546-3-8"
         sodipodi:role="line">Autonomous System (AS)</tspan></text>
    <text
       sodipodi:linespacing="125%"
       id="text3544-5-6-7"
       y="741.90021"
       x="816.14545"
       style="font-style:normal;font-weight:normal;font-size:27.65934753px;line-height:125%;font-family:sans-serif;letter-spacing:0px;word-spacing:0px;fill:#3c3c3c;fill-opacity:1;stroke:none;stroke-width:1px;stroke-linecap:butt;stroke-linejoin:miter;stroke-opacity:1"
       xml:space="preserve"><tspan
         style="font-style:normal;font-variant:normal;font-weight:normal;font-stretch:normal;font-family:Calibri;-inkscape-font-specification:Calibri;fill:#3c3c3c;fill-opacity:1"
         y="741.90021"
         x="816.14545"
         id="tspan3546-3-8-7"
         sodipodi:role="line">eBGP</tspan></text>
    <text
       sodipodi:linespacing="125%"
       id="text3544-5-6-7-4"
       y="741.9137"
       x="662.51062"
       style="font-style:normal;font-weight:normal;font-size:27.65934753px;line-height:125%;font-family:sans-serif;letter-spacing:0px;word-spacing:0px;fill:#3c3c3c;fill-opacity:1;stroke:none;stroke-width:1px;stroke-linecap:butt;stroke-linejoin:miter;stroke-opacity:1"
       xml:space="preserve"><tspan
         style="font-style:normal;font-variant:normal;font-weight:normal;font-stretch:normal;font-family:Calibri;-inkscape-font-specification:Calibri;fill:#3c3c3c;fill-opacity:1"
         y="741.9137"
         x="662.51062"
         id="tspan3546-3-8-7-0"
         sodipodi:role="line">iBGP</tspan></text>
  </g>
</svg>
