<?xml version="1.0" encoding="UTF-8" standalone="no"?>
<!-- Created with Inkscape (http://www.inkscape.org/) -->

<svg
   xmlns:dc="http://purl.org/dc/elements/1.1/"
   xmlns:cc="http://creativecommons.org/ns#"
   xmlns:rdf="http://www.w3.org/1999/02/22-rdf-syntax-ns#"
   xmlns:svg="http://www.w3.org/2000/svg"
   xmlns="http://www.w3.org/2000/svg"
   xmlns:sodipodi="http://sodipodi.sourceforge.net/DTD/sodipodi-0.dtd"
   xmlns:inkscape="http://www.inkscape.org/namespaces/inkscape"
   width="122.27396mm"
   height="62.681286mm"
   viewBox="0 0 433.25417 222.09904"
   id="svg2"
   version="1.1"
   inkscape:version="0.91 r13725"
   sodipodi:docname="as.svg">
  <defs
     id="defs4">
    <marker
       inkscape:isstock="true"
       style="overflow:visible"
       id="marker4841"
       refX="0"
       refY="0"
       orient="auto"
       inkscape:stockid="TriangleInS">
      <path
         inkscape:connector-curvature="0"
         transform="scale(-0.2,-0.2)"
         style="fill:#3c3cff;fill-opacity:1;fill-rule:evenodd;stroke:#3c3cff;stroke-width:1pt;stroke-opacity:1"
         d="m 5.77,0 -8.65,5 0,-10 8.65,5 z"
         id="path4843" />
    </marker>
    <marker
       inkscape:isstock="true"
       style="overflow:visible"
       id="marker4783"
       refX="0"
       refY="0"
       orient="auto"
       inkscape:stockid="TriangleOutS">
      <path
         inkscape:connector-curvature="0"
         transform="scale(0.2,0.2)"
         style="fill:#3c3cff;fill-opacity:1;fill-rule:evenodd;stroke:#3c3cff;stroke-width:1pt;stroke-opacity:1"
         d="m 5.77,0 -8.65,5 0,-10 8.65,5 z"
         id="path4785" />
    </marker>
    <marker
       inkscape:isstock="true"
       style="overflow:visible"
       id="marker4731"
       refX="0"
       refY="0"
       orient="auto"
       inkscape:stockid="Arrow2Mend">
      <path
         inkscape:connector-curvature="0"
         transform="scale(-0.6,-0.6)"
         d="M 8.7185878,4.0337352 -2.2072895,0.01601326 8.7185884,-4.0017078 c -1.7454984,2.3720609 -1.7354408,5.6174519 -6e-7,8.035443 z"
         style="fill:#3c3cff;fill-opacity:1;fill-rule:evenodd;stroke:#3c3cff;stroke-width:0.625;stroke-linejoin:round;stroke-opacity:1"
         id="path4733" />
    </marker>
    <marker
       inkscape:isstock="true"
       style="overflow:visible"
       id="TriangleInS"
       refX="0"
       refY="0"
       orient="auto"
       inkscape:stockid="TriangleInS">
      <path
         inkscape:connector-curvature="0"
         transform="scale(-0.2,-0.2)"
         style="fill:#ff3c3c;fill-opacity:1;fill-rule:evenodd;stroke:#ff3c3c;stroke-width:1pt;stroke-opacity:1"
         d="m 5.77,0 -8.65,5 0,-10 8.65,5 z"
         id="path4448" />
    </marker>
    <marker
       inkscape:isstock="true"
       style="overflow:visible"
       id="TriangleOutS"
       refX="0"
       refY="0"
       orient="auto"
       inkscape:stockid="TriangleOutS">
      <path
         inkscape:connector-curvature="0"
         transform="scale(0.2,0.2)"
         style="fill:#ff3c3c;fill-opacity:1;fill-rule:evenodd;stroke:#ff3c3c;stroke-width:1pt;stroke-opacity:1"
         d="m 5.77,0 -8.65,5 0,-10 8.65,5 z"
         id="path4457" />
    </marker>
    <marker
       inkscape:isstock="true"
       style="overflow:visible"
       id="DotS"
       refX="0"
       refY="0"
       orient="auto"
       inkscape:stockid="DotS">
      <path
         inkscape:connector-curvature="0"
         transform="matrix(0.2,0,0,0.2,1.48,0.2)"
         style="fill:#ff3c3c;fill-opacity:1;fill-rule:evenodd;stroke:#ff3c3c;stroke-width:1pt;stroke-opacity:1"
         d="m -2.5,-1 c 0,2.76 -2.24,5 -5,5 -2.76,0 -5,-2.24 -5,-5 0,-2.76 2.24,-5 5,-5 2.76,0 5,2.24 5,5 z"
         id="path4376" />
    </marker>
    <marker
       inkscape:isstock="true"
       style="overflow:visible"
       id="Arrow2Mend"
       refX="0"
       refY="0"
       orient="auto"
       inkscape:stockid="Arrow2Mend">
      <path
         inkscape:connector-curvature="0"
         transform="scale(-0.6,-0.6)"
         d="M 8.7185878,4.0337352 -2.2072895,0.01601326 8.7185884,-4.0017078 c -1.7454984,2.3720609 -1.7354408,5.6174519 -6e-7,8.035443 z"
         style="fill:#ff3c3c;fill-opacity:1;fill-rule:evenodd;stroke:#ff3c3c;stroke-width:0.625;stroke-linejoin:round;stroke-opacity:1"
         id="path4336" />
    </marker>
    <marker
       inkscape:isstock="true"
       style="overflow:visible"
       id="Arrow1Lend"
       refX="0"
       refY="0"
       orient="auto"
       inkscape:stockid="Arrow1Lend">
      <path
         inkscape:connector-curvature="0"
         transform="matrix(-0.8,0,0,-0.8,-10,0)"
         style="fill:#ff3c3c;fill-opacity:1;fill-rule:evenodd;stroke:#ff3c3c;stroke-width:1pt;stroke-opacity:1"
         d="M 0,0 5,-5 -12.5,0 5,5 0,0 Z"
         id="path4312" />
    </marker>
  </defs>
  <sodipodi:namedview
     id="base"
     pagecolor="#ffffff"
     bordercolor="#666666"
     borderopacity="1.0"
     inkscape:pageopacity="0.0"
     inkscape:pageshadow="2"
     inkscape:zoom="1"
     inkscape:cx="326.80036"
     inkscape:cy="0.80963579"
     inkscape:document-units="px"
     inkscape:current-layer="layer1"
     showgrid="false"
     fit-margin-top="0"
     fit-margin-left="0"
     fit-margin-right="0"
     fit-margin-bottom="0"
     inkscape:window-width="1920"
     inkscape:window-height="1017"
     inkscape:window-x="1912"
     inkscape:window-y="-8"
     inkscape:window-maximized="1"
     inkscape:snap-bbox="true"
     inkscape:object-paths="true"
     inkscape:object-nodes="true"
     inkscape:snap-global="false"
     showguides="false">
    <inkscape:grid
       type="xygrid"
       id="grid3613"
       originx="183.1828"
       originy="195.81334" />
  </sodipodi:namedview>
  <metadata
     id="metadata7">
    <rdf:RDF>
      <cc:Work
         rdf:about="">
        <dc:format>image/svg+xml</dc:format>
        <dc:type
           rdf:resource="http://purl.org/dc/dcmitype/StillImage" />
        <dc:title></dc:title>
      </cc:Work>
    </rdf:RDF>
  </metadata>
  <g
     inkscape:label="Calque 1"
     inkscape:groupmode="layer"
     id="layer1"
     transform="translate(157.89707,-599.34744)">
    <path
       sodipodi:nodetypes="cssssssssc"
       inkscape:connector-curvature="0"
       id="rect5045"
       d="m 206.22824,640.81151 0,148.41397 c 0,6.83996 -6.13772,12.34649 -13.7617,12.34649 l -335.87203,0 c -7.62397,0 -13.76169,-5.50653 -13.76169,-12.34649 l 0,-176.80161 c 0,-6.83995 6.13772,-12.34648 13.76169,-12.34648 l 335.87203,0 c 7.62398,0 13.7617,5.50653 13.7617,12.34648 l 0,8.39561"
       style="opacity:1;fill:none;fill-opacity:1;fill-rule:evenodd;stroke:#3c3c3c;stroke-width:1.45990789;stroke-linecap:round;stroke-linejoin:round;stroke-miterlimit:4;stroke-dasharray:none;stroke-dashoffset:0;stroke-opacity:1" />
    <path
       sodipodi:nodetypes="ccccccccccccccccccccccccc"
       style="fill:#3c3c3c;fill-opacity:1;stroke-width:0.2;stroke-linejoin:round"
       inkscape:connector-curvature="0"
       d="m 14.030985,644.97321 27.767995,0 0,6.57663 -27.767995,0 z m 26.306521,1.46148 -1.461474,0 0,3.65368 1.461474,0 z m -2.922947,0 -1.461474,0 0,3.65368 1.461474,0 z m -2.922948,0 -1.461473,0 0,3.65368 1.461473,0 z m -18.999153,2.1922 0,1.46148 1.461474,0 0,-1.46148 z"
       id="path3344-3" />
    <text
       xml:space="preserve"
       style="font-style:normal;font-weight:normal;font-size:7.64275455px;line-height:125%;font-family:sans-serif;letter-spacing:0px;word-spacing:0px;fill:#3c3c3c;fill-opacity:1;stroke:none;stroke-width:1px;stroke-linecap:butt;stroke-linejoin:miter;stroke-opacity:1"
       x="15.146579"
       y="658.07581"
       id="text3544-6-4"
       sodipodi:linespacing="125%"><tspan
         sodipodi:role="line"
         id="tspan3546-5-7"
         x="15.146579"
         y="658.07581"
         style="font-style:normal;font-variant:normal;font-weight:normal;font-stretch:normal;font-family:Calibri;-inkscape-font-specification:Calibri;fill:#3c3c3c;fill-opacity:1">Routeur</tspan></text>
    <path
       sodipodi:nodetypes="ccccccccccccccccccccccccc"
       style="fill:#3c3c3c;fill-opacity:1;stroke-width:0.2;stroke-linejoin:round"
       inkscape:connector-curvature="0"
       d="m 81.897367,702.20483 27.767993,0 0,6.57663 -27.767993,0 z m 26.306523,1.46148 -1.46148,0 0,3.65368 1.46148,0 z m -2.92294,0 -1.46148,0 0,3.65368 1.46148,0 z m -2.92296,0 -1.46147,0 0,3.65368 1.46147,0 z m -18.999149,2.19222 0,1.46146 1.461473,0 0,-1.46146 z"
       id="path3344" />
    <text
       xml:space="preserve"
       style="font-style:normal;font-weight:normal;font-size:7.64275455px;line-height:125%;font-family:sans-serif;letter-spacing:0px;word-spacing:0px;fill:#3c3c3c;fill-opacity:1;stroke:none;stroke-width:1px;stroke-linecap:butt;stroke-linejoin:miter;stroke-opacity:1"
       x="83.012962"
       y="715.9729"
       id="text3544-6"
       sodipodi:linespacing="125%"><tspan
         sodipodi:role="line"
         id="tspan3546-5"
         x="83.012962"
         y="715.9729"
         style="font-style:normal;font-variant:normal;font-weight:normal;font-stretch:normal;font-family:Calibri;-inkscape-font-specification:Calibri;fill:#3c3c3c;fill-opacity:1">Routeur</tspan></text>
    <path
       inkscape:connector-curvature="0"
       id="path3-1"
       d="m 73.954502,759.27887 -3.771344,0 0,-1.88567 c 0,-1.04041 -0.843422,-1.88566 -1.885668,-1.88566 l -20.742378,0 c -1.04225,0 -1.885672,0.84525 -1.885672,1.88566 l 0,15.08537 c 0,1.04233 0.843422,1.88566 1.885672,1.88566 l 8.485523,0 -1.885672,3.77136 7.542688,0 -1.885672,-3.77136 6.59987,0 0,3.77136 c 0,1.0423 0.843422,1.88566 1.885657,1.88566 l 5.656996,0 c 1.042318,0 1.885673,-0.8434 1.885673,-1.88566 l 0,-16.97102 c 0,-1.04044 -0.843355,-1.8857 -1.885673,-1.8857 z m -26.39939,11.31404 0,-13.19971 20.742378,0 0,1.88567 c -1.042302,0 -1.885656,0.84526 -1.885656,1.8857 l 0,9.42834 -18.856722,0 z m 23.570884,7.54268 c -0.521143,0 -0.942838,-0.4217 -0.942838,-0.94283 0,-0.52116 0.421695,-0.94283 0.942838,-0.94283 0.521159,0 0.942835,0.42167 0.942835,0.94283 0,0.52113 -0.421676,0.94283 -0.942835,0.94283 z m 0,-3.77136 c -0.521143,0 -0.942838,-0.42166 -0.942838,-0.94283 0,-0.52112 0.421695,-0.94283 0.942838,-0.94283 0.521159,0 0.942835,0.42171 0.942835,0.94283 0,0.52117 -0.421676,0.94283 -0.942835,0.94283 z m 2.828506,-7.54264 -3.771344,0 -1.885668,0 0,-1.8857 5.657012,0 0,1.8857 z m 0,-3.77136 -5.657012,0 0,-1.88566 5.657012,0 0,1.88566 z"
       style="fill:#3c3c3c;fill-opacity:1" />
    <path
       style="fill:none;fill-rule:evenodd;stroke:#3c3c3c;stroke-width:1.57941222;stroke-linecap:butt;stroke-linejoin:miter;stroke-miterlimit:4;stroke-dasharray:none;stroke-opacity:1"
       d="m 57.926306,752.75236 0,-12.87324"
       id="path3392-9"
       inkscape:connector-curvature="0" />
    <path
       inkscape:connector-curvature="0"
       id="path3-7-9"
       d="m 111.51939,759.27887 -3.77134,0 0,-1.88567 c 0,-1.04041 -0.84342,-1.88566 -1.88567,-1.88566 l -20.742373,0 c -1.04225,0 -1.885672,0.84525 -1.885672,1.88566 l 0,15.08537 c 0,1.04233 0.843422,1.88566 1.885672,1.88566 l 8.485524,0 -1.885685,3.77136 7.542682,0 -1.885666,-3.77136 6.599858,0 0,3.77136 c 0,1.0423 0.84342,1.88566 1.88566,1.88566 l 5.65701,0 c 1.0423,0 1.88568,-0.8434 1.88568,-1.88566 l 0,-16.97102 c 0,-1.04044 -0.84338,-1.8857 -1.88568,-1.8857 z m -26.399383,11.31404 0,-13.19971 20.742373,0 0,1.88567 c -1.04229,0 -1.88567,0.84526 -1.88567,1.8857 l 0,9.42834 -18.856703,0 z m 23.570883,7.54268 c -0.52116,0 -0.94284,-0.4217 -0.94284,-0.94283 0,-0.52116 0.42168,-0.94283 0.94284,-0.94283 0.52116,0 0.94284,0.42167 0.94284,0.94283 0,0.52113 -0.42168,0.94283 -0.94284,0.94283 z m 0,-3.77136 c -0.52116,0 -0.94284,-0.42166 -0.94284,-0.94283 0,-0.52112 0.42168,-0.94283 0.94284,-0.94283 0.52116,0 0.94284,0.42171 0.94284,0.94283 0,0.52117 -0.42168,0.94283 -0.94284,0.94283 z m 2.8285,-7.54264 -3.77134,0 -1.88567,0 0,-1.8857 5.65701,0 0,1.8857 z m 0,-3.77136 -5.65701,0 0,-1.88566 5.65701,0 0,1.88566 z"
       style="fill:#3c3c3c;fill-opacity:1" />
    <path
       style="fill:none;fill-rule:evenodd;stroke:#3c3c3c;stroke-width:1.57941222;stroke-linecap:butt;stroke-linejoin:miter;stroke-miterlimit:4;stroke-dasharray:none;stroke-opacity:1"
       d="m 95.491187,752.75236 0,-12.87324"
       id="path3394-5"
       inkscape:connector-curvature="0" />
    <path
       inkscape:connector-curvature="0"
       id="path3-8-0"
       d="m 149.0843,759.27887 -3.77134,0 0,-1.88567 c 0,-1.04041 -0.84343,-1.88566 -1.88567,-1.88566 l -20.74238,0 c -1.04225,0 -1.88568,0.84525 -1.88568,1.88566 l 0,15.08537 c 0,1.04233 0.84343,1.88566 1.88568,1.88566 l 8.48552,0 -1.88567,3.77136 7.54267,0 -1.88566,-3.77136 6.59984,0 0,3.77136 c 0,1.0423 0.84343,1.88566 1.88568,1.88566 l 5.65701,0 c 1.04232,0 1.88567,-0.8434 1.88567,-1.88566 l 0,-16.97102 c 0,-1.04044 -0.84335,-1.8857 -1.88567,-1.8857 z m -26.39939,11.31404 0,-13.19971 20.74238,0 0,1.88567 c -1.0423,0 -1.88568,0.84526 -1.88568,1.8857 l 0,9.42834 -18.8567,0 z m 23.57088,7.54268 c -0.52116,0 -0.94283,-0.4217 -0.94283,-0.94283 0,-0.52116 0.42167,-0.94283 0.94283,-0.94283 0.52116,0 0.94284,0.42167 0.94284,0.94283 0,0.52113 -0.42168,0.94283 -0.94284,0.94283 z m 0,-3.77136 c -0.52116,0 -0.94283,-0.42166 -0.94283,-0.94283 0,-0.52112 0.42167,-0.94283 0.94283,-0.94283 0.52116,0 0.94284,0.42171 0.94284,0.94283 0,0.52117 -0.42168,0.94283 -0.94284,0.94283 z m 2.82851,-7.54264 -3.77134,0 -1.88567,0 0,-1.8857 5.65701,0 0,1.8857 z m 0,-3.77136 -5.65701,0 0,-1.88566 5.65701,0 0,1.88566 z"
       style="fill:#3c3c3c;fill-opacity:1" />
    <path
       style="fill:none;fill-rule:evenodd;stroke:#3c3c3c;stroke-width:1.57941222;stroke-linecap:butt;stroke-linejoin:miter;stroke-miterlimit:4;stroke-dasharray:none;stroke-opacity:1"
       d="m 133.0561,752.75236 0,-12.87324"
       id="path3396-3"
       inkscape:connector-curvature="0" />
    <text
       sodipodi:linespacing="125%"
       id="text3544"
       y="789.1983"
       x="79.082199"
       style="font-style:normal;font-weight:normal;font-size:7.64275455px;line-height:125%;font-family:sans-serif;letter-spacing:0px;word-spacing:0px;fill:#3c3c3c;fill-opacity:1;stroke:none;stroke-width:1px;stroke-linecap:butt;stroke-linejoin:miter;stroke-opacity:1"
       xml:space="preserve"><tspan
         style="font-style:normal;font-variant:normal;font-weight:normal;font-stretch:normal;font-family:Calibri;-inkscape-font-specification:Calibri;fill:#3c3c3c;fill-opacity:1"
         y="789.1983"
         x="79.082199"
         id="tspan3546"
         sodipodi:role="line">Reseau local</tspan></text>
    <path
       style="fill:none;fill-rule:evenodd;stroke:#3c3c3c;stroke-width:1.57941222;stroke-linecap:butt;stroke-linejoin:miter;stroke-miterlimit:4;stroke-dasharray:none;stroke-opacity:1"
       d="m 47.774394,739.87912 -1.609153,0"
       id="path3380-4"
       inkscape:connector-curvature="0" />
    <path
       style="fill:none;fill-rule:evenodd;stroke:#3c3c3c;stroke-width:1.57941222;stroke-linecap:butt;stroke-linejoin:miter;stroke-miterlimit:4;stroke-dasharray:none;stroke-opacity:1"
       d="m 44.556084,739.87912 -1.609153,0"
       id="path3382-2"
       inkscape:connector-curvature="0" />
    <path
       style="fill:none;fill-rule:evenodd;stroke:#3c3c3c;stroke-width:1.57941222;stroke-linecap:butt;stroke-linejoin:miter;stroke-miterlimit:4;stroke-dasharray:none;stroke-opacity:1"
       d="m 41.337776,739.87912 -1.609157,0"
       id="path3384-8"
       inkscape:connector-curvature="0" />
    <path
       style="fill:none;fill-rule:evenodd;stroke:#3c3c3c;stroke-width:1.57941222;stroke-linecap:butt;stroke-linejoin:miter;stroke-miterlimit:4;stroke-dasharray:none;stroke-opacity:1"
       d="m 148.86501,739.87912 1.60916,0"
       id="path3386-8"
       inkscape:connector-curvature="0" />
    <path
       style="fill:none;fill-rule:evenodd;stroke:#3c3c3c;stroke-width:1.57941222;stroke-linecap:butt;stroke-linejoin:miter;stroke-miterlimit:4;stroke-dasharray:none;stroke-opacity:1"
       d="m 152.08333,739.87912 1.60915,0"
       id="path3388-7"
       inkscape:connector-curvature="0" />
    <path
       style="fill:none;fill-rule:evenodd;stroke:#3c3c3c;stroke-width:1.57941222;stroke-linecap:butt;stroke-linejoin:miter;stroke-miterlimit:4;stroke-dasharray:none;stroke-opacity:1"
       d="m 155.30164,739.87912 1.60915,0"
       id="path3390-8"
       inkscape:connector-curvature="0" />
    <path
       style="fill:none;fill-rule:evenodd;stroke:#3c3c3c;stroke-width:1.57941222;stroke-linecap:butt;stroke-linejoin:miter;stroke-miterlimit:4;stroke-dasharray:none;stroke-opacity:1"
       d="m 49.806603,739.87912 97.026197,0"
       id="path3378-2"
       inkscape:connector-curvature="0"
       sodipodi:nodetypes="cc" />
    <path
       style="fill:none;fill-rule:evenodd;stroke:#3c3c3c;stroke-width:1.57941222;stroke-linecap:butt;stroke-linejoin:miter;stroke-miterlimit:4;stroke-dasharray:none;stroke-opacity:1"
       d="m 95.441036,740.71323 0,-20.58877"
       id="path3378-2-4"
       inkscape:connector-curvature="0"
       sodipodi:nodetypes="cc" />
    <path
       sodipodi:nodetypes="ccccccccccccccccccccccccc"
       style="fill:#3c3c3c;fill-opacity:1;stroke-width:0.2;stroke-linejoin:round"
       inkscape:connector-curvature="0"
       d="m -63.353816,702.20483 27.767995,0 0,6.57663 -27.767995,0 z m 26.30652,1.46148 -1.461473,0 0,3.65368 1.461473,0 z m -2.922946,0 -1.461475,0 0,3.65368 1.461475,0 z m -2.922948,0 -1.461473,0 0,3.65368 1.461473,0 z m -18.999153,2.19222 0,1.46146 1.461473,0 0,-1.46146 z"
       id="path3344-1" />
    <text
       xml:space="preserve"
       style="font-style:normal;font-weight:normal;font-size:7.64275455px;line-height:125%;font-family:sans-serif;letter-spacing:0px;word-spacing:0px;fill:#3c3c3c;fill-opacity:1;stroke:none;stroke-width:1px;stroke-linecap:butt;stroke-linejoin:miter;stroke-opacity:1"
       x="-62.23822"
       y="715.9729"
       id="text3544-6-9"
       sodipodi:linespacing="125%"><tspan
         sodipodi:role="line"
         id="tspan3546-5-9"
         x="-62.23822"
         y="715.9729"
         style="font-style:normal;font-variant:normal;font-weight:normal;font-stretch:normal;font-family:Calibri;-inkscape-font-specification:Calibri;fill:#3c3c3c;fill-opacity:1">Routeur</tspan></text>
    <path
       inkscape:connector-curvature="0"
       id="path3-1-3"
       d="m -66.854939,759.27887 -3.771344,0 0,-1.88567 c 0,-1.04041 -0.843423,-1.88566 -1.885669,-1.88566 l -20.742378,0 c -1.04225,0 -1.885672,0.84525 -1.885672,1.88566 l 0,15.08537 c 0,1.04233 0.843422,1.88566 1.885672,1.88566 l 8.485523,0 -1.885672,3.77136 7.542689,0 -1.885673,-3.77136 6.59987,0 0,3.77136 c 0,1.0423 0.843423,1.88566 1.885657,1.88566 l 5.656997,0 c 1.042318,0 1.885672,-0.8434 1.885672,-1.88566 l 0,-16.97102 c 0,-1.04044 -0.843354,-1.8857 -1.885672,-1.8857 z m -26.399391,11.31404 0,-13.19971 20.742378,0 0,1.88567 c -1.042302,0 -1.885656,0.84526 -1.885656,1.8857 l 0,9.42834 -18.856722,0 z m 23.570884,7.54268 c -0.521142,0 -0.942837,-0.4217 -0.942837,-0.94283 0,-0.52116 0.421695,-0.94283 0.942837,-0.94283 0.521159,0 0.942834,0.42167 0.942834,0.94283 0,0.52113 -0.421675,0.94283 -0.942834,0.94283 z m 0,-3.77136 c -0.521142,0 -0.942837,-0.42166 -0.942837,-0.94283 0,-0.52112 0.421695,-0.94283 0.942837,-0.94283 0.521159,0 0.942834,0.42171 0.942834,0.94283 0,0.52117 -0.421675,0.94283 -0.942834,0.94283 z m 2.828507,-7.54264 -3.771344,0 -1.885669,0 0,-1.8857 5.657013,0 0,1.8857 z m 0,-3.77136 -5.657013,0 0,-1.88566 5.657013,0 0,1.88566 z"
       style="fill:#3c3c3c;fill-opacity:1" />
    <path
       style="fill:none;fill-rule:evenodd;stroke:#3c3c3c;stroke-width:1.57941222;stroke-linecap:butt;stroke-linejoin:miter;stroke-miterlimit:4;stroke-dasharray:none;stroke-opacity:1"
       d="m -82.883135,752.75236 0,-12.87324"
       id="path3392-9-7"
       inkscape:connector-curvature="0" />
    <path
       inkscape:connector-curvature="0"
       id="path3-7-9-8"
       d="m -29.290043,759.27887 -3.771345,0 0,-1.88567 c 0,-1.04041 -0.843422,-1.88566 -1.885672,-1.88566 l -20.742374,0 c -1.04225,0 -1.885673,0.84525 -1.885673,1.88566 l 0,15.08537 c 0,1.04233 0.843423,1.88566 1.885673,1.88566 l 8.485522,0 -1.885688,3.77136 7.542689,0 -1.885672,-3.77136 6.599866,0 0,3.77136 c 0,1.0423 0.843423,1.88566 1.885657,1.88566 l 5.657017,0 c 1.042297,0 1.885672,-0.8434 1.885672,-1.88566 l 0,-16.97102 c 0,-1.04044 -0.843375,-1.8857 -1.885672,-1.8857 z m -26.399391,11.31404 0,-13.19971 20.742374,0 0,1.88567 c -1.042298,0 -1.885672,0.84526 -1.885672,1.8857 l 0,9.42834 -18.856702,0 z m 23.570884,7.54268 c -0.521159,0 -0.942838,-0.4217 -0.942838,-0.94283 0,-0.52116 0.421679,-0.94283 0.942838,-0.94283 0.521155,0 0.942834,0.42167 0.942834,0.94283 0,0.52113 -0.421679,0.94283 -0.942834,0.94283 z m 0,-3.77136 c -0.521159,0 -0.942838,-0.42166 -0.942838,-0.94283 0,-0.52112 0.421679,-0.94283 0.942838,-0.94283 0.521155,0 0.942834,0.42171 0.942834,0.94283 0,0.52117 -0.421679,0.94283 -0.942834,0.94283 z m 2.828507,-7.54264 -3.771345,0 -1.885672,0 0,-1.8857 5.657017,0 0,1.8857 z m 0,-3.77136 -5.657017,0 0,-1.88566 5.657017,0 0,1.88566 z"
       style="fill:#3c3c3c;fill-opacity:1" />
    <path
       style="fill:none;fill-rule:evenodd;stroke:#3c3c3c;stroke-width:1.57941222;stroke-linecap:butt;stroke-linejoin:miter;stroke-miterlimit:4;stroke-dasharray:none;stroke-opacity:1"
       d="m -45.318255,752.75236 0,-12.87324"
       id="path3394-5-0"
       inkscape:connector-curvature="0" />
    <path
       inkscape:connector-curvature="0"
       id="path3-8-0-3"
       d="m 8.2748563,759.27887 -3.771341,0 0,-1.88567 c 0,-1.04041 -0.8434253,-1.88566 -1.8856718,-1.88566 l -20.7423785,0 c -1.04225,0 -1.885672,0.84525 -1.885672,1.88566 l 0,15.08537 c 0,1.04233 0.843422,1.88566 1.885672,1.88566 l 8.4855233,0 -1.8856723,3.77136 7.542673,0 -1.8856564,-3.77136 6.5998388,0 0,3.77136 c 0,1.0423 0.8434219,1.88566 1.8856721,1.88566 l 5.6570128,0 c 1.042317,0 1.8856727,-0.8434 1.8856727,-1.88566 l 0,-16.97102 c 0,-1.04044 -0.8433557,-1.8857 -1.8856727,-1.8857 z m -26.3993913,11.31404 0,-13.19971 20.7423785,0 0,1.88567 c -1.0422976,0 -1.8856721,0.84526 -1.8856721,1.8857 l 0,9.42834 -18.8567064,0 z m 23.570885,7.54268 c -0.521159,0 -0.9428347,-0.4217 -0.9428347,-0.94283 0,-0.52116 0.4216757,-0.94283 0.9428347,-0.94283 0.5211581,0 0.9428338,0.42167 0.9428338,0.94283 0,0.52113 -0.4216757,0.94283 -0.9428338,0.94283 z m 0,-3.77136 c -0.521159,0 -0.9428347,-0.42166 -0.9428347,-0.94283 0,-0.52112 0.4216757,-0.94283 0.9428347,-0.94283 0.5211581,0 0.9428338,0.42171 0.9428338,0.94283 0,0.52117 -0.4216757,0.94283 -0.9428338,0.94283 z m 2.8285063,-7.54264 -3.771341,0 -1.8856718,0 0,-1.8857 5.6570128,0 0,1.8857 z m 0,-3.77136 -5.6570128,0 0,-1.88566 5.6570128,0 0,1.88566 z"
       style="fill:#3c3c3c;fill-opacity:1" />
    <path
       style="fill:none;fill-rule:evenodd;stroke:#3c3c3c;stroke-width:1.57941222;stroke-linecap:butt;stroke-linejoin:miter;stroke-miterlimit:4;stroke-dasharray:none;stroke-opacity:1"
       d="m -7.7533395,752.75236 0,-12.87324"
       id="path3396-3-6"
       inkscape:connector-curvature="0" />
    <text
       sodipodi:linespacing="125%"
       id="text3544-5"
       y="789.1983"
       x="-61.727238"
       style="font-style:normal;font-weight:normal;font-size:7.64275455px;line-height:125%;font-family:sans-serif;letter-spacing:0px;word-spacing:0px;fill:#3c3c3c;fill-opacity:1;stroke:none;stroke-width:1px;stroke-linecap:butt;stroke-linejoin:miter;stroke-opacity:1"
       xml:space="preserve"><tspan
         style="font-style:normal;font-variant:normal;font-weight:normal;font-stretch:normal;font-family:Calibri;-inkscape-font-specification:Calibri;fill:#3c3c3c;fill-opacity:1"
         y="789.1983"
         x="-61.727238"
         id="tspan3546-3"
         sodipodi:role="line">Reseau local</tspan></text>
    <path
       style="fill:none;fill-rule:evenodd;stroke:#3c3c3c;stroke-width:1.57941222;stroke-linecap:butt;stroke-linejoin:miter;stroke-miterlimit:4;stroke-dasharray:none;stroke-opacity:1"
       d="m -93.035048,739.87912 -1.609153,0"
       id="path3380-4-3"
       inkscape:connector-curvature="0" />
    <path
       style="fill:none;fill-rule:evenodd;stroke:#3c3c3c;stroke-width:1.57941222;stroke-linecap:butt;stroke-linejoin:miter;stroke-miterlimit:4;stroke-dasharray:none;stroke-opacity:1"
       d="m -96.253357,739.87912 -1.609153,0"
       id="path3382-2-0"
       inkscape:connector-curvature="0" />
    <path
       style="fill:none;fill-rule:evenodd;stroke:#3c3c3c;stroke-width:1.57941222;stroke-linecap:butt;stroke-linejoin:miter;stroke-miterlimit:4;stroke-dasharray:none;stroke-opacity:1"
       d="m -99.471666,739.87912 -1.609154,0"
       id="path3384-8-4"
       inkscape:connector-curvature="0" />
    <path
       style="fill:none;fill-rule:evenodd;stroke:#3c3c3c;stroke-width:1.57941222;stroke-linecap:butt;stroke-linejoin:miter;stroke-miterlimit:4;stroke-dasharray:none;stroke-opacity:1"
       d="m 8.0555747,739.87912 1.6091567,0"
       id="path3386-8-8"
       inkscape:connector-curvature="0" />
    <path
       style="fill:none;fill-rule:evenodd;stroke:#3c3c3c;stroke-width:1.57941222;stroke-linecap:butt;stroke-linejoin:miter;stroke-miterlimit:4;stroke-dasharray:none;stroke-opacity:1"
       d="m 11.273883,739.87912 1.609157,0"
       id="path3388-7-1"
       inkscape:connector-curvature="0" />
    <path
       style="fill:none;fill-rule:evenodd;stroke:#3c3c3c;stroke-width:1.57941222;stroke-linecap:butt;stroke-linejoin:miter;stroke-miterlimit:4;stroke-dasharray:none;stroke-opacity:1"
       d="m 14.492197,739.87912 1.609152,0"
       id="path3390-8-8"
       inkscape:connector-curvature="0" />
    <path
       style="fill:none;fill-rule:evenodd;stroke:#3c3c3c;stroke-width:1.57941222;stroke-linecap:butt;stroke-linejoin:miter;stroke-miterlimit:4;stroke-dasharray:none;stroke-opacity:1"
       d="m -91.002838,739.87912 97.0261987,0"
       id="path3378-2-5"
       inkscape:connector-curvature="0"
       sodipodi:nodetypes="cc" />
    <path
       style="fill:none;fill-rule:evenodd;stroke:#3c3c3c;stroke-width:1.57941222;stroke-linecap:butt;stroke-linejoin:miter;stroke-miterlimit:4;stroke-dasharray:none;stroke-opacity:1"
       d="m -45.368409,740.71323 0,-20.58877"
       id="path3378-2-4-1"
       inkscape:connector-curvature="0"
       sodipodi:nodetypes="cc" />
    <path
       style="fill:none;fill-rule:evenodd;stroke:#3c3c3c;stroke-width:1.57941222;stroke-linecap:butt;stroke-linejoin:miter;stroke-miterlimit:4;stroke-dasharray:none;stroke-opacity:1"
       d="M -49.469819,697.79887 26.966308,663.0316"
       id="path3378-2-4-1-6"
       inkscape:connector-curvature="0"
       sodipodi:nodetypes="cc" />
    <path
       style="fill:none;fill-rule:evenodd;stroke:#3c3c3c;stroke-width:1.57941222;stroke-linecap:butt;stroke-linejoin:miter;stroke-miterlimit:4;stroke-dasharray:none;stroke-opacity:1"
       d="M 95.781362,697.79887 28.940574,663.0316"
       id="path3378-2-4-1-6-6"
       inkscape:connector-curvature="0"
       sodipodi:nodetypes="cc" />
    <path
       style="fill:none;fill-rule:evenodd;stroke:#3c3c3c;stroke-width:1.57941222;stroke-linecap:butt;stroke-linejoin:miter;stroke-miterlimit:4;stroke-dasharray:none;stroke-opacity:1"
       d="m -75.676197,688.3137 -1.554324,0.41647"
       id="path3380-4-3-3"
       inkscape:connector-curvature="0" />
    <path
       style="fill:none;fill-rule:evenodd;stroke:#3c3c3c;stroke-width:1.57941222;stroke-linecap:butt;stroke-linejoin:miter;stroke-miterlimit:4;stroke-dasharray:none;stroke-opacity:1"
       d="m -78.784848,689.14665 -1.55432,0.41649"
       id="path3382-2-0-5"
       inkscape:connector-curvature="0" />
    <path
       style="fill:none;fill-rule:evenodd;stroke:#3c3c3c;stroke-width:1.57941222;stroke-linecap:butt;stroke-linejoin:miter;stroke-miterlimit:4;stroke-dasharray:none;stroke-opacity:1"
       d="m -81.893495,689.97961 -1.554327,0.41649"
       id="path3384-8-4-3"
       inkscape:connector-curvature="0" />
    <path
       style="fill:none;fill-rule:evenodd;stroke:#3c3c3c;stroke-width:1.57941222;stroke-linecap:butt;stroke-linejoin:miter;stroke-miterlimit:4;stroke-dasharray:none;stroke-opacity:1"
       d="M -73.713236,687.78772 20.006876,662.67549"
       id="path3378-2-5-9"
       inkscape:connector-curvature="0"
       sodipodi:nodetypes="cc" />
    <path
       style="fill:none;fill-rule:evenodd;stroke:#3c3c3c;stroke-width:1.57941222;stroke-linecap:butt;stroke-linejoin:miter;stroke-miterlimit:4;stroke-dasharray:none;stroke-opacity:1"
       d="m 131.35145,688.3137 1.55431,0.41647"
       id="path3380-4-3-3-0"
       inkscape:connector-curvature="0" />
    <path
       style="fill:none;fill-rule:evenodd;stroke:#3c3c3c;stroke-width:1.57941222;stroke-linecap:butt;stroke-linejoin:miter;stroke-miterlimit:4;stroke-dasharray:none;stroke-opacity:1"
       d="m 134.46009,689.14665 1.55432,0.41649"
       id="path3382-2-0-5-0"
       inkscape:connector-curvature="0" />
    <path
       style="fill:none;fill-rule:evenodd;stroke:#3c3c3c;stroke-width:1.57941222;stroke-linecap:butt;stroke-linejoin:miter;stroke-miterlimit:4;stroke-dasharray:none;stroke-opacity:1"
       d="m 137.56874,689.97961 1.55433,0.41649"
       id="path3384-8-4-3-8"
       inkscape:connector-curvature="0" />
    <path
       style="fill:none;fill-rule:evenodd;stroke:#3c3c3c;stroke-width:1.57941222;stroke-linecap:butt;stroke-linejoin:miter;stroke-miterlimit:4;stroke-dasharray:none;stroke-opacity:1"
       d="M 129.38848,687.78772 35.668369,662.67549"
       id="path3378-2-5-9-6"
       inkscape:connector-curvature="0"
       sodipodi:nodetypes="cc" />
    <path
       style="fill:none;fill-rule:evenodd;stroke:#3c3c3c;stroke-width:1.57941222;stroke-linecap:butt;stroke-linejoin:miter;stroke-miterlimit:4;stroke-dasharray:none;stroke-opacity:1"
       d="m -144.75259,746.16509 -1.55433,0.41648"
       id="path3380-4-3-3-2"
       inkscape:connector-curvature="0" />
    <path
       style="fill:none;fill-rule:evenodd;stroke:#3c3c3c;stroke-width:1.57941222;stroke-linecap:butt;stroke-linejoin:miter;stroke-miterlimit:4;stroke-dasharray:none;stroke-opacity:1"
       d="m -147.86124,746.99806 -1.55432,0.41647"
       id="path3382-2-0-5-02"
       inkscape:connector-curvature="0" />
    <path
       style="fill:none;fill-rule:evenodd;stroke:#3c3c3c;stroke-width:1.57941222;stroke-linecap:butt;stroke-linejoin:miter;stroke-miterlimit:4;stroke-dasharray:none;stroke-opacity:1"
       d="m -150.96989,747.83102 -1.55432,0.41647"
       id="path3384-8-4-3-7"
       inkscape:connector-curvature="0" />
    <path
       style="fill:none;fill-rule:evenodd;stroke:#3c3c3c;stroke-width:1.57941222;stroke-linecap:butt;stroke-linejoin:miter;stroke-miterlimit:4;stroke-dasharray:none;stroke-opacity:1"
       d="m -142.78963,745.63912 93.720113,-25.11223"
       id="path3378-2-5-9-9"
       inkscape:connector-curvature="0"
       sodipodi:nodetypes="cc" />
    <path
       style="fill:none;fill-rule:evenodd;stroke:#3c3c3c;stroke-width:1.57941222;stroke-linecap:butt;stroke-linejoin:miter;stroke-miterlimit:4;stroke-dasharray:none;stroke-opacity:1"
       d="m 193.89056,746.16509 1.55432,0.41648"
       id="path3380-4-3-3-0-3"
       inkscape:connector-curvature="0" />
    <path
       style="fill:none;fill-rule:evenodd;stroke:#3c3c3c;stroke-width:1.57941222;stroke-linecap:butt;stroke-linejoin:miter;stroke-miterlimit:4;stroke-dasharray:none;stroke-opacity:1"
       d="m 196.99921,746.99805 1.55432,0.41648"
       id="path3382-2-0-5-0-9"
       inkscape:connector-curvature="0" />
    <path
       style="fill:none;fill-rule:evenodd;stroke:#3c3c3c;stroke-width:1.57941222;stroke-linecap:butt;stroke-linejoin:miter;stroke-miterlimit:4;stroke-dasharray:none;stroke-opacity:1"
       d="m 200.10786,747.83101 1.55433,0.41648"
       id="path3384-8-4-3-8-4"
       inkscape:connector-curvature="0" />
    <path
       style="fill:none;fill-rule:evenodd;stroke:#3c3c3c;stroke-width:1.57941222;stroke-linecap:butt;stroke-linejoin:miter;stroke-miterlimit:4;stroke-dasharray:none;stroke-opacity:1"
       d="M 191.9276,745.63911 98.207486,720.52689"
       id="path3378-2-5-9-6-7"
       inkscape:connector-curvature="0"
       sodipodi:nodetypes="cc" />
    <path
       style="fill:none;fill-rule:evenodd;stroke:#3c3c3c;stroke-width:1.57941222;stroke-linecap:butt;stroke-linejoin:miter;stroke-miterlimit:4;stroke-dasharray:none;stroke-opacity:1"
       d="m 27.914982,638.63532 0,-10.72746 159.276968,0"
       id="path3378-2-4-4"
       inkscape:connector-curvature="0"
       sodipodi:nodetypes="ccc" />
    <path
       sodipodi:nodetypes="ccccccccccccccccccccccccc"
       style="fill:#3c3c3c;fill-opacity:1;stroke-width:0.2;stroke-linejoin:round"
       inkscape:connector-curvature="0"
       d="m 193.1603,624.85317 27.76799,0 0,6.57662 -27.76799,0 z m 26.30652,1.46147 -1.46148,0 0,3.65369 1.46148,0 z m -2.92295,0 -1.46148,0 0,3.65369 1.46148,0 z m -2.92294,0 -1.46148,0 0,3.65369 1.46148,0 z m -18.99916,2.19221 0,1.46148 1.46148,0 0,-1.46148 z"
       id="path3344-3-4" />
    <path
       sodipodi:nodetypes="cc"
       inkscape:connector-curvature="0"
       id="path3378-2-4-4-3"
       d="m 224.93771,627.89713 50.41934,0"
       style="fill:none;fill-rule:evenodd;stroke:#3c3c3c;stroke-width:1.57941222;stroke-linecap:butt;stroke-linejoin:miter;stroke-miterlimit:4;stroke-dasharray:none;stroke-opacity:1" />
    <path
       sodipodi:nodetypes="cc"
       inkscape:connector-curvature="0"
       id="path3378-2-4-4-3-9"
       d="m 225.1421,622.05715 48.70135,-13.04948"
       style="fill:none;fill-rule:evenodd;stroke:#3c3c3c;stroke-width:1.57941222;stroke-linecap:butt;stroke-linejoin:miter;stroke-miterlimit:4;stroke-dasharray:none;stroke-opacity:1" />
    <path
       sodipodi:nodetypes="cc"
       inkscape:connector-curvature="0"
       id="path3378-2-4-4-3-9-1"
       d="m 225.1421,633.7371 48.70135,13.04949"
       style="fill:none;fill-rule:evenodd;stroke:#3c3c3c;stroke-width:1.57941222;stroke-linecap:butt;stroke-linejoin:miter;stroke-miterlimit:4;stroke-dasharray:none;stroke-opacity:1" />
    <text
       xml:space="preserve"
       style="font-style:normal;font-weight:normal;font-size:7.64275455px;line-height:125%;font-family:sans-serif;letter-spacing:0px;word-spacing:0px;fill:#3c3c3c;fill-opacity:1;stroke:none;stroke-width:1px;stroke-linecap:butt;stroke-linejoin:miter;stroke-opacity:1"
       x="194.27588"
       y="637.95673"
       id="text3544-6-4-6"
       sodipodi:linespacing="125%"><tspan
         sodipodi:role="line"
         id="tspan3546-5-7-18"
         x="194.27588"
         y="637.95673"
         style="font-style:normal;font-variant:normal;font-weight:normal;font-stretch:normal;font-family:Calibri;-inkscape-font-specification:Calibri;fill:#3c3c3c;fill-opacity:1">Routeur</tspan></text>
    <text
       sodipodi:linespacing="125%"
       id="text3544-5-6"
       y="819.50537"
       x="-31.126875"
       style="font-style:normal;font-weight:normal;font-size:10.92137814px;line-height:125%;font-family:sans-serif;letter-spacing:0px;word-spacing:0px;fill:#3c3c3c;fill-opacity:1;stroke:none;stroke-width:1px;stroke-linecap:butt;stroke-linejoin:miter;stroke-opacity:1"
       xml:space="preserve"><tspan
         style="font-style:normal;font-variant:normal;font-weight:normal;font-stretch:normal;font-family:Calibri;-inkscape-font-specification:Calibri;fill:#3c3c3c;fill-opacity:1"
         y="819.50537"
         x="-31.126875"
         id="tspan3546-3-8"
         sodipodi:role="line">Autonomous System (AS)</tspan></text>
    <text
       sodipodi:linespacing="125%"
       id="text3544-5-6-7"
       y="655.63483"
       x="226.70657"
       style="font-style:normal;font-weight:normal;font-size:10.92137814px;line-height:125%;font-family:sans-serif;letter-spacing:0px;word-spacing:0px;fill:#3c3c3c;fill-opacity:1;stroke:none;stroke-width:1px;stroke-linecap:butt;stroke-linejoin:miter;stroke-opacity:1"
       xml:space="preserve"><tspan
         style="font-style:normal;font-variant:normal;font-weight:normal;font-stretch:normal;font-family:Calibri;-inkscape-font-specification:Calibri;fill:#3c3c3c;fill-opacity:1"
         y="655.63483"
         x="226.70657"
         id="tspan3546-3-8-7"
         sodipodi:role="line">eBGP</tspan></text>
    <text
       sodipodi:linespacing="125%"
       id="text3544-5-6-7-4"
       y="655.64014"
       x="166.04338"
       style="font-style:normal;font-weight:normal;font-size:10.92137814px;line-height:125%;font-family:sans-serif;letter-spacing:0px;word-spacing:0px;fill:#3c3c3c;fill-opacity:1;stroke:none;stroke-width:1px;stroke-linecap:butt;stroke-linejoin:miter;stroke-opacity:1"
       xml:space="preserve"><tspan
         style="font-style:normal;font-variant:normal;font-weight:normal;font-stretch:normal;font-family:Calibri;-inkscape-font-specification:Calibri;fill:#3c3c3c;fill-opacity:1"
         y="655.64014"
         x="166.04338"
         id="tspan3546-3-8-7-0"
         sodipodi:role="line">iBGP</tspan></text>
  </g>
</svg>
