<?xml version="1.0" encoding="UTF-8" standalone="no"?>
<!-- Created with Inkscape (http://www.inkscape.org/) -->

<svg
   xmlns:dc="http://purl.org/dc/elements/1.1/"
   xmlns:cc="http://creativecommons.org/ns#"
   xmlns:rdf="http://www.w3.org/1999/02/22-rdf-syntax-ns#"
   xmlns:svg="http://www.w3.org/2000/svg"
   xmlns="http://www.w3.org/2000/svg"
   xmlns:sodipodi="http://sodipodi.sourceforge.net/DTD/sodipodi-0.dtd"
   xmlns:inkscape="http://www.inkscape.org/namespaces/inkscape"
   width="75.448334mm"
   height="38.122147mm"
   viewBox="0 0 267.33661 135.07847"
   id="svg2"
   version="1.1"
   inkscape:version="0.91 r13725"
   sodipodi:docname="stopandwait-too-old.svg">
  <defs
     id="defs4">
    <marker
       inkscape:stockid="Arrow2Sstart"
       orient="auto"
       refY="0"
       refX="0"
       id="Arrow2Sstart"
       style="overflow:visible"
       inkscape:isstock="true">
      <path
         id="path4982"
         style="fill:#ff3535;fill-opacity:1;fill-rule:evenodd;stroke:#ff3535;stroke-width:0.625;stroke-linejoin:round;stroke-opacity:1"
         d="M 8.7185878,4.0337352 -2.2072895,0.01601326 8.7185884,-4.0017078 c -1.7454984,2.3720609 -1.7354408,5.6174519 -6e-7,8.035443 z"
         transform="matrix(0.3,0,0,0.3,-0.69,0)"
         inkscape:connector-curvature="0" />
    </marker>
    <marker
       inkscape:stockid="Arrow1Mstart"
       orient="auto"
       refY="0"
       refX="0"
       id="marker5354"
       style="overflow:visible"
       inkscape:isstock="true">
      <path
         id="path4958"
         d="M 0,0 5,-5 -12.5,0 5,5 0,0 Z"
         style="fill:#353535;fill-opacity:1;fill-rule:evenodd;stroke:#353535;stroke-width:1pt;stroke-opacity:1"
         transform="matrix(0.4,0,0,0.4,4,0)"
         inkscape:connector-curvature="0" />
    </marker>
    <marker
       inkscape:stockid="Arrow1Sstart"
       orient="auto"
       refY="0"
       refX="0"
       id="Arrow1Sstart"
       style="overflow:visible"
       inkscape:isstock="true">
      <path
         id="path4964"
         d="M 0,0 5,-5 -12.5,0 5,5 0,0 Z"
         style="fill:#353535;fill-opacity:1;fill-rule:evenodd;stroke:#353535;stroke-width:1pt;stroke-opacity:1"
         transform="matrix(0.2,0,0,0.2,1.2,0)"
         inkscape:connector-curvature="0" />
    </marker>
    <marker
       inkscape:stockid="Arrow2Send"
       orient="auto"
       refY="0"
       refX="0"
       id="marker4642"
       style="overflow:visible"
       inkscape:isstock="true">
      <path
         id="path4644"
         style="fill:#353535;fill-opacity:1;fill-rule:evenodd;stroke:#353535;stroke-width:0.625;stroke-linejoin:round;stroke-opacity:1"
         d="M 8.7185878,4.0337352 -2.2072895,0.01601326 8.7185884,-4.0017078 c -1.7454984,2.3720609 -1.7354408,5.6174519 -6e-7,8.035443 z"
         transform="matrix(-0.3,0,0,-0.3,0.69,0)"
         inkscape:connector-curvature="0" />
    </marker>
    <marker
       inkscape:stockid="Arrow1Send"
       orient="auto"
       refY="0"
       refX="0"
       id="marker4596"
       style="overflow:visible"
       inkscape:isstock="true">
      <path
         id="path4598"
         d="M 0,0 5,-5 -12.5,0 5,5 0,0 Z"
         style="fill:#ff0000;fill-opacity:1;fill-rule:evenodd;stroke:#ff0000;stroke-width:1pt;stroke-opacity:1"
         transform="matrix(-0.2,0,0,-0.2,-1.2,0)"
         inkscape:connector-curvature="0" />
    </marker>
    <marker
       inkscape:stockid="Arrow2Send"
       orient="auto"
       refY="0"
       refX="0"
       id="Arrow2Send"
       style="overflow:visible"
       inkscape:isstock="true">
      <path
         id="path4257"
         style="fill:#ff0000;fill-opacity:1;fill-rule:evenodd;stroke:#ff0000;stroke-width:0.625;stroke-linejoin:round;stroke-opacity:1"
         d="M 8.7185878,4.0337352 -2.2072895,0.01601326 8.7185884,-4.0017078 c -1.7454984,2.3720609 -1.7354408,5.6174519 -6e-7,8.035443 z"
         transform="matrix(-0.3,0,0,-0.3,0.69,0)"
         inkscape:connector-curvature="0" />
    </marker>
    <marker
       inkscape:stockid="DiamondSstart"
       orient="auto"
       refY="0"
       refX="0"
       id="DiamondSstart"
       style="overflow:visible"
       inkscape:isstock="true">
      <path
         id="path4318"
         d="M 0,-7.0710768 -7.0710894,0 0,7.0710589 7.0710462,0 0,-7.0710768 Z"
         style="fill:#ff0000;fill-opacity:1;fill-rule:evenodd;stroke:#ff0000;stroke-width:1pt;stroke-opacity:1"
         transform="matrix(0.2,0,0,0.2,1.2,0)"
         inkscape:connector-curvature="0" />
    </marker>
    <marker
       inkscape:stockid="Arrow1Send"
       orient="auto"
       refY="0"
       refX="0"
       id="Arrow1Send"
       style="overflow:visible"
       inkscape:isstock="true">
      <path
         id="path4239"
         d="M 0,0 5,-5 -12.5,0 5,5 0,0 Z"
         style="fill:#ff0000;fill-opacity:1;fill-rule:evenodd;stroke:#ff0000;stroke-width:1pt;stroke-opacity:1"
         transform="matrix(-0.2,0,0,-0.2,-1.2,0)"
         inkscape:connector-curvature="0" />
    </marker>
    <marker
       inkscape:stockid="Arrow1Mstart"
       orient="auto"
       refY="0"
       refX="0"
       id="Arrow1Mstart"
       style="overflow:visible"
       inkscape:isstock="true">
      <path
         id="path4230"
         d="M 0,0 5,-5 -12.5,0 5,5 0,0 Z"
         style="fill:#ff0000;fill-opacity:1;fill-rule:evenodd;stroke:#ff0000;stroke-width:1pt;stroke-opacity:1"
         transform="matrix(0.4,0,0,0.4,4,0)"
         inkscape:connector-curvature="0" />
    </marker>
    <marker
       inkscape:stockid="Arrow2Send"
       orient="auto"
       refY="0"
       refX="0"
       id="marker4642-9"
       style="overflow:visible"
       inkscape:isstock="true">
      <path
         inkscape:connector-curvature="0"
         id="path4644-2"
         style="fill:#ff0000;fill-opacity:1;fill-rule:evenodd;stroke:#ff0000;stroke-width:0.625;stroke-linejoin:round;stroke-opacity:1"
         d="M 8.7185878,4.0337352 -2.2072895,0.01601326 8.7185884,-4.0017078 c -1.7454984,2.3720609 -1.7354408,5.6174519 -6e-7,8.035443 z"
         transform="matrix(-0.3,0,0,-0.3,0.69,0)" />
    </marker>
    <marker
       inkscape:stockid="Arrow2Send"
       orient="auto"
       refY="0"
       refX="0"
       id="marker4642-9-2"
       style="overflow:visible"
       inkscape:isstock="true">
      <path
         inkscape:connector-curvature="0"
         id="path4644-2-1"
         style="fill:#ff0000;fill-opacity:1;fill-rule:evenodd;stroke:#ff0000;stroke-width:0.625;stroke-linejoin:round;stroke-opacity:1"
         d="M 8.7185878,4.0337352 -2.2072895,0.01601326 8.7185884,-4.0017078 c -1.7454984,2.3720609 -1.7354408,5.6174519 -6e-7,8.035443 z"
         transform="matrix(-0.3,0,0,-0.3,0.69,0)" />
    </marker>
    <marker
       inkscape:stockid="Arrow2Send"
       orient="auto"
       refY="0"
       refX="0"
       id="marker4642-9-8"
       style="overflow:visible"
       inkscape:isstock="true">
      <path
         inkscape:connector-curvature="0"
         id="path4644-2-4"
         style="fill:#ff0000;fill-opacity:1;fill-rule:evenodd;stroke:#ff0000;stroke-width:0.625;stroke-linejoin:round;stroke-opacity:1"
         d="M 8.7185878,4.0337352 -2.2072895,0.01601326 8.7185884,-4.0017078 c -1.7454984,2.3720609 -1.7354408,5.6174519 -6e-7,8.035443 z"
         transform="matrix(-0.3,0,0,-0.3,0.69,0)" />
    </marker>
    <marker
       inkscape:stockid="Arrow2Send"
       orient="auto"
       refY="0"
       refX="0"
       id="marker4642-4"
       style="overflow:visible"
       inkscape:isstock="true">
      <path
         id="path4644-3"
         style="fill:#353535;fill-opacity:1;fill-rule:evenodd;stroke:#353535;stroke-width:0.625;stroke-linejoin:round;stroke-opacity:1"
         d="M 8.7185878,4.0337352 -2.2072895,0.01601326 8.7185884,-4.0017078 c -1.7454984,2.3720609 -1.7354408,5.6174519 -6e-7,8.035443 z"
         transform="matrix(-0.3,0,0,-0.3,0.69,0)"
         inkscape:connector-curvature="0" />
    </marker>
    <marker
       inkscape:stockid="Arrow2Send"
       orient="auto"
       refY="0"
       refX="0"
       id="marker4642-0"
       style="overflow:visible"
       inkscape:isstock="true">
      <path
         id="path4644-4"
         style="fill:#353535;fill-opacity:1;fill-rule:evenodd;stroke:#353535;stroke-width:0.625;stroke-linejoin:round;stroke-opacity:1"
         d="M 8.7185878,4.0337352 -2.2072895,0.01601326 8.7185884,-4.0017078 c -1.7454984,2.3720609 -1.7354408,5.6174519 -6e-7,8.035443 z"
         transform="matrix(-0.3,0,0,-0.3,0.69,0)"
         inkscape:connector-curvature="0" />
    </marker>
    <marker
       inkscape:stockid="Arrow2Send"
       orient="auto"
       refY="0"
       refX="0"
       id="marker4642-6"
       style="overflow:visible"
       inkscape:isstock="true">
      <path
         id="path4644-5"
         style="fill:#353535;fill-opacity:1;fill-rule:evenodd;stroke:#353535;stroke-width:0.625;stroke-linejoin:round;stroke-opacity:1"
         d="M 8.7185878,4.0337352 -2.2072895,0.01601326 8.7185884,-4.0017078 c -1.7454984,2.3720609 -1.7354408,5.6174519 -6e-7,8.035443 z"
         transform="matrix(-0.3,0,0,-0.3,0.69,0)"
         inkscape:connector-curvature="0" />
    </marker>
    <marker
       inkscape:stockid="Arrow2Send"
       orient="auto"
       refY="0"
       refX="0"
       id="marker4642-0-9"
       style="overflow:visible"
       inkscape:isstock="true">
      <path
         id="path4644-4-8"
         style="fill:#353535;fill-opacity:1;fill-rule:evenodd;stroke:#353535;stroke-width:0.625;stroke-linejoin:round;stroke-opacity:1"
         d="M 8.7185878,4.0337352 -2.2072895,0.01601326 8.7185884,-4.0017078 c -1.7454984,2.3720609 -1.7354408,5.6174519 -6e-7,8.035443 z"
         transform="matrix(-0.3,0,0,-0.3,0.69,0)"
         inkscape:connector-curvature="0" />
    </marker>
    <marker
       inkscape:stockid="Arrow2Send"
       orient="auto"
       refY="0"
       refX="0"
       id="marker4642-6-9"
       style="overflow:visible"
       inkscape:isstock="true">
      <path
         id="path4644-5-5"
         style="fill:#353535;fill-opacity:1;fill-rule:evenodd;stroke:#353535;stroke-width:0.625;stroke-linejoin:round;stroke-opacity:1"
         d="M 8.7185878,4.0337352 -2.2072895,0.01601326 8.7185884,-4.0017078 c -1.7454984,2.3720609 -1.7354408,5.6174519 -6e-7,8.035443 z"
         transform="matrix(-0.3,0,0,-0.3,0.69,0)"
         inkscape:connector-curvature="0" />
    </marker>
    <marker
       inkscape:stockid="Arrow2Send"
       orient="auto"
       refY="0"
       refX="0"
       id="marker4642-7"
       style="overflow:visible"
       inkscape:isstock="true">
      <path
         id="path4644-1"
         style="fill:#353535;fill-opacity:1;fill-rule:evenodd;stroke:#353535;stroke-width:0.625;stroke-linejoin:round;stroke-opacity:1"
         d="M 8.7185878,4.0337352 -2.2072895,0.01601326 8.7185884,-4.0017078 c -1.7454984,2.3720609 -1.7354408,5.6174519 -6e-7,8.035443 z"
         transform="matrix(-0.3,0,0,-0.3,0.69,0)"
         inkscape:connector-curvature="0" />
    </marker>
    <marker
       inkscape:stockid="Arrow2Send"
       orient="auto"
       refY="0"
       refX="0"
       id="marker4642-0-3"
       style="overflow:visible"
       inkscape:isstock="true">
      <path
         id="path4644-4-4"
         style="fill:#353535;fill-opacity:1;fill-rule:evenodd;stroke:#353535;stroke-width:0.625;stroke-linejoin:round;stroke-opacity:1"
         d="M 8.7185878,4.0337352 -2.2072895,0.01601326 8.7185884,-4.0017078 c -1.7454984,2.3720609 -1.7354408,5.6174519 -6e-7,8.035443 z"
         transform="matrix(-0.3,0,0,-0.3,0.69,0)"
         inkscape:connector-curvature="0" />
    </marker>
    <marker
       inkscape:stockid="Arrow2Send"
       orient="auto"
       refY="0"
       refX="0"
       id="marker4642-8"
       style="overflow:visible"
       inkscape:isstock="true">
      <path
         id="path4644-9"
         style="fill:#353535;fill-opacity:1;fill-rule:evenodd;stroke:#353535;stroke-width:0.625;stroke-linejoin:round;stroke-opacity:1"
         d="M 8.7185878,4.0337352 -2.2072895,0.01601326 8.7185884,-4.0017078 c -1.7454984,2.3720609 -1.7354408,5.6174519 -6e-7,8.035443 z"
         transform="matrix(-0.3,0,0,-0.3,0.69,0)"
         inkscape:connector-curvature="0" />
    </marker>
    <marker
       inkscape:stockid="Arrow2Send"
       orient="auto"
       refY="0"
       refX="0"
       id="marker4642-6-9-8"
       style="overflow:visible"
       inkscape:isstock="true">
      <path
         id="path4644-5-5-7"
         style="fill:#353535;fill-opacity:1;fill-rule:evenodd;stroke:#353535;stroke-width:0.625;stroke-linejoin:round;stroke-opacity:1"
         d="M 8.7185878,4.0337352 -2.2072895,0.01601326 8.7185884,-4.0017078 c -1.7454984,2.3720609 -1.7354408,5.6174519 -6e-7,8.035443 z"
         transform="matrix(-0.3,0,0,-0.3,0.69,0)"
         inkscape:connector-curvature="0" />
    </marker>
    <marker
       inkscape:stockid="Arrow2Send"
       orient="auto"
       refY="0"
       refX="0"
       id="marker4642-72"
       style="overflow:visible"
       inkscape:isstock="true">
      <path
         id="path4644-7"
         style="fill:#353535;fill-opacity:1;fill-rule:evenodd;stroke:#353535;stroke-width:0.625;stroke-linejoin:round;stroke-opacity:1"
         d="M 8.7185878,4.0337352 -2.2072895,0.01601326 8.7185884,-4.0017078 c -1.7454984,2.3720609 -1.7354408,5.6174519 -6e-7,8.035443 z"
         transform="matrix(-0.3,0,0,-0.3,0.69,0)"
         inkscape:connector-curvature="0" />
    </marker>
    <marker
       inkscape:stockid="Arrow2Send"
       orient="auto"
       refY="0"
       refX="0"
       id="marker4642-2"
       style="overflow:visible"
       inkscape:isstock="true">
      <path
         id="path4644-48"
         style="fill:#ff3535;fill-opacity:1;fill-rule:evenodd;stroke:#ff3535;stroke-width:0.625;stroke-linejoin:round;stroke-opacity:1"
         d="M 8.7185878,4.0337352 -2.2072895,0.01601326 8.7185884,-4.0017078 c -1.7454984,2.3720609 -1.7354408,5.6174519 -6e-7,8.035443 z"
         transform="matrix(-0.3,0,0,-0.3,0.69,0)"
         inkscape:connector-curvature="0" />
    </marker>
  </defs>
  <sodipodi:namedview
     id="base"
     pagecolor="#ffffff"
     bordercolor="#666666"
     borderopacity="1.0"
     inkscape:pageopacity="0.0"
     inkscape:pageshadow="2"
     inkscape:zoom="1.4142136"
     inkscape:cx="161.71545"
     inkscape:cy="12.132487"
     inkscape:document-units="px"
     inkscape:current-layer="layer1"
     showgrid="false"
     inkscape:showpageshadow="false"
     borderlayer="true"
     fit-margin-top="1"
     fit-margin-left="1"
     fit-margin-right="1"
     fit-margin-bottom="1"
     inkscape:window-width="1920"
     inkscape:window-height="1017"
     inkscape:window-x="-8"
     inkscape:window-y="-8"
     inkscape:window-maximized="1"
     inkscape:snap-bbox="true"
     inkscape:bbox-paths="true"
     inkscape:bbox-nodes="true"
     inkscape:snap-bbox-edge-midpoints="true"
     inkscape:snap-bbox-midpoints="true"
     inkscape:object-nodes="true"
     inkscape:snap-smooth-nodes="true"
     inkscape:object-paths="true"
     inkscape:snap-intersection-paths="true"
     inkscape:snap-global="true"
     showborder="true">
    <inkscape:grid
       type="xygrid"
       id="grid3365"
       originx="-46.206678"
       originy="-201.4567" />
  </sodipodi:namedview>
  <metadata
     id="metadata7">
    <rdf:RDF>
      <cc:Work
         rdf:about="">
        <dc:format>image/svg+xml</dc:format>
        <dc:type
           rdf:resource="http://purl.org/dc/dcmitype/StillImage" />
        <dc:title></dc:title>
      </cc:Work>
    </rdf:RDF>
  </metadata>
  <g
     inkscape:label="Calque 1"
     inkscape:groupmode="layer"
     id="layer1"
     transform="translate(-238.93906,-377.13223)">
    <path
       style="fill:none;fill-rule:evenodd;stroke:#353535;stroke-width:4.26639223;stroke-linecap:butt;stroke-linejoin:miter;stroke-miterlimit:4;stroke-dasharray:none;stroke-opacity:1;marker-end:url(#marker4642)"
       d="m 244.61556,389.20832 247.45075,42.66392"
       id="path3409"
       inkscape:connector-curvature="0"
       sodipodi:nodetypes="cc" />
    <path
       style="fill:none;fill-rule:evenodd;stroke:#353535;stroke-width:4.26639223;stroke-linecap:butt;stroke-linejoin:miter;stroke-miterlimit:4;stroke-dasharray:none;stroke-opacity:1"
       d="m 244.61556,380.67554 8e-5,127.99185"
       id="path4475"
       inkscape:connector-curvature="0"
       sodipodi:nodetypes="cc" />
    <path
       style="fill:none;fill-rule:evenodd;stroke:#353535;stroke-width:4.26639223;stroke-linecap:butt;stroke-linejoin:miter;stroke-miterlimit:4;stroke-dasharray:none;stroke-opacity:1"
       d="m 500.59909,380.67554 9e-5,127.99185"
       id="path4475-2"
       inkscape:connector-curvature="0"
       sodipodi:nodetypes="cc" />
    <path
       style="fill:none;fill-rule:evenodd;stroke:#353535;stroke-width:4.26639223;stroke-linecap:butt;stroke-linejoin:miter;stroke-miterlimit:4;stroke-dasharray:none;stroke-opacity:1;marker-end:url(#marker4642-6)"
       d="M 500.59909,448.93781 253.14826,491.60173"
       id="path3409-2"
       inkscape:connector-curvature="0"
       sodipodi:nodetypes="cc" />
    <g
       style="font-style:normal;font-variant:normal;font-weight:normal;font-stretch:normal;font-size:1.46181679px;line-height:101.99999809%;font-family:Courier;-inkscape-font-specification:Courier;letter-spacing:0px;word-spacing:0px;fill:#353535;fill-opacity:1;stroke:none;stroke-width:1px;stroke-linecap:butt;stroke-linejoin:miter;stroke-opacity:1"
       id="text4594-8-92-0-7"
       transform="matrix(8.5327845,0,0,8.5327845,-1826.5674,-3831.6818)">
      <path
         d="m 265.69454,502.19879 -0.15061,0 -0.10421,-0.29622 -0.45967,0 -0.10422,0.29622 -0.14347,0 0.38687,-1.06281 0.18844,0 0.38687,1.06281 z m -0.29836,-0.41756 -0.1863,-0.52177 -0.18701,0.52177 0.37331,0 z"
         id="path3419"
         inkscape:connector-curvature="0" />
      <path
         d="m 266.67669,502.1217 q -0.0392,0.0171 -0.0714,0.0321 -0.0314,0.015 -0.0828,0.0314 -0.0435,0.0136 -0.0949,0.0228 -0.0507,0.01 -0.11207,0.01 -0.11563,0 -0.21056,-0.0321 -0.0942,-0.0328 -0.16417,-0.10207 -0.0685,-0.0678 -0.10707,-0.17202 -0.0385,-0.10492 -0.0385,-0.2434 0,-0.13133 0.0371,-0.23483 0.0371,-0.1035 0.10706,-0.17487 0.0678,-0.0692 0.16346,-0.10564 0.0964,-0.0364 0.21342,-0.0364 0.0856,0 0.17059,0.0207 0.0856,0.0207 0.18986,0.0728 l 0,0.16774 -0.0107,0 q -0.0878,-0.0735 -0.17416,-0.10707 -0.0864,-0.0335 -0.18487,-0.0335 -0.0807,0 -0.14561,0.0264 -0.0642,0.0257 -0.11492,0.0807 -0.0492,0.0535 -0.0771,0.13562 -0.0271,0.0814 -0.0271,0.18843 0,0.11207 0.03,0.19272 0.0307,0.0807 0.0785,0.13134 0.05,0.0528 0.11635,0.0785 0.0671,0.025 0.14133,0.025 0.10207,0 0.19129,-0.035 0.0892,-0.035 0.16702,-0.10492 l 0.01,0 0,0.16559 z"
         id="path3421"
         inkscape:connector-curvature="0" />
      <path
         d="m 267.73237,502.19879 -0.18344,0 -0.42041,-0.47323 -0.10564,0.11277 0,0.36046 -0.14133,0 0,-1.06281 0.14133,0 0,0.5546 0.51606,-0.5546 0.17131,0 -0.47467,0.49964 0.49679,0.56317 z"
         id="path3423"
         inkscape:connector-curvature="0" />
    </g>
    <g
       style="font-style:normal;font-variant:normal;font-weight:normal;font-stretch:normal;font-size:1.46181679px;line-height:101.99999809%;font-family:Courier;-inkscape-font-specification:Courier;letter-spacing:0px;word-spacing:0px;fill:#353535;fill-opacity:1;stroke:none;stroke-width:1px;stroke-linecap:butt;stroke-linejoin:miter;stroke-opacity:1"
       id="text4594-8-92-0-7-3"
       transform="matrix(8.5327845,0,0,8.5327845,-1826.5674,-3831.6818)">
      <path
         d="m 248.5475,494.79051 q 0,0.0971 -0.0278,0.17773 -0.0278,0.0799 -0.0785,0.13562 -0.0471,0.0528 -0.11135,0.0821 -0.0635,0.0285 -0.13491,0.0285 -0.0621,0 -0.11277,-0.0136 -0.05,-0.0136 -0.10207,-0.0421 l 0,0.33405 -0.13419,0 0,-1.09137 0.13419,0 0,0.0835 q 0.0535,-0.045 0.11991,-0.0749 0.0671,-0.0307 0.14276,-0.0307 0.14418,0 0.22412,0.10921 0.0807,0.1085 0.0807,0.30193 z m -0.13847,0.004 q 0,-0.14418 -0.0493,-0.21556 -0.0493,-0.0714 -0.15132,-0.0714 -0.0578,0 -0.11634,0.025 -0.0585,0.025 -0.11206,0.0657 l 0,0.45182 q 0.0571,0.0257 0.0978,0.035 0.0414,0.009 0.0935,0.009 0.11206,0 0.17487,-0.0757 0.0628,-0.0757 0.0628,-0.22413 z"
         id="path3426"
         inkscape:connector-curvature="0" />
      <path
         d="m 249.48041,495.19879 -0.17702,0 -0.31977,-0.34904 -0.0871,0.0828 0,0.26624 -0.13419,0 0,-1.11064 0.13419,0 0,0.71235 0.38758,-0.399 0.16916,0 -0.37045,0.36831 0.39758,0.42898 z"
         id="path3428"
         inkscape:connector-curvature="0" />
      <path
         d="m 250.03573,495.19165 q -0.0378,0.01 -0.0828,0.0164 -0.0443,0.006 -0.0792,0.006 -0.12206,0 -0.18558,-0.0657 -0.0635,-0.0657 -0.0635,-0.21057 l 0,-0.42398 -0.0907,0 0,-0.11278 0.0907,0 0,-0.22912 0.13419,0 0,0.22912 0.27695,0 0,0.11278 -0.27695,0 0,0.36331 q 0,0.0628 0.003,0.0985 0.003,0.035 0.02,0.0657 0.0157,0.0285 0.0428,0.0421 0.0278,0.0129 0.0842,0.0129 0.0328,0 0.0685,-0.009 0.0357,-0.01 0.0514,-0.0164 l 0.007,0 0,0.12062 z"
         id="path3430"
         inkscape:connector-curvature="0" />
      <path
         d="m 250.62531,495.49287 -0.16346,0 q -0.12634,-0.1449 -0.19629,-0.31621 -0.07,-0.1713 -0.07,-0.38615 0,-0.21485 0.07,-0.38615 0.07,-0.17131 0.19629,-0.31621 l 0.16346,0 0,0.007 q -0.0578,0.0521 -0.11064,0.12063 -0.0521,0.0678 -0.0971,0.15846 -0.0428,0.0878 -0.07,0.19343 -0.0264,0.10564 -0.0264,0.2227 0,0.12206 0.0257,0.22341 0.0264,0.10136 0.0707,0.19272 0.0428,0.0878 0.0978,0.15846 0.055,0.0714 0.10993,0.12063 l 0,0.007 z"
         id="path3432"
         inkscape:connector-curvature="0" />
      <path
         d="m 251.56464,494.66703 q 0,0.28622 -0.0899,0.42041 -0.0892,0.13348 -0.27766,0.13348 -0.19129,0 -0.2798,-0.13562 -0.0878,-0.13562 -0.0878,-0.41685 0,-0.28337 0.0892,-0.41827 0.0892,-0.13562 0.27837,-0.13562 0.19129,0 0.27909,0.13776 0.0885,0.13705 0.0885,0.41471 z m -0.18773,0.32405 q 0.025,-0.0578 0.0335,-0.13562 0.009,-0.0785 0.009,-0.18843 0,-0.1085 -0.009,-0.18844 -0.009,-0.0799 -0.0343,-0.13562 -0.025,-0.055 -0.0685,-0.0828 -0.0428,-0.0278 -0.11064,-0.0278 -0.0671,0 -0.11135,0.0278 -0.0435,0.0278 -0.0692,0.0842 -0.0243,0.0528 -0.0335,0.13776 -0.009,0.0849 -0.009,0.18629 0,0.11135 0.008,0.1863 0.008,0.075 0.0335,0.13419 0.0236,0.0557 0.0664,0.0849 0.0435,0.0293 0.11492,0.0293 0.0671,0 0.11135,-0.0278 0.0443,-0.0278 0.0685,-0.0842 z"
         id="path3434"
         inkscape:connector-curvature="0" />
      <path
         d="m 252.19704,494.79051 q 0,0.21485 -0.0699,0.38615 -0.07,0.17131 -0.19629,0.31621 l -0.16345,0 0,-0.007 q 0.055,-0.0492 0.10992,-0.12063 0.0557,-0.0707 0.0978,-0.15846 0.0442,-0.0914 0.0699,-0.19272 0.0264,-0.10135 0.0264,-0.22341 0,-0.11706 -0.0264,-0.2227 -0.0264,-0.10564 -0.0699,-0.19343 -0.045,-0.0906 -0.0978,-0.15846 -0.0521,-0.0685 -0.10992,-0.12063 l 0,-0.007 0.16345,0 q 0.12634,0.1449 0.19629,0.31621 0.0699,0.1713 0.0699,0.38615 z"
         id="path3436"
         inkscape:connector-curvature="0" />
    </g>
    <g
       style="font-style:normal;font-variant:normal;font-weight:normal;font-stretch:normal;font-size:2.72750711px;line-height:101.99999809%;font-family:Courier;-inkscape-font-specification:Courier;letter-spacing:0px;word-spacing:0px;fill:#ff3535;fill-opacity:1;stroke:none;stroke-width:1px;stroke-linecap:butt;stroke-linejoin:miter;stroke-opacity:1"
       id="text4594-8-92-2-0"
       transform="matrix(8.5327845,0,0,8.5327845,-1826.5674,-3831.6818)">
      <path
         d="m 247.37314,501.65891 -0.34227,0 -0.66323,-0.78842 -0.37157,0 0,0.78842 -0.26369,0 0,-1.98304 0.55535,0 q 0.1798,0 0.29966,0.024 0.11986,0.0226 0.21575,0.0826 0.10787,0.0679 0.1678,0.1718 0.0613,0.10255 0.0613,0.26103 0,0.21442 -0.10787,0.35959 -0.10788,0.14383 -0.29699,0.21708 l 0.7458,0.867 z m -0.61662,-1.42502 q 0,-0.0852 -0.0306,-0.15049 -0.0293,-0.0666 -0.0985,-0.11187 -0.0573,-0.0386 -0.13584,-0.0533 -0.0786,-0.016 -0.18512,-0.016 l -0.31031,0 0,0.74847 0.26636,0 q 0.12519,0 0.21841,-0.0213 0.0932,-0.0226 0.15849,-0.0826 0.0599,-0.0559 0.0879,-0.12785 0.0293,-0.0733 0.0293,-0.18512 z"
         id="path3439"
         inkscape:connector-curvature="0" />
      <path
         d="m 248.9633,499.91026 -0.70851,0 0,1.74865 -0.2637,0 0,-1.74865 -0.70851,0 0,-0.23439 1.68072,0 0,0.23439 z"
         id="path3441"
         inkscape:connector-curvature="0" />
      <path
         d="m 250.55612,499.91026 -0.70851,0 0,1.74865 -0.26369,0 0,-1.74865 -0.70852,0 0,-0.23439 1.68072,0 0,0.23439 z"
         id="path3443"
         inkscape:connector-curvature="0" />
    </g>
    <path
       style="fill:none;fill-rule:evenodd;stroke:#ff3535;stroke-width:4.26639223;stroke-linecap:butt;stroke-linejoin:miter;stroke-miterlimit:4;stroke-dasharray:none;stroke-opacity:1;marker-start:url(#Arrow2Sstart);marker-end:url(#marker4642-2)"
       d="m 261.68121,406.27397 0,68.26228"
       id="path3409-7"
       inkscape:connector-curvature="0"
       sodipodi:nodetypes="cc" />
  </g>
</svg>
